<svg width="25" height="25" viewBox="0 0 25 25" fill="none" xmlns="http://www.w3.org/2000/svg">
<path d="M16.69 2.27954H8.31C4.67 2.27954 2.5 4.44954 2.5 8.08954V16.4695C2.5 20.1095 4.67 22.2795 8.31 22.2795H16.69C20.33 22.2795 22.5 20.1095 22.5 16.4695V8.08954C22.5 4.44954 20.33 2.27954 16.69 2.27954ZM10.47 15.1795L8.22 17.4295C8.07 17.5795 7.88 17.6495 7.69 17.6495C7.5 17.6495 7.3 17.5795 7.16 17.4295L6.41 16.6795C6.11 16.3895 6.11 15.9095 6.41 15.6195C6.7 15.3295 7.17 15.3295 7.47 15.6195L7.69 15.8395L9.41 14.1195C9.7 13.8295 10.17 13.8295 10.47 14.1195C10.76 14.4095 10.76 14.8895 10.47 15.1795ZM10.47 8.17954L8.22 10.4295C8.07 10.5795 7.88 10.6495 7.69 10.6495C7.5 10.6495 7.3 10.5795 7.16 10.4295L6.41 9.67954C6.11 9.38954 6.11 8.90954 6.41 8.61954C6.7 8.32954 7.17 8.32954 7.47 8.61954L7.69 8.83954L9.41 7.11954C9.7 6.82954 10.17 6.82954 10.47 7.11954C10.76 7.40954 10.76 7.88954 10.47 8.17954ZM18.06 16.8995H12.81C12.4 16.8995 12.06 16.5595 12.06 16.1495C12.06 15.7395 12.4 15.3995 12.81 15.3995H18.06C18.48 15.3995 18.81 15.7395 18.81 16.1495C18.81 16.5595 18.48 16.8995 18.06 16.8995ZM18.06 9.89954H12.81C12.4 9.89954 12.06 9.55954 12.06 9.14954C12.06 8.73954 12.4 8.39954 12.81 8.39954H18.06C18.48 8.39954 18.81 8.73954 18.81 9.14954C18.81 9.55954 18.48 9.89954 18.06 9.89954Z" fill="url(#paint0_linear_90_3749)"/>
<defs>
<linearGradient id="paint0_linear_90_3749" x1="2.5" y1="22.2795" x2="26.1692" y2="14.0304" gradientUnits="userSpaceOnUse">
<stop offset="0.00397914" stop-color="#00ADEF"/>
<stop offset="1" stop-color="#002299"/>
</linearGradient>
</defs>
</svg>
