<svg width="102" height="57" viewBox="0 0 102 57" fill="none" xmlns="http://www.w3.org/2000/svg">
<path d="M0.553406 8.73474C0.553406 4.59261 3.91127 1.23474 8.05341 1.23474H93.9467C98.0888 1.23474 101.447 4.59261 101.447 8.73474V48.7347C101.447 52.8769 98.0888 56.2347 93.9467 56.2347H8.0534C3.91127 56.2347 0.553406 52.8769 0.553406 48.7347V8.73474Z" fill="white" stroke="#E8ECF4"/>
<path d="M57.7334 39.8208C56.4267 41.0875 55.0001 40.8875 53.6267 40.2875C52.1734 39.6742 50.8401 39.6475 49.3067 40.2875C47.3867 41.1142 46.3734 40.8742 45.2267 39.8208C38.7201 33.1142 39.6801 22.9008 47.0667 22.5275C48.8667 22.6208 50.1201 23.5142 51.1734 23.5942C52.7467 23.2742 54.2534 22.3542 55.9334 22.4742C57.9467 22.6342 59.4667 23.4342 60.4667 24.8742C56.3067 27.3675 57.2934 32.8475 61.1067 34.3808C60.3467 36.3808 59.3601 38.3675 57.7201 39.8342L57.7334 39.8208ZM51.0401 22.4475C50.8401 19.4742 53.2534 17.0208 56.0267 16.7808C56.4134 20.2208 52.9067 22.7808 51.0401 22.4475Z" fill="black"/>
</svg>
