<svg width="25" height="24" viewBox="0 0 25 24" fill="none" xmlns="http://www.w3.org/2000/svg">
<path d="M15.041 18.82C14.851 18.82 14.661 18.75 14.511 18.6C14.221 18.31 14.221 17.83 14.511 17.54L20.051 12L14.511 6.46C14.221 6.17 14.221 5.69 14.511 5.4C14.801 5.11 15.281 5.11 15.571 5.4L21.641 11.47C21.931 11.76 21.931 12.24 21.641 12.53L15.571 18.6C15.421 18.75 15.231 18.82 15.041 18.82Z" fill="#00ADEF"/>
<path d="M20.941 12.75H4.11096C3.70096 12.75 3.36096 12.41 3.36096 12C3.36096 11.59 3.70096 11.25 4.11096 11.25H20.941C21.351 11.25 21.691 11.59 21.691 12C21.691 12.41 21.351 12.75 20.941 12.75Z" fill="#00ADEF"/>
</svg>
