<svg width="42" height="41" viewBox="0 0 42 41" fill="none" xmlns="http://www.w3.org/2000/svg">
<rect x="0.605713" y="0.5" width="40" height="40" rx="11.5" fill="white" stroke="#E8ECF4"/>
<path d="M23.2632 13.3671C23.1713 13.2749 23.0621 13.2018 22.9419 13.1519C22.8216 13.102 22.6928 13.0764 22.5626 13.0764C22.4324 13.0764 22.3035 13.102 22.1833 13.1519C22.0631 13.2018 21.9539 13.2749 21.862 13.3671L15.2832 19.9458C15.2098 20.0191 15.1516 20.1061 15.1119 20.2018C15.0721 20.2976 15.0517 20.4003 15.0517 20.504C15.0517 20.6076 15.0721 20.7103 15.1119 20.8061C15.1516 20.9018 15.2098 20.9888 15.2832 21.0621L21.862 27.6408C22.2499 28.0287 22.8753 28.0287 23.2632 27.6408C23.6511 27.2529 23.6511 26.6275 23.2632 26.2396L17.5315 20.5L23.2711 14.7604C23.6511 14.3804 23.6511 13.7471 23.2632 13.3671Z" fill="#1E232C" stroke="#1E232C" stroke-width="0.2"/>
</svg>
