<svg width="75" height="92" viewBox="0 0 75 92" fill="none" xmlns="http://www.w3.org/2000/svg">
<path d="M9.74955 38.537C10.1121 39.6557 10.7457 40.6713 11.5961 41.4969C12.4465 42.3224 13.4883 42.9332 14.6321 43.2768C15.4007 43.5083 16.0717 43.9789 16.5439 44.6175C17.0161 45.2561 17.2638 46.0281 17.2496 46.817C17.2343 47.7872 17.4169 48.7505 17.7866 49.6505C18.1562 50.5504 18.7055 51.3687 19.4021 52.0573C20.3933 53.0279 21.6391 53.7101 23.0013 54.0284C24.3635 54.3467 25.7889 54.2886 27.1196 53.8605C27.8846 53.6076 28.7119 53.6011 29.481 53.8421C30.25 54.083 30.9205 54.5588 31.3946 55.2C32.0806 56.1629 32.9945 56.9479 34.0579 57.4876C35.1213 58.0274 36.3024 58.3057 37.4996 58.2986C38.6952 58.297 39.8731 58.015 40.935 57.476C41.997 56.937 42.9123 56.1567 43.6046 55.2C44.0704 54.5593 44.7334 54.0819 45.4961 53.8382C46.2588 53.5944 47.081 53.5971 47.8421 53.8458C49.1727 54.2739 50.5981 54.332 51.9603 54.0137C53.3225 53.6954 54.5683 53.0132 55.5596 52.0426C56.2561 51.354 56.8054 50.5357 57.1751 49.6358C57.5447 48.7358 57.7273 47.7725 57.7121 46.8023C57.6978 46.0134 57.9455 45.2414 58.4177 44.6028C58.8899 43.9641 59.5609 43.4936 60.3296 43.2621C61.4745 42.9172 62.5187 42.3083 63.3746 41.4862C64.2306 40.6642 64.8735 39.6529 65.2496 38.537C65.6218 37.4268 65.7152 36.2448 65.522 35.0915C65.3287 33.9382 64.8545 32.8478 64.1395 31.913C63.6564 31.2829 63.3952 30.5157 63.3952 29.7271C63.3952 28.9385 63.6564 28.1713 64.1395 27.5412C64.8496 26.6004 65.3208 25.5069 65.5138 24.3516C65.7069 23.1963 65.6163 22.0124 65.2496 20.8983C64.8829 19.7843 64.2507 18.7721 63.4055 17.9459C62.5602 17.1197 61.5263 16.5033 60.3895 16.1479C59.6209 15.9164 58.9499 15.4459 58.4777 14.8072C58.0055 14.1686 57.7578 13.3966 57.7721 12.6077C57.7804 11.6322 57.5889 10.6649 57.2088 9.7634C56.8288 8.86192 56.2679 8.04461 55.5596 7.36005C54.5684 6.38687 53.3217 5.70245 51.9579 5.38282C50.5942 5.06319 49.1669 5.12089 47.8346 5.54949C47.074 5.78942 46.2556 5.78769 45.4961 5.54453C44.7366 5.30136 44.0746 4.82918 43.6046 4.19525C42.9115 3.23999 41.9958 2.46107 40.9339 1.92337C39.872 1.38568 38.6945 1.10477 37.4996 1.10405C36.303 1.09616 35.1224 1.37333 34.0591 1.91174C32.9957 2.45016 32.0814 3.23374 31.3946 4.19525C30.924 4.83067 30.2608 5.30382 29.4997 5.54705C28.7386 5.79028 27.9187 5.79113 27.1571 5.54949C26.3821 5.28886 25.5688 5.1546 24.7496 5.15205C23.7585 5.15706 22.7783 5.35477 21.8656 5.73376C20.9529 6.11275 20.1258 6.66549 19.4321 7.36005C18.7355 8.04865 18.1862 8.86697 17.8166 9.7669C17.4469 10.6668 17.2643 11.6302 17.2796 12.6004C17.2938 13.3893 17.0461 14.1613 16.5739 14.7999C16.1017 15.4385 15.4307 15.9091 14.6621 16.1405C13.5144 16.4786 12.4676 17.0853 11.6119 17.9084C10.7561 18.7316 10.117 19.7464 9.74955 20.8656C9.38608 21.977 9.29717 23.1573 9.49017 24.3091C9.68317 25.4608 10.1525 26.551 10.8596 27.4896C11.3358 28.1226 11.5928 28.8887 11.5928 29.6756C11.5928 30.4624 11.3358 31.2285 10.8596 31.8615C10.1441 32.806 9.66998 33.9052 9.47684 35.0667C9.28371 36.2282 9.37722 37.4183 9.74955 38.537ZM13.8746 25.289C13.5228 24.8184 13.2901 24.2724 13.1958 23.6961C13.1015 23.1198 13.1482 22.5297 13.3321 21.9747C13.516 21.4196 13.8318 20.9154 14.2535 20.5037C14.6751 20.0921 15.1905 19.7847 15.7571 19.6071C17.2964 19.1433 18.6407 18.2013 19.5875 16.9231C20.5343 15.6449 21.0325 14.0995 21.0071 12.5194C20.9989 12.0357 21.0896 11.5552 21.2738 11.1065C21.458 10.6577 21.732 10.2497 22.0796 9.90661C22.4302 9.56333 22.8467 9.29163 23.305 9.10719C23.7633 8.92276 24.2542 8.82924 24.7496 8.83205C25.1579 8.83373 25.5632 8.90085 25.9496 9.03077C27.4749 9.53589 29.1253 9.54598 30.6569 9.05955C32.1886 8.57312 33.52 7.61599 34.4546 6.32965C34.8018 5.85551 35.2591 5.46928 35.7886 5.20287C36.3181 4.93645 36.9045 4.7975 37.4996 4.7975C38.0946 4.7975 38.681 4.93645 39.2105 5.20287C39.74 5.46928 40.1973 5.85551 40.5446 6.32965C41.2376 7.2849 42.1533 8.06382 43.2152 8.60152C44.2771 9.13921 45.4546 9.42012 46.6496 9.42085C47.463 9.42222 48.2712 9.29293 49.0421 9.03813C49.7066 8.82058 50.42 8.79007 51.1014 8.95008C51.7828 9.11008 52.4048 9.45419 52.8971 9.94341C53.2378 10.2819 53.5073 10.683 53.69 11.1237C53.8728 11.5645 53.9652 12.0362 53.9621 12.512C53.9378 14.0918 54.4365 15.6367 55.3831 16.9147C56.3298 18.1927 57.6733 19.1348 59.2121 19.5997C59.7786 19.7774 60.294 20.0847 60.7156 20.4964C61.1373 20.908 61.4531 21.4122 61.637 21.9673C61.8209 22.5224 61.8676 23.1124 61.7733 23.6887C61.679 24.265 61.4463 24.811 61.0946 25.2816C60.1265 26.5454 59.603 28.0835 59.603 29.6645C59.603 31.2455 60.1265 32.7837 61.0946 34.0474C61.4495 34.5183 61.6848 35.0655 61.7808 35.6436C61.8769 36.2217 61.8309 36.8139 61.6468 37.371C61.4627 37.9282 61.1457 38.4341 60.7223 38.8469C60.2988 39.2596 59.781 39.5672 59.2121 39.744C57.6727 40.2079 56.3284 41.1498 55.3816 42.428C54.4348 43.7062 53.9366 45.2517 53.9621 46.8317C53.9692 47.3142 53.878 47.7933 53.6938 48.2407C53.5097 48.6881 53.2362 49.0949 52.8895 49.4372C52.3973 49.9264 51.7753 50.2705 51.0939 50.4305C50.4125 50.5905 49.6991 50.56 49.0346 50.3424C47.5095 49.8398 45.8601 49.8318 44.33 50.3195C42.7999 50.8072 41.4701 51.7648 40.5371 53.0509C40.1898 53.5251 39.7325 53.9113 39.203 54.1777C38.6735 54.4441 38.0871 54.5831 37.4921 54.5831C36.897 54.5831 36.3106 54.4441 35.7811 54.1777C35.2516 53.9113 34.7943 53.5251 34.4471 53.0509C33.514 51.7648 32.1842 50.8072 30.6541 50.3195C29.124 49.8318 27.4746 49.8398 25.9496 50.3424C25.285 50.56 24.5716 50.5905 23.8902 50.4305C23.2089 50.2705 22.5868 49.9264 22.0946 49.4372C21.7479 49.0949 21.4744 48.6881 21.2903 48.2407C21.1061 47.7933 21.0149 47.3142 21.0221 46.8317C21.0475 45.2517 20.5493 43.7062 19.6025 42.428C18.6557 41.1498 17.3114 40.2079 15.7721 39.744C15.2055 39.5664 14.6901 39.2591 14.2685 38.8474C13.8468 38.4357 13.531 37.9315 13.3471 37.3765C13.1632 36.8214 13.1165 36.2314 13.2108 35.6551C13.3051 35.0788 13.5378 34.5328 13.8896 34.0621C14.8533 32.8015 15.3756 31.2687 15.3783 29.6927C15.381 28.1168 14.864 26.5822 13.9046 25.3184L13.8746 25.289ZM4.12455 63.642C3.72777 63.0624 3.51213 62.3816 3.50414 61.6834C3.49614 60.9852 3.69614 60.2999 4.07955 59.7117L10.6721 49.4077C10.7985 49.194 10.9674 49.0074 11.1689 48.8592C11.3704 48.7109 11.6003 48.604 11.8448 48.5448C12.0893 48.4857 12.3434 48.4754 12.5921 48.5148C12.8407 48.5541 13.0787 48.6421 13.2919 48.7737C13.505 48.9053 13.689 49.0776 13.8329 49.2805C13.9767 49.4833 14.0774 49.7125 14.129 49.9544C14.1806 50.1963 14.182 50.4459 14.1331 50.6884C14.0842 50.9308 13.9861 51.1611 13.8446 51.3655L7.34205 61.5885L13.2746 60.6464C14.1254 60.5019 15.0007 60.6696 15.7337 61.1174C16.4668 61.5653 17.0063 62.2622 17.2496 63.0752L18.9446 68.7351L25.5821 58.3869C25.698 58.1542 25.8628 57.9481 26.0655 57.7822C26.2683 57.6163 26.5044 57.4943 26.7585 57.4241C27.0126 57.3539 27.279 57.3372 27.5402 57.375C27.8013 57.4128 28.0514 57.5044 28.274 57.6436C28.4967 57.7828 28.6868 57.9666 28.8321 58.1829C28.9773 58.3992 29.0744 58.6432 29.1169 58.8989C29.1594 59.1545 29.1465 59.4162 29.0789 59.6666C29.0113 59.917 28.8905 60.1506 28.7246 60.352L22.0196 70.8032C21.6921 71.3218 21.2349 71.7496 20.6914 72.0459C20.1479 72.3422 19.5363 72.4972 18.9146 72.496C18.7398 72.5079 18.5643 72.5079 18.3896 72.496C17.6899 72.3986 17.0341 72.104 16.5016 71.6481C15.9691 71.1922 15.5828 70.5945 15.3896 69.9274L13.7171 64.3412L7.85955 65.2759C7.14843 65.3985 6.41623 65.3115 5.75545 65.0259C5.09468 64.7403 4.53498 64.269 4.14705 63.6714L4.12455 63.642ZM64.3046 49.4592L70.897 59.7632C71.2795 60.3557 71.4784 61.0443 71.4696 61.7455C71.4608 62.4467 71.2448 63.1304 70.8476 63.7134C70.4505 64.2964 69.8894 64.7537 69.2325 65.0298C68.5756 65.3059 67.8511 65.3888 67.1471 65.2685L61.2896 64.3338L59.6471 69.92C59.4538 70.5871 59.0675 71.1848 58.535 71.6408C58.0026 72.0967 57.3467 72.3912 56.6471 72.4887C56.4723 72.5005 56.2968 72.5005 56.1221 72.4887C55.5004 72.4898 54.8887 72.3348 54.3452 72.0386C53.8017 71.7423 53.3445 71.3145 53.0171 70.7959L46.2746 60.352C46.0307 59.9398 45.9595 59.4507 46.0758 58.9879C46.1921 58.5251 46.4869 58.1246 46.8981 57.8708C47.3093 57.6171 47.8048 57.5298 48.2803 57.6275C48.7557 57.7251 49.174 58 49.4471 58.3943L56.0846 68.7424L57.7496 63.0752C57.9922 62.2695 58.526 61.5783 59.2509 61.1311C59.9758 60.684 60.842 60.5117 61.6871 60.6464L67.6196 61.5959L61.0946 51.4244C60.8507 51.0121 60.7795 50.523 60.8958 50.0602C61.0121 49.5974 61.3069 49.1969 61.7181 48.9432C62.1293 48.6894 62.6248 48.6021 63.1003 48.6998C63.5757 48.7974 63.994 49.0723 64.2671 49.4666L64.3046 49.4592ZM34.3046 45.7792C35.3694 45.9842 36.4519 46.0877 37.5371 46.0884C41.84 46.0886 45.9782 44.4643 49.094 41.552C52.2098 38.6397 54.0643 34.6626 54.2734 30.445C54.4825 26.2273 53.03 22.0924 50.2169 18.8971C47.4039 15.7017 43.4459 13.6909 39.1632 13.2814C34.8806 12.8719 30.6015 14.0949 27.2127 16.6972C23.8239 19.2995 21.5853 23.0814 20.9607 27.2593C20.336 31.4372 21.3733 35.6908 23.8575 39.1387C26.3418 42.5865 30.0825 44.9643 34.3046 45.7792ZM24.7871 27.232C25.3703 24.3444 26.9564 21.7448 29.2746 19.8765C31.5928 18.0082 34.4997 16.987 37.4996 16.9869C38.3406 16.9886 39.1795 17.07 40.0046 17.2298C42.5178 17.7173 44.8273 18.9252 46.641 20.7007C48.4547 22.4763 49.6911 24.7398 50.1939 27.205C50.6966 29.6702 50.4431 32.2263 49.4654 34.5501C48.4877 36.8739 46.8297 38.861 44.7012 40.26C42.5726 41.6591 40.0691 42.4073 37.5072 42.41C34.9453 42.4128 32.4402 41.6699 30.3085 40.2753C28.1769 38.8808 26.5146 36.8973 25.5317 34.5756C24.5489 32.2539 24.2898 29.6983 24.7871 27.232ZM31.3421 31.0666C30.99 30.7211 30.7922 30.2525 30.7922 29.7639C30.7922 29.2753 30.99 28.8067 31.3421 28.4612C31.6941 28.1157 32.1716 27.9216 32.6696 27.9216C33.1675 27.9216 33.645 28.1157 33.9971 28.4612L35.8271 30.257L41.0096 25.1786C41.3616 24.8331 41.8391 24.639 42.3371 24.639C42.835 24.639 43.3125 24.8331 43.6646 25.1786C44.0166 25.5241 44.2144 25.9927 44.2144 26.4813C44.2144 26.9699 44.0166 27.4385 43.6646 27.784L37.1621 34.1652C36.9879 34.3365 36.781 34.4725 36.5532 34.5652C36.3254 34.658 36.0812 34.7057 35.8346 34.7057C35.5879 34.7057 35.3437 34.658 35.1159 34.5652C34.8881 34.4725 34.6812 34.3365 34.5071 34.1652L31.3421 31.0666Z" fill="#00ADEF"/>
</svg>
