<svg width="94" height="129" viewBox="0 0 94 129" fill="none" xmlns="http://www.w3.org/2000/svg">
<path d="M68.1896 0.0275615C67.702 0.0884659 67.2349 0.229661 66.817 0.442388C66.3992 0.655114 66.0394 0.934873 65.7599 1.26452L0.665216 76.0322C0.282518 76.4703 0.0555147 76.9852 0.0089536 77.5207C-0.0376075 78.0563 0.0980619 78.5919 0.401169 79.0692C0.704277 79.5465 1.16319 79.9472 1.72788 80.2276C2.29256 80.508 2.94136 80.6573 3.60352 80.6592H36.7159L20.0467 125.236C19.8051 125.898 19.8593 126.608 20.2 127.241C20.5406 127.873 21.1458 128.389 21.9088 128.695C22.6719 129.002 23.5439 129.08 24.3713 128.917C25.1987 128.753 25.9284 128.358 26.4319 127.801L93.3347 53.0337C93.7174 52.5956 93.9445 52.0807 93.991 51.5451C94.0376 51.0096 93.902 50.4739 93.5988 49.9966C93.2957 49.5193 92.8368 49.1186 92.2721 48.8382C91.7074 48.5578 91.0586 48.4085 90.3964 48.4066H55.4758L72.145 3.78426C72.3213 3.31351 72.3487 2.8144 72.2246 2.33282C72.1006 1.85124 71.829 1.40266 71.4351 1.02848C71.0411 0.6543 70.5373 0.366493 69.9702 0.191577C69.403 0.0166615 68.7907 -0.0397267 68.1896 0.0275615ZM58.8097 19.3608L47.1695 50.4682C47.0015 50.9066 46.9627 51.3708 47.0564 51.8236C47.1501 52.2764 47.3737 52.705 47.709 53.0749C48.0443 53.4448 48.4821 53.7458 48.9871 53.9535C49.492 54.1612 50.0501 54.2698 50.6163 54.2707H83.2767L33.156 110.255L45.0223 78.5518C45.1797 78.1162 45.2102 77.657 45.1114 77.2102C45.0127 76.7635 44.7874 76.3414 44.4533 75.9772C44.1191 75.6131 43.6853 75.3167 43.1859 75.1116C42.6865 74.9065 42.1352 74.7981 41.5754 74.7951H10.5537L58.8097 19.3608Z" fill="white"/>
</svg>
