<svg width="129" height="95" viewBox="0 0 129 95" fill="none" xmlns="http://www.w3.org/2000/svg">
<path fill-rule="evenodd" clip-rule="evenodd" d="M5.45606 81.7513C4.77857 81.7513 4.15848 82.0043 3.75702 82.4475C3.35613 82.8883 3.23036 83.452 3.41658 83.9916C5.09278 88.8455 10.0674 91.9818 16.0897 91.9818L112.913 91.9817C118.933 91.9817 123.907 88.8455 125.583 83.9916C125.77 83.452 125.647 82.8883 125.243 82.4475C124.841 82.0042 124.222 81.7513 123.544 81.7513H5.45606ZM112.913 94.2942H16.0905C8.90172 94.2942 2.73043 90.4088 0.731697 84.6251C0.301535 83.382 0.592076 82.0814 1.52885 81.0528C2.46298 80.0266 3.89416 79.4389 5.45647 79.4389L123.544 79.4387C125.107 79.4387 126.537 80.0266 127.474 81.0528C128.408 82.0814 128.699 83.3821 128.268 84.6251C126.273 90.4088 120.102 94.2943 112.913 94.2942Z" fill="white"/>
<path fill-rule="evenodd" clip-rule="evenodd" d="M11.5512 81.7514C10.7807 81.7514 10.1548 81.2335 10.1548 80.5952L10.155 22.3393C10.155 18.4658 13.9602 15.3151 18.6384 15.3151L30.3023 15.3151C31.0735 15.3151 31.6985 15.833 31.6985 16.4714C31.6986 17.1096 31.073 17.6276 30.302 17.6276H18.6386C15.4998 17.6276 12.9477 19.7402 12.9477 22.3394L12.9481 80.5952C12.9481 81.2335 12.3222 81.7514 11.5512 81.7514ZM117.451 81.7514C116.68 81.7514 116.055 81.2335 116.055 80.5952L116.055 22.3393C116.055 19.7401 113.5 17.6276 110.361 17.6276H98.701C97.9298 17.6276 97.3041 17.1097 97.3041 16.4714C97.3041 15.8329 97.9295 15.3151 98.7006 15.3151L110.361 15.3151C115.04 15.3151 118.848 18.4659 118.848 22.3394L118.848 80.5952C118.848 81.2335 118.222 81.7514 117.451 81.7514Z" fill="white"/>
<path fill-rule="evenodd" clip-rule="evenodd" d="M106.896 73.0119H22.1059C21.3347 73.0119 20.709 72.4941 20.709 71.8558L20.7096 25.2105C20.7096 24.5722 21.3344 24.0543 22.1055 24.0543H30.3014C31.0726 24.0543 31.6977 24.5722 31.6977 25.2105C31.6977 25.8489 31.0721 26.3668 30.3011 26.3668L23.5021 26.3667V70.6995H105.499V26.3667H98.7003C97.9292 26.3667 97.3034 25.8489 97.3034 25.2105C97.3034 24.5722 97.9288 24.0543 98.6999 24.0543H106.896C107.667 24.0543 108.292 24.5722 108.292 25.2105L108.292 71.8557C108.292 72.494 107.667 73.0119 106.896 73.0119Z" fill="white"/>
<path fill-rule="evenodd" clip-rule="evenodd" d="M94.4797 2.41824H34.5239C32.9646 2.41824 31.6985 3.46611 31.6985 4.75726L31.6986 54.2978C31.6986 55.589 32.964 56.6368 34.5234 56.6368H94.4797C96.0363 56.6368 97.3042 55.589 97.3042 54.2978V4.75719C97.3042 3.46604 96.0358 2.41824 94.4797 2.41824ZM94.4797 58.9494H34.5239C31.4256 58.9494 28.9055 56.8633 28.9055 54.2978L28.9061 4.75719C28.9061 2.19181 31.4251 0.105713 34.5234 0.105713H94.4797C97.5779 0.105713 100.097 2.19182 100.097 4.75726L100.097 54.2978C100.097 56.8633 97.5777 58.9494 94.4797 58.9494Z" fill="white"/>
<path fill-rule="evenodd" clip-rule="evenodd" d="M98.7014 14.7444H30.3026C29.5315 14.7444 28.9058 14.2264 28.9058 13.5881C28.9063 12.9497 29.5313 12.4318 30.3022 12.4318L98.7014 12.4318C99.4725 12.4318 100.097 12.9498 100.097 13.5881C100.098 14.2263 99.4719 14.7444 98.7014 14.7444Z" fill="white"/>
<path fill-rule="evenodd" clip-rule="evenodd" d="M52.6112 8.57997H38.3611C37.59 8.57997 36.9644 8.06457 36.9644 7.42381C36.9649 6.78543 37.5899 6.26758 38.3608 6.26758H52.6112C53.3823 6.26758 54.0073 6.7855 54.0073 7.42381C54.0075 8.06457 53.3818 8.58011 52.6112 8.57997Z" fill="white"/>
<path fill-rule="evenodd" clip-rule="evenodd" d="M68.6096 35.4991C67.9668 35.4991 67.4426 35.9327 67.4426 36.465L67.4431 44.2407C67.4431 44.7731 67.9663 45.2068 68.6092 45.2068L70.2913 45.2067C71.0624 45.2067 71.6874 45.7247 71.6874 46.3631L71.6875 48.372L75.8449 45.4765C76.095 45.3031 76.415 45.2068 76.7438 45.2068L88.0965 45.2067C88.7393 45.2067 89.2627 44.7733 89.2627 44.2409L89.263 36.465C89.263 35.9326 88.7391 35.4991 88.0961 35.4991L68.6096 35.4991ZM70.288 52.0117C70.0903 52.0117 69.8894 51.9757 69.7003 51.9035C69.2086 51.7131 68.8944 51.3037 68.8944 50.8556V47.5192H68.6096C66.4278 47.5192 64.6497 46.0475 64.6497 44.2409L64.6499 36.465C64.6499 34.656 66.4272 33.1866 68.6092 33.1866L88.0965 33.1865C90.2783 33.1865 92.0557 34.656 92.0557 36.465L92.0562 44.2407C92.0562 46.0475 90.278 47.5193 88.0961 47.5193L77.2504 47.5192L71.1874 51.7396C70.9315 51.9178 70.6109 52.0118 70.288 52.0117Z" fill="white"/>
<path fill-rule="evenodd" clip-rule="evenodd" d="M40.9067 21.6842C40.2639 21.6842 39.7397 22.1179 39.7397 22.6503L39.7402 30.426C39.7402 30.9584 40.2634 31.392 40.9064 31.392H52.2588C52.5874 31.392 52.9045 31.4884 53.1576 31.6618L57.3156 34.5573V32.5483C57.3156 31.9099 57.9406 31.392 58.7115 31.392H60.3903C61.0338 31.392 61.5569 30.9585 61.5569 30.4261L61.5575 22.6502C61.5575 22.1178 61.0333 21.6844 60.3902 21.6844L40.9067 21.6842ZM58.7119 38.197C58.3892 38.197 58.0686 38.1031 57.8126 37.9249L51.7495 33.7044H40.9067C38.7216 33.7044 36.9468 32.2327 36.9468 30.4261L36.947 22.6502C36.947 20.8412 38.7214 19.3718 40.9064 19.3718H60.3903C62.5754 19.3718 64.3499 20.8413 64.3499 22.6503L64.35 30.426C64.35 32.2327 62.5751 33.7046 60.3902 33.7046L60.1081 33.7044V37.0408C60.1081 37.4888 59.7939 37.8984 59.3021 38.0887C59.1131 38.1608 58.9123 38.1971 58.7119 38.197Z" fill="white"/>
</svg>
