<svg width="119" height="118" viewBox="0 0 119 118" fill="none" xmlns="http://www.w3.org/2000/svg">
<path d="M14.3149 21.4207H20.1705V24.1542H77.782V21.4207H83.6363V59.5783H87.9696V17.6159H77.7818V14.8106H93.6201V59.5783H97.9534V11.0058H77.7818V6.4541H65.9921C63.8071 4.41625 61.1703 2.79243 58.244 1.6825C55.3178 0.572572 52.1638 0 48.9762 0C45.7885 0 42.6346 0.572572 39.7083 1.6825C36.782 2.79243 34.1452 4.41625 31.9602 6.4541H20.1705V11.0058H0V117.905H65.4039V114.1H4.33332V14.8106H20.1716V17.6159H9.98159V106.3H65.4047V102.495H14.3149V21.4207ZM24.5038 10.2589H33.9121L34.5606 9.60087C36.348 7.78198 38.5609 6.32271 41.0485 5.32244C43.5361 4.32218 46.2401 3.80441 48.9762 3.80441C51.7122 3.80441 54.4162 4.32218 56.9038 5.32244C59.3914 6.32271 61.6043 7.78198 63.3917 9.60087L64.0391 10.2585H73.4485V20.3494H24.5038V10.2589Z" fill="white"/>
<path d="M38.4986 33.1731H22.3691V47.3481H38.4986V33.1731ZM34.1653 43.5433H26.7025V36.9779H34.1653V43.5433Z" fill="white"/>
<path d="M38.4986 54.7686H22.3691V68.9437H38.4986V54.7686ZM34.1653 65.1389H26.7025V58.5734H34.1653V65.1389Z" fill="white"/>
<path d="M22.3691 90.5385H38.4986V76.3635H22.3691V90.5385ZM26.7025 80.1683H34.1653V86.7337H26.7025V80.1683Z" fill="white"/>
<path d="M93.3697 88.1797H89.0364V101.023H93.3697V88.1797Z" fill="white"/>
<path d="M115.937 83.364L119 80.6738L109.319 72.1632L106.255 74.8532L109.332 77.5573L105.754 80.8734C102.19 78.3979 97.8825 76.8857 93.3567 76.5211V68.4568H98.9913V64.652H83.4074V68.4568H89.023V76.523C83.7239 76.9387 78.7389 78.91 74.8725 82.1188C71.0061 85.3276 68.4839 89.5867 67.7128 94.2087C66.9417 98.8307 67.9669 103.546 70.6227 107.594C73.2786 111.641 77.4102 114.785 82.3509 116.518C87.2916 118.25 92.7531 118.471 97.854 117.143C102.955 115.816 107.398 113.018 110.465 109.202C113.533 105.385 115.046 100.772 114.761 96.1077C114.477 91.443 112.41 86.9988 108.895 83.492L112.393 80.2492L115.937 83.364ZM110.461 97.1656C110.456 100.51 109.322 103.777 107.202 106.555C105.082 109.333 102.072 111.497 98.5522 112.774C95.0322 114.05 91.1602 114.382 87.4255 113.727C83.6909 113.071 80.2613 111.459 77.5702 109.093C74.8791 106.727 73.0472 103.713 72.3062 100.433C71.5651 97.153 71.9481 93.7537 73.4068 90.6647C74.8654 87.5757 77.3342 84.9358 80.5012 83.0784C83.6682 81.2211 87.3911 80.2298 91.1996 80.2298C96.3099 80.2379 101.208 82.0256 104.819 85.2005C108.43 88.3755 110.459 92.6786 110.461 97.1656Z" fill="white"/>
</svg>
