<svg width="119" height="118" viewBox="0 0 119 118" fill="none" xmlns="http://www.w3.org/2000/svg">
<g clip-path="url(#clip0_937_2206)">
<path d="M113.972 26.1271C96.6163 18.9544 79.5055 12.0329 69.2193 12.1195L69.2052 12.164C56.1756 10.777 46.1266 12.0985 40.2779 17.2364L40.2802 17.2457L6.24935 25.989C2.4671 26.96 0.192552 30.79 1.1741 34.5428L19.8707 106.115C20.8522 109.868 24.7147 112.121 28.4993 111.148L65.9585 101.527C66.0482 101.504 66.1378 101.478 66.2251 101.455C70.8186 102.778 74.2443 104.542 76.4252 106.775L85.3629 103.39C94.115 81.4017 104.952 58.7021 117.386 35.4576L113.972 26.1271Z" fill="#20BAB6"/>
<path d="M91.7949 78.5331L81.0498 101.328C80.4977 102.501 79.0938 103.006 77.914 102.458L74.5942 100.503C75.7999 99.5222 76.6871 98.1395 77.0292 96.5087L79.5822 84.3261L91.7949 78.5331ZM111.888 30.3876C113.068 30.9351 113.578 32.3272 113.026 33.497L98.1797 64.9935H98.1773L82.0266 72.6536L91.1578 29.0587L99.987 24.8707L111.888 30.3876Z" fill="url(#paint0_linear_937_2206)"/>
<path d="M113.972 26.127L78.2278 9.55992C75.0378 8.08125 71.1423 9.32361 69.2193 12.1195L69.2051 12.164L91.5872 21.0149L91.6273 20.9962L99.987 24.8706L111.888 30.3876C113.068 30.935 113.578 32.3271 113.026 33.497L98.1796 64.9935H98.1773L91.7949 78.5331L81.0498 101.328C80.4976 102.501 79.0937 103.006 77.914 102.458L74.5942 100.502C72.9968 101.803 70.8403 102.402 68.6601 101.953L66.2251 101.455L76.4252 106.775C79.9668 108.418 83.7065 106.901 85.3629 103.39L117.386 35.4576C119.042 31.9458 117.513 27.7671 113.972 26.127Z" fill="#E15C63"/>
<path d="M91.5872 21.0149C90.726 19.2017 88.9045 17.8306 86.361 17.1124L69.2051 12.164L50.4873 6.76639C46.6579 5.97792 43.4112 8.49306 42.1159 12.2108L40.2778 17.2364L40.2802 17.2457L43.7085 16.366C47.4931 15.3951 51.3556 17.6481 52.3372 21.401L56.4498 37.1445C62.1111 47.5902 65.1086 60.5556 66.4044 75.1312L66.3761 75.1382L71.0337 92.9711C71.9917 96.635 69.8469 100.371 66.2251 101.455L68.6601 101.953C70.8403 102.402 72.9968 101.803 74.5942 100.502C75.7999 99.5222 76.6871 98.1394 77.0292 96.5087L79.5822 84.3261L82.0266 72.6535L91.1578 29.0587L91.9954 25.0578C92.3092 23.5605 92.1511 22.1941 91.5872 21.0149Z" fill="url(#paint1_linear_937_2206)"/>
<path d="M75.5828 39.538C74.2379 52.0996 78.8365 68.8001 66.4044 75.1312L66.3761 75.1383L56.4497 37.1445C56.4497 37.1445 60.718 31.4264 61.4259 28.3076C61.4259 28.3076 62.3697 32.987 62.3697 36.7304C62.3697 36.7304 65.7815 30.0039 67.0886 21.7566C68.535 33.1273 72.2441 32.2968 69.92 48.8966C69.92 48.8966 73.6952 44.2173 75.5828 39.538Z" fill="#F69552"/>
<path d="M66.4657 94.1456C66.7937 95.395 66.0363 96.6724 64.774 96.9976L45.3247 101.993L60.1848 70.1009L66.4657 94.1456ZM20.5784 27.1424L10.0292 49.781L5.74199 33.3706C5.41402 32.1189 6.17142 30.8438 7.43374 30.5186L20.5784 27.1424ZM47.7692 22.5754L56.4497 55.8033L33.5131 105.027L27.3148 106.618C26.0524 106.944 24.7665 106.193 24.4386 104.941L13.7642 64.0763L32.3877 24.1079L44.8929 20.8956C46.1553 20.5727 47.4412 21.3237 47.7692 22.5754Z" fill="url(#paint2_linear_937_2206)"/>
<path d="M56.4498 55.8033L60.1849 70.1009L45.3249 101.993L33.5133 105.027L56.4498 55.8033ZM32.3878 24.1079L13.7644 64.0763L10.0293 49.781L20.5786 27.1424L32.3878 24.1079Z" fill="#6FCEAE"/>
<path d="M62.8063 35.811C62.535 36.4053 62.3698 36.7305 62.3698 36.7305C62.3698 35.5606 62.2778 34.2996 62.1504 33.118C62.358 33.972 62.5775 34.8704 62.8063 35.811Z" fill="white"/>
<path d="M93.1893 28.0947C94.7891 29.2622 96.8088 31.8499 95.5724 37.1796C94.6546 41.1336 91.4528 55.5974 88.3524 69.6517L82.0266 72.6535L91.1578 29.0587L93.1893 28.0947Z" fill="white"/>
<path d="M93.1894 28.0948L91.1579 29.0587L91.5402 27.2338C91.5402 27.2338 92.2999 27.4443 93.1894 28.0948ZM82.0267 72.6536L88.3525 69.6518C87.4653 73.683 86.5829 77.6838 85.7665 81.3922L79.5823 84.3261L82.0267 72.6536Z" fill="white"/>
<path d="M79.5822 84.3261L85.7664 81.3922C83.4612 91.8645 81.6727 100.007 81.6727 100.007L81.0498 101.328C80.4977 102.501 79.0938 103.006 77.914 102.459L74.5942 100.503C75.7999 99.5222 76.6871 98.1395 77.0292 96.5087L77.3855 94.8078L79.5822 84.3261Z" fill="white"/>
<path d="M81.0498 101.328L81.6727 100.006C81.6727 100.006 80.9365 105.456 73.8156 105.413H73.8132L66.2251 101.455L68.6601 101.953C70.8403 102.402 72.9968 101.803 74.5942 100.502L77.914 102.458C79.0937 103.006 80.4976 102.501 81.0498 101.328Z" fill="#D14B62"/>
<path d="M77.3855 94.8077L77.0292 96.5086C76.7031 98.0773 75.8434 99.4872 74.5942 100.502C72.9968 101.803 70.8403 102.402 68.6601 101.953L66.2251 101.455C69.8469 100.371 71.9917 96.635 71.0337 92.9711L66.3761 75.1382L66.4044 75.1312C68.5681 74.0292 70.215 72.6137 71.4679 70.9619C74.7169 84.0804 77.3855 94.8077 77.3855 94.8077Z" fill="white"/>
<path d="M62.8062 35.8109C65.1468 45.4129 68.5421 59.156 71.4678 70.9619C70.2149 72.6137 68.568 74.0292 66.4044 75.1312L66.3761 75.1382L56.4497 37.1445C56.4497 37.1445 60.0479 32.3248 61.1852 29.1218C61.4683 30.2963 61.7916 31.637 62.1502 33.1109V33.118C62.2776 34.2995 62.3697 35.5606 62.3697 36.7304C62.3697 36.7304 62.5348 36.4052 62.8062 35.8109Z" fill="#DD864A"/>
<path d="M60.1848 24.8707C60.3924 25.7902 60.7369 27.2478 61.1852 29.1219C60.0479 32.3249 56.4497 37.1446 56.4497 37.1446L52.3371 21.401C52.0915 20.4551 51.6477 19.571 51.0347 18.8063C51.0347 18.8063 58.1414 15.835 60.1848 24.8707Z" fill="white"/>
<path d="M48.6821 22.3397C48.2253 20.5913 46.4191 19.5373 44.6561 19.9902L7.19688 29.6128C5.43364 30.0657 4.37069 31.8565 4.82748 33.6049L23.5252 105.176C23.6329 105.592 23.8229 105.984 24.0842 106.328C24.3455 106.671 24.673 106.96 25.0476 107.177C25.421 107.396 25.8346 107.54 26.2643 107.599C26.694 107.659 27.1314 107.634 27.5512 107.525L65.0104 97.9025C66.7737 97.4495 67.8366 95.6588 67.3798 93.9103L48.6821 22.3397ZM6.65491 33.1358C6.60779 32.9574 6.59683 32.7714 6.62267 32.5887C6.64851 32.406 6.71063 32.2302 6.80544 32.0715C6.89935 31.9123 7.02415 31.7732 7.17262 31.6622C7.32109 31.5511 7.49029 31.4704 7.67043 31.4246L18.8846 28.5438L10.2798 47.0107L6.65491 33.1358ZM11.0268 49.8702L21.2464 27.9373L30.695 25.5102L14.0146 61.3074L11.0268 49.8702ZM27.0781 105.713C26.8983 105.76 26.7108 105.771 26.5267 105.745C26.3425 105.72 26.1653 105.658 26.0053 105.564C25.8447 105.471 25.7044 105.347 25.5924 105.2C25.4804 105.053 25.3989 104.885 25.3527 104.706L14.7616 64.1665L33.0569 24.9033L45.1294 21.802C45.2453 21.7722 45.3645 21.7572 45.4843 21.7571C45.7979 21.7575 46.1025 21.861 46.3505 22.0513C46.5985 22.2416 46.7759 22.5081 46.8549 22.809L55.4519 55.7154L32.845 104.232L27.0781 105.713ZM35.2068 103.625L56.1987 58.5747L59.1867 70.0119L44.6551 101.198L35.2068 103.625ZM64.5374 96.0909L47.017 100.591L59.9335 72.8712L65.5526 94.3799C65.6464 94.7403 65.5922 95.1228 65.4018 95.4436C65.2115 95.7644 64.9006 95.9972 64.5374 96.0909ZM118.514 29.7714C117.783 27.774 116.312 26.1786 114.37 25.2788L78.6275 8.71165C75.328 7.18245 71.1486 8.22921 68.8245 11.0801L50.7499 5.86686C50.7263 5.85997 50.7024 5.85411 50.6782 5.84931C46.6418 5.01663 42.7546 7.50813 41.2292 11.8912L39.5549 16.4669L6.0136 25.0829C3.93914 25.6157 2.19831 26.9179 1.11153 28.7492C0.0249848 30.5804 -0.277737 32.7217 0.259754 34.7787L18.9575 106.349C19.8928 109.929 23.1572 112.31 26.7247 112.31C27.3884 112.31 28.0632 112.228 28.7352 112.055L66.1137 102.453L75.9856 107.605C75.999 107.612 76.012 107.618 76.0257 107.624C77.1344 108.138 78.2658 108.384 79.3637 108.384C82.213 108.384 84.8327 106.726 86.2184 103.786L118.241 35.8538C119.148 33.929 119.246 31.7688 118.514 29.7714ZM65.7209 100.621L28.2617 110.243C24.9879 111.085 21.6329 109.127 20.7847 105.88L2.08694 34.3094C1.67615 32.7362 1.90738 31.0989 2.73839 29.6984C3.56941 28.2981 4.90086 27.3026 6.48715 26.895L43.9464 17.2727C44.4522 17.1423 44.9727 17.0761 45.4954 17.0757C46.5753 17.0757 47.6406 17.3611 48.5962 17.9187C50.0083 18.7427 51.0123 20.063 51.4233 21.6359L70.1211 93.2066C70.5319 94.7798 70.3006 96.417 69.4696 97.8173C68.6384 99.2174 67.3072 100.213 65.7209 100.621ZM69.547 49.7556C69.7369 49.8363 69.9483 49.8531 70.1487 49.8034C70.3492 49.7537 70.5277 49.6403 70.6569 49.4804C70.7671 49.3438 72.6169 47.0381 74.3759 44.041C74.3361 45.971 74.3637 47.9384 74.3908 49.8698C74.5291 59.7373 74.6553 69.0767 66.983 73.7305L57.4754 37.3381C58.1247 36.4415 59.8007 34.0607 61.0307 31.7323C61.2376 33.2568 61.4261 35.0943 61.4261 36.7295C61.4262 36.9401 61.4978 37.1446 61.6295 37.3098C61.7612 37.475 61.9453 37.5914 62.1519 37.64C62.3586 37.6887 62.5757 37.6668 62.7683 37.5779C62.9608 37.489 63.1175 37.3383 63.213 37.1502C63.3262 36.9268 65.4861 32.6288 67.021 26.6828C67.3888 28.2167 67.7861 29.4916 68.1573 30.6825C69.4524 34.8372 70.4755 38.1188 68.9855 48.7673C68.957 48.9703 68.9965 49.1769 69.0979 49.3555C69.1994 49.534 69.3572 49.6746 69.547 49.7556ZM69.0352 101.071C69.8672 100.443 70.5674 99.6606 71.0963 98.7665C72.1828 96.9353 72.4855 94.794 71.948 92.737L67.4759 75.6186C76.5663 70.5182 76.4207 60.0122 76.2779 49.8438C76.2293 46.3942 76.1793 42.8272 76.521 39.6359C76.545 39.4111 76.4862 39.1853 76.3554 39.0002C76.2247 38.815 76.0308 38.6831 75.8096 38.6286C75.5883 38.5746 75.3549 38.6016 75.1522 38.7047C74.9494 38.8077 74.791 38.9798 74.706 39.1894C73.8056 41.422 72.4447 43.6772 71.2992 45.3867C72.142 37.128 71.1623 33.9858 69.9599 30.1291C69.2825 27.9558 68.5145 25.4926 68.0247 21.6385C67.9963 21.4147 67.8873 21.2087 67.7179 21.0582C67.5485 20.9078 67.33 20.823 67.1026 20.8196C66.8751 20.8157 66.6538 20.8937 66.4798 21.0391C66.3058 21.1845 66.1907 21.3874 66.156 21.6104C65.4542 26.041 64.119 30.0543 63.0622 32.7633C62.7857 30.2978 62.377 28.2513 62.3508 28.1231C62.3085 27.9128 62.1946 27.7233 62.0282 27.5863C61.8618 27.4494 61.653 27.3732 61.4367 27.3707H61.4252C61.2109 27.3707 61.0031 27.4431 60.8358 27.5759C60.6685 27.7086 60.5518 27.8938 60.5048 28.1011C60.0718 30.0096 58.1318 33.071 56.8506 34.9484L53.25 21.1659C52.1409 16.9196 47.7539 14.3594 43.4726 15.4602L41.7707 15.8972L43.0082 12.5152C44.0289 9.58271 46.6671 6.95691 50.2589 7.67425L86.1007 18.0123C89.8879 19.0827 91.7462 21.6451 91.0714 24.8665L76.1047 96.3183C75.7713 97.9093 74.8332 99.2763 73.4633 100.168C72.1465 101.025 70.5812 101.342 69.0352 101.071ZM93.0466 22.6885L97.7776 24.8815L92.4692 27.3987L92.9199 25.2477C93.1067 24.356 93.1447 23.4992 93.0466 22.6885ZM99.9901 25.907L111.488 31.236C111.656 31.3137 111.808 31.4237 111.933 31.5597C112.059 31.6958 112.156 31.8552 112.219 32.0287C112.283 32.2019 112.312 32.386 112.303 32.5702C112.295 32.7545 112.25 32.9353 112.171 33.1021L97.4671 64.2942L83.3377 70.9943L91.9869 29.7021L99.9901 25.907ZM80.8926 82.6664L82.855 73.2977L96.2071 66.9659L91.0842 77.8334L80.8926 82.6664ZM89.8249 80.5055L80.1956 100.933C80.0392 101.264 79.7592 101.521 79.4149 101.65C79.0707 101.78 78.6891 101.771 78.351 101.627L76.1361 100.322C77.0486 99.2914 77.6749 98.0429 77.9534 96.6994L80.4103 84.9703L89.8249 80.5055ZM116.531 35.0614L84.508 102.994C83.0551 106.076 79.8344 107.311 76.8442 105.938L71.1588 102.971C72.3376 102.816 73.4756 102.399 74.4993 101.733C74.5522 101.698 74.6029 101.662 74.6548 101.626L77.4319 103.263C77.4586 103.278 77.486 103.293 77.5145 103.306C77.9507 103.509 78.4264 103.614 78.908 103.614C80.1517 103.614 81.3452 102.915 81.9058 101.725L113.881 33.8946C114.065 33.5052 114.171 33.0834 114.19 32.6534C114.209 32.2235 114.142 31.7941 113.993 31.39C113.846 30.9851 113.62 30.6131 113.327 30.2956C113.034 29.9781 112.681 29.7214 112.287 29.5402L92.2705 20.2625C91.2475 18.4032 89.3089 16.9732 86.6238 16.214L70.8436 11.6627C72.6922 9.9133 75.5399 9.34663 77.8286 10.4077L113.571 26.9748C115.056 27.6627 116.181 28.8828 116.74 30.4103C117.299 31.9379 117.225 33.5892 116.531 35.0614Z" fill="white"/>
</g>
<defs>
<linearGradient id="paint0_linear_937_2206" x1="74.5942" y1="102.679" x2="124.403" y2="94.0556" gradientUnits="userSpaceOnUse">
<stop offset="0.00397914" stop-color="#00ADEF"/>
<stop offset="1" stop-color="#002299"/>
</linearGradient>
<linearGradient id="paint1_linear_937_2206" x1="40.2778" y1="102.101" x2="106.745" y2="89.5148" gradientUnits="userSpaceOnUse">
<stop offset="0.00397914" stop-color="#00ADEF"/>
<stop offset="1" stop-color="#002299"/>
</linearGradient>
<linearGradient id="paint2_linear_937_2206" x1="5.66553" y1="106.694" x2="81.8132" y2="87.8805" gradientUnits="userSpaceOnUse">
<stop offset="0.00397914" stop-color="#00ADEF"/>
<stop offset="1" stop-color="#002299"/>
</linearGradient>
<clipPath id="clip0_937_2206">
<rect width="119" height="118" fill="white"/>
</clipPath>
</defs>
</svg>
