<svg width="158" height="158" viewBox="0 0 158 158" fill="none" xmlns="http://www.w3.org/2000/svg">
<circle cx="79" cy="78.7512" r="78.7512" fill="#E5F8FF"/>
<circle cx="1.83645" cy="1.83645" r="1.83645" transform="matrix(1 0 0 -1 19.4592 82.6401)" fill="#76D4B5"/>
<circle cx="4.59112" cy="4.59112" r="4.59112" transform="matrix(1 0 0 -1 39.6602 44.0747)" fill="white"/>
<circle cx="4.59112" cy="4.59112" r="4.59112" transform="matrix(1 0 0 -1 56.9445 144.809)" fill="#011A51"/>
<circle cx="4.59112" cy="4.59112" r="4.59112" transform="matrix(1 0 0 -1 122.57 73.3499)" fill="#00ADEF"/>
<path d="M79.5976 131.242C109.083 117.656 114.617 80.1636 111.813 53.8493L79.5976 30.6255L47.3826 53.8493C44.5784 80.1636 50.1127 117.656 79.5976 131.242Z" fill="#011A51" stroke="#020151"/>
<circle cx="79" cy="81.4114" r="15.2295" fill="#00ADEF" stroke="#E0EBFE" stroke-width="3"/>
<mask id="mask0_43_44530" style="mask-type:alpha" maskUnits="userSpaceOnUse" x="65" y="68" width="28" height="27">
<circle cx="79.0001" cy="81.4115" r="11.6446" fill="#00ADEF" stroke="#DAFFF3" stroke-width="3"/>
</mask>
<g mask="url(#mask0_43_44530)">
<path d="M82.7953 75.9721L82.8849 76.1602L83.0609 76.2218C83.0723 76.235 83.109 76.2828 83.1529 76.4134C83.2195 76.6113 83.2658 76.8947 83.2934 77.2422C83.3352 77.7697 83.3292 78.3586 83.3239 78.8865C83.3221 79.0556 83.3205 79.2184 83.3205 79.371V79.5249L83.4071 79.6522C83.7219 80.1149 83.8484 80.5203 83.873 80.8781C83.8978 81.2387 83.8213 81.5846 83.6803 81.93C83.5374 82.2799 83.335 82.6142 83.1169 82.9554C83.0858 83.0039 83.0541 83.0531 83.022 83.1029C82.8392 83.3864 82.6452 83.6873 82.5085 83.9744L82.4913 84.0104L82.4801 84.0488C81.9441 85.8776 80.6324 87.118 79.3033 87.3083C78.044 87.4885 76.4928 86.7485 75.3917 84.0033L75.3633 83.9323L75.315 83.8732C73.6758 81.8655 74.1022 80.3602 74.4291 80.017L74.5087 79.9334L74.5437 79.8234C74.8541 78.8458 74.854 77.8741 74.854 76.7074C74.854 76.6919 74.854 76.6762 74.854 76.6606C74.854 75.8228 75.3692 75.0512 76.1583 74.4644C76.9476 73.8774 77.921 73.5468 78.6569 73.5468C79.3164 73.5468 80.1252 73.6196 80.8238 73.8272C81.542 74.0406 82.0278 74.3607 82.2216 74.7675L82.7953 75.9721Z" fill="white" stroke="white"/>
<path d="M78.9801 88.7784L79.0002 88.7792L79.0202 88.7784C80.1442 88.7333 81.3887 88.2302 82.7727 87.0329C84.1583 87.3453 85.7403 87.8497 86.9944 88.7648C88.2336 89.669 89.1584 90.9753 89.2478 92.9537C88.3648 93.313 86.8872 93.58 85.1193 93.7592C83.1779 93.9559 80.9688 94.04 79.0002 94.0546C77.0316 94.04 74.8224 93.9559 72.881 93.7592C71.1131 93.58 69.6356 93.3131 68.7526 92.9537C68.8419 90.9753 69.7667 89.669 71.0059 88.7648C72.26 87.8497 73.842 87.3453 75.2277 87.0329C76.6116 88.2302 77.8561 88.7333 78.9801 88.7784Z" fill="white" stroke="white"/>
</g>
<path d="M121.781 115.599C121.781 123.645 115.259 130.167 107.213 130.167C99.1672 130.167 92.6448 123.645 92.6448 115.599C92.6448 107.553 99.1672 101.031 107.213 101.031C115.259 101.031 121.781 107.553 121.781 115.599Z" fill="url(#paint0_linear_43_44530)" stroke="#D6E0F2"/>
<path d="M107.464 116.187H106.157C106.161 115.824 106.192 115.519 106.251 115.273C106.309 115.023 106.407 114.796 106.544 114.593C106.684 114.39 106.87 114.175 107.1 113.949C107.28 113.777 107.442 113.615 107.587 113.462C107.731 113.306 107.846 113.142 107.932 112.97C108.018 112.794 108.061 112.593 108.061 112.367C108.061 112.121 108.02 111.912 107.938 111.74C107.856 111.568 107.735 111.437 107.575 111.347C107.419 111.257 107.223 111.212 106.989 111.212C106.794 111.212 106.61 111.251 106.438 111.33C106.266 111.404 106.128 111.521 106.022 111.681C105.917 111.837 105.86 112.044 105.852 112.302H104.44C104.448 111.81 104.565 111.396 104.792 111.06C105.018 110.724 105.323 110.472 105.706 110.304C106.089 110.136 106.516 110.052 106.989 110.052C107.512 110.052 107.96 110.142 108.331 110.322C108.702 110.498 108.985 110.755 109.18 111.095C109.38 111.431 109.479 111.837 109.479 112.314C109.479 112.658 109.411 112.97 109.274 113.251C109.137 113.529 108.96 113.789 108.741 114.031C108.522 114.269 108.286 114.507 108.032 114.746C107.813 114.945 107.665 115.162 107.587 115.396C107.509 115.626 107.468 115.89 107.464 116.187ZM106.04 118.015C106.04 117.804 106.112 117.626 106.257 117.482C106.401 117.334 106.598 117.259 106.848 117.259C107.098 117.259 107.296 117.334 107.44 117.482C107.585 117.626 107.657 117.804 107.657 118.015C107.657 118.226 107.585 118.406 107.44 118.554C107.296 118.699 107.098 118.771 106.848 118.771C106.598 118.771 106.401 118.699 106.257 118.554C106.112 118.406 106.04 118.226 106.04 118.015Z" fill="#00ADEF"/>
<defs>
<linearGradient id="paint0_linear_43_44530" x1="123.214" y1="116.663" x2="92.1448" y2="118.455" gradientUnits="userSpaceOnUse">
<stop stop-color="#E5EDFD"/>
<stop offset="0.495527" stop-color="#FDFDFD"/>
<stop offset="1" stop-color="#E5EDFD"/>
</linearGradient>
</defs>
</svg>
