<svg width="13" height="13" viewBox="0 0 13 13" fill="none" xmlns="http://www.w3.org/2000/svg">
<path fill-rule="evenodd" clip-rule="evenodd" d="M2.125 0.875C1.79348 0.875 1.47554 1.0067 1.24112 1.24112C1.0067 1.47554 0.875 1.79348 0.875 2.125V10.875C0.875 11.2065 1.0067 11.5245 1.24112 11.7589C1.47554 11.9933 1.79348 12.125 2.125 12.125H10.875C11.2065 12.125 11.5245 11.9933 11.7589 11.7589C11.9933 11.5245 12.125 11.2065 12.125 10.875V2.125C12.125 1.79348 11.9933 1.47554 11.7589 1.24112C11.5245 1.0067 11.2065 0.875 10.875 0.875H2.125ZM2.125 2.125H10.875V10.875H2.125V2.125ZM9.59375 5.12187C9.65344 5.06422 9.70106 4.99526 9.73381 4.919C9.76657 4.84275 9.78381 4.76074 9.78453 4.67775C9.78525 4.59476 9.76944 4.51246 9.73801 4.43565C9.70659 4.35884 9.66018 4.28906 9.6015 4.23038C9.54281 4.17169 9.47303 4.12529 9.39622 4.09386C9.31941 4.06244 9.23711 4.04662 9.15412 4.04734C9.07114 4.04806 8.98913 4.06531 8.91287 4.09806C8.83662 4.13082 8.76765 4.17843 8.71 4.23812L5.61625 7.33188L4.29063 6.00625C4.2326 5.94818 4.1637 5.90211 4.08787 5.87067C4.01203 5.83923 3.93075 5.82303 3.84866 5.823C3.68286 5.82294 3.52384 5.88875 3.40656 6.00594C3.28929 6.12313 3.22337 6.28211 3.22331 6.4479C3.22325 6.6137 3.28906 6.77272 3.40625 6.89L5.13 8.61375C5.19384 8.67762 5.26965 8.72829 5.35308 8.76286C5.43651 8.79743 5.52594 8.81523 5.61625 8.81523C5.70656 8.81523 5.79599 8.79743 5.87942 8.76286C5.96285 8.72829 6.03866 8.67762 6.1025 8.61375L9.59375 5.12187Z" fill="#01ADEF"/>
</svg>
