<svg width="26" height="22" viewBox="0 0 26 22" fill="none" xmlns="http://www.w3.org/2000/svg">
<path d="M3.82021 12.8236C4.71148 9.09555 8.43734 6.44663 12.6284 6.44663C16.8182 6.44663 20.5441 9.09555 21.4367 12.8236C21.472 12.9716 21.5734 13.1012 21.7185 13.184C21.8636 13.2669 22.0405 13.2961 22.2103 13.2653C22.3801 13.2345 22.529 13.1462 22.6241 13.0198C22.7192 12.8934 22.7527 12.7393 22.7174 12.5914C21.7019 8.35108 17.4547 5.30829 12.6284 5.30829C7.8022 5.30829 3.55491 8.35108 2.53949 12.5914C2.50413 12.7393 2.53769 12.8934 2.63279 13.0198C2.72788 13.1462 2.87671 13.2345 3.04655 13.2653C3.21638 13.2961 3.3933 13.2669 3.53839 13.184C3.68348 13.1012 3.78485 12.9716 3.82021 12.8236ZM12.6154 8.72331C13.8285 8.72331 14.9919 9.14308 15.8497 9.89026C16.7075 10.6374 17.1894 11.6508 17.1894 12.7075C17.1894 13.7642 16.7075 14.7776 15.8497 15.5248C14.9919 16.2719 13.8285 16.6917 12.6154 16.6917C11.4023 16.6917 10.2388 16.2719 9.38105 15.5248C8.52326 14.7776 8.04136 13.7642 8.04136 12.7075C8.04136 11.6508 8.52326 10.6374 9.38105 9.89026C10.2388 9.14308 11.4023 8.72331 12.6154 8.72331Z" fill="#6A707C"/>
<line x1="1.63371" y1="5.80128" x2="22.1128" y2="16.9348" stroke="#6A707C"/>
</svg>
