<svg width="36" height="44" viewBox="0 0 36 44" fill="none" xmlns="http://www.w3.org/2000/svg">
<path d="M7.54357 29.4699L20.549 9.65013L32.8886 7.739L9.38418 41.2051L7.54357 29.4699Z" fill="#FFED4F"/>
<path d="M11.4462 29.9149L10.9849 30.541C10.8955 30.4928 10.8064 30.4631 10.7175 30.4521C10.6276 30.4403 10.54 30.4455 10.4545 30.4678C10.3689 30.4901 10.2876 30.5287 10.2104 30.5836C10.1339 30.6375 10.0648 30.7064 10.003 30.7903C9.8914 30.9418 9.83181 31.1015 9.82425 31.2694C9.81575 31.4367 9.86015 31.6039 9.95748 31.7712C10.0538 31.9377 10.2035 32.0958 10.4065 32.2453C10.6152 32.399 10.8134 32.4972 11.0011 32.5399C11.1894 32.5816 11.3612 32.5729 11.5165 32.5138C11.6717 32.4547 11.8038 32.3513 11.9126 32.2036C11.9737 32.1207 12.0193 32.0359 12.0493 31.9492C12.08 31.8616 12.0948 31.7747 12.0936 31.6885C12.0914 31.6016 12.0732 31.5176 12.0388 31.4365C12.0052 31.3544 11.9546 31.2774 11.887 31.2055L12.3511 30.5815C12.4735 30.6967 12.5733 30.8327 12.6504 30.9895C12.7273 31.1446 12.7748 31.3126 12.7929 31.4936C12.8108 31.6729 12.7932 31.8584 12.7402 32.0502C12.6869 32.2403 12.5911 32.4292 12.4528 32.6169C12.2604 32.8781 12.0293 33.068 11.7595 33.1868C11.4904 33.3047 11.1999 33.3407 10.8882 33.2948C10.5772 33.248 10.2625 33.1074 9.94422 32.8729C9.62495 32.6377 9.39756 32.3775 9.26206 32.0925C9.12655 31.8074 9.07601 31.5188 9.11044 31.2266C9.1439 30.9337 9.25542 30.6585 9.44497 30.4012C9.56994 30.2316 9.70961 30.0919 9.86397 29.9821C10.019 29.8714 10.1837 29.7935 10.3581 29.7485C10.5315 29.7027 10.7099 29.693 10.8934 29.7194C11.0775 29.7448 11.2618 29.8099 11.4462 29.9149ZM14.4412 29.9236C14.2777 30.1457 14.089 30.3029 13.8753 30.3955C13.6614 30.4863 13.4373 30.5131 13.203 30.4758C12.9678 30.4378 12.7378 30.336 12.5129 30.1703C12.2861 30.0032 12.1201 29.8133 12.0151 29.6007C11.9091 29.3873 11.8682 29.1654 11.8925 28.9348C11.9166 28.7026 12.0104 28.4755 12.174 28.2534C12.3375 28.0313 12.5263 27.8749 12.7403 27.784C12.954 27.6915 13.1784 27.6642 13.4136 27.7022C13.6478 27.7395 13.8783 27.8417 14.1052 28.0088C14.3301 28.1745 14.4955 28.364 14.6015 28.5774C14.7066 28.79 14.7471 29.0124 14.723 29.2447C14.6988 29.4752 14.6048 29.7015 14.4412 29.9236ZM13.9716 29.5732C14.046 29.4722 14.0795 29.3668 14.0722 29.257C14.0639 29.1465 14.0224 29.0373 13.9476 28.9292C13.8735 28.8202 13.7726 28.7187 13.6449 28.6246C13.5172 28.5306 13.3903 28.4643 13.2643 28.4258C13.1389 28.3864 13.0222 28.3792 12.9143 28.404C12.8063 28.4288 12.7151 28.4918 12.6407 28.5928C12.5655 28.6948 12.5314 28.802 12.5383 28.9143C12.5459 29.0258 12.5867 29.136 12.6608 29.245C12.7356 29.353 12.8369 29.4541 12.9646 29.5481C13.0923 29.6422 13.2188 29.709 13.3442 29.7484C13.4702 29.7868 13.5876 29.7931 13.6963 29.7674C13.8047 29.7399 13.8965 29.6752 13.9716 29.5732ZM15.4862 28.4153L13.2904 26.7977L13.7179 26.2173L14.1054 26.5027L14.1243 26.477C14.0294 26.3365 13.984 26.1854 13.9883 26.0239C13.9926 25.8624 14.0495 25.7074 14.159 25.5587C14.27 25.4081 14.402 25.3076 14.5553 25.2573C14.7075 25.2063 14.8605 25.2102 15.0142 25.269L15.031 25.2461C14.9382 25.1087 14.8974 24.9536 14.9084 24.7809C14.9192 24.6066 14.984 24.4389 15.1026 24.2778C15.2536 24.0729 15.4413 23.9547 15.666 23.9232C15.8904 23.89 16.1217 23.9611 16.36 24.1367L17.8367 25.2245L17.3891 25.8321L16.0325 24.8327C15.9105 24.7428 15.7951 24.7078 15.6864 24.7277C15.5777 24.7476 15.4875 24.8061 15.4159 24.9033C15.3344 25.0139 15.3062 25.1261 15.3311 25.24C15.355 25.3532 15.4241 25.4519 15.5385 25.5362L16.8794 26.524L16.4445 27.1144L15.075 26.1055C14.9673 26.0262 14.8587 25.994 14.7492 26.0089C14.6404 26.0228 14.5492 26.0798 14.4755 26.1799C14.4256 26.2476 14.3978 26.3212 14.3921 26.4008C14.3862 26.4788 14.4021 26.5559 14.4399 26.6323C14.4768 26.708 14.5357 26.7757 14.6168 26.8353L15.9348 27.8063L15.4862 28.4153ZM19.0145 25.35L15.9953 23.1259L16.4376 22.5255L16.8064 22.7972L16.8264 22.77C16.787 22.6998 16.7554 22.617 16.7316 22.5215C16.7075 22.4244 16.7052 22.3198 16.7246 22.2077C16.7438 22.0939 16.7986 21.9755 16.8892 21.8525C17.0071 21.6924 17.1579 21.5756 17.3414 21.5021C17.524 21.4278 17.7291 21.412 17.9565 21.4545C18.1829 21.4964 18.422 21.61 18.6736 21.7953C18.9185 21.9757 19.0962 22.1676 19.2066 22.371C19.3167 22.5727 19.3653 22.7732 19.3524 22.9724C19.3392 23.17 19.2711 23.3521 19.1483 23.5189C19.0612 23.6371 18.9676 23.7232 18.8674 23.7774C18.768 23.8306 18.6694 23.8616 18.5717 23.8705C18.4731 23.8787 18.3831 23.8741 18.3017 23.8568L18.288 23.8754L19.4631 24.741L19.0145 25.35ZM17.5323 23.3386C17.6629 23.4347 17.7901 23.5005 17.914 23.5359C18.0379 23.5713 18.1523 23.5747 18.2571 23.5461C18.361 23.5168 18.4492 23.4531 18.5215 23.3549C18.5945 23.2558 18.6291 23.1519 18.6253 23.0433C18.6206 22.9339 18.5826 22.8258 18.5114 22.719C18.4399 22.6104 18.3403 22.5091 18.2126 22.4151C18.0858 22.3217 17.9614 22.2572 17.8391 22.2215C17.7169 22.1859 17.6033 22.1824 17.4985 22.211C17.3936 22.2396 17.3043 22.3039 17.2306 22.404C17.1576 22.5031 17.122 22.6063 17.1239 22.7135C17.1264 22.8198 17.1625 22.9265 17.2321 23.0336C17.3017 23.1407 17.4017 23.2424 17.5323 23.3386ZM17.5886 19.4303L20.5163 21.587L20.0677 22.196L17.1399 20.0392L17.5886 19.4303ZM21.6557 20.1301C21.4893 20.3559 21.3004 20.5166 21.0888 20.6122C20.877 20.7061 20.6545 20.7348 20.4212 20.6982C20.187 20.6609 19.9541 20.557 19.7225 20.3864C19.4966 20.22 19.3307 20.0301 19.2247 19.8168C19.1187 19.6034 19.0766 19.3821 19.0986 19.1527C19.1212 18.9224 19.2119 18.6995 19.3705 18.4842C19.4772 18.3393 19.5999 18.2216 19.7386 18.1312C19.877 18.0391 20.0269 17.9804 20.1881 17.9551C20.3501 17.9288 20.5204 17.9411 20.6991 17.9919C20.8769 18.042 21.0591 18.1358 21.2459 18.2734L21.4132 18.3966L20.0473 20.2508L19.6699 19.9728L20.6135 18.6919C20.5258 18.6273 20.4341 18.5891 20.3383 18.5774C20.2426 18.5657 20.1507 18.5796 20.0628 18.6192C19.9746 18.6571 19.8978 18.7204 19.8325 18.809C19.7644 18.9015 19.7255 18.9992 19.7157 19.1023C19.7057 19.2037 19.7217 19.3008 19.7637 19.3934C19.8047 19.4854 19.8682 19.5638 19.9543 19.6287L20.3131 19.893C20.4217 19.973 20.5303 20.0222 20.6389 20.0404C20.7482 20.0577 20.8517 20.045 20.9493 20.0022C21.047 19.9595 21.1334 19.8871 21.2085 19.7852C21.2583 19.7175 21.2944 19.6485 21.3168 19.5783C21.3392 19.508 21.346 19.4388 21.3374 19.3707C21.3288 19.3026 21.3045 19.2377 21.2647 19.176L21.7168 18.6401C21.831 18.7684 21.906 18.9141 21.9418 19.0771C21.9773 19.2385 21.9719 19.4095 21.9256 19.5901C21.8791 19.769 21.7891 19.949 21.6557 20.1301ZM21.3126 15.9077L21.7701 16.2447L20.7959 17.567L20.3385 17.23L21.3126 15.9077ZM20.0336 16.5423L20.4822 15.9333L22.5293 17.4413C22.5855 17.4828 22.6357 17.5065 22.6798 17.5125C22.7229 17.5178 22.7619 17.5098 22.7968 17.4884C22.8323 17.4661 22.8652 17.4344 22.8954 17.3935C22.9164 17.3649 22.9351 17.3345 22.9514 17.3024C22.9668 17.2696 22.9786 17.2445 22.987 17.2272L23.5107 17.4652C23.4978 17.5027 23.4772 17.5537 23.4488 17.6181C23.4214 17.6832 23.3801 17.7564 23.3246 17.8376C23.2222 17.9886 23.1079 18.1028 22.9817 18.1804C22.8562 18.257 22.7238 18.291 22.5845 18.2825C22.4452 18.274 22.3039 18.2163 22.1607 18.1093L20.0336 16.5423ZM24.5633 16.183C24.3969 16.4089 24.208 16.5696 23.9964 16.6652C23.7846 16.7591 23.5621 16.7878 23.3288 16.7512C23.0946 16.7139 22.8617 16.61 22.6301 16.4394C22.4042 16.273 22.2383 16.0831 22.1323 15.8698C22.0263 15.6564 21.9842 15.4351 22.0062 15.2057C22.0288 14.9754 22.1195 14.7525 22.2781 14.5371C22.3848 14.3923 22.5075 14.2746 22.6462 14.1842C22.7846 14.0921 22.9345 14.0334 23.0957 14.0081C23.2576 13.9818 23.428 13.9941 23.6067 14.0449C23.7844 14.095 23.9667 14.1888 24.1535 14.3264L24.3208 14.4496L22.9549 16.3038L22.5775 16.0257L23.5211 14.7449C23.4334 14.6803 23.3417 14.6421 23.2459 14.6304C23.1502 14.6187 23.0583 14.6326 22.9704 14.6722C22.8821 14.7101 22.8054 14.7734 22.7401 14.862C22.672 14.9545 22.6331 15.0522 22.6233 15.1553C22.6133 15.2567 22.6293 15.3538 22.6713 15.4464C22.7123 15.5384 22.7758 15.6168 22.8618 15.6817L23.2207 15.946C23.3293 16.026 23.4379 16.0752 23.5465 16.0934C23.6558 16.1107 23.7593 16.098 23.8569 16.0552C23.9546 16.0125 24.041 15.9401 24.1161 15.8382C24.1659 15.7705 24.202 15.7015 24.2244 15.6313C24.2468 15.561 24.2536 15.4918 24.245 15.4237C24.2363 15.3556 24.2121 15.2907 24.1723 15.229L24.6244 14.6931C24.7386 14.8214 24.8136 14.9671 24.8494 15.1301C24.8848 15.2915 24.8795 15.4625 24.8332 15.6431C24.7867 15.822 24.6967 16.002 24.5633 16.183ZM26.1874 13.9634C26.0645 14.1302 25.9104 14.2496 25.7249 14.3218C25.5392 14.3923 25.3333 14.4053 25.1073 14.3608C24.8811 14.3147 24.6455 14.2014 24.4005 14.021C24.1489 13.8357 23.9696 13.6411 23.8625 13.4372C23.7544 13.2326 23.7084 13.0326 23.7245 12.8372C23.7403 12.64 23.8076 12.4609 23.9262 12.2999C24.0168 12.1769 24.1132 12.0899 24.2155 12.0389C24.3176 11.9861 24.4182 11.9573 24.5174 11.9525C24.6163 11.9459 24.7051 11.9511 24.7838 11.9679L24.7975 11.9493L23.6968 11.1385L24.1443 10.5309L27.0721 12.6876L26.6298 13.2881L26.2781 13.029L26.2591 13.0547C26.2991 13.1282 26.3298 13.2133 26.3512 13.31C26.3724 13.405 26.3719 13.5083 26.3499 13.62C26.3286 13.7308 26.2745 13.8452 26.1874 13.9634ZM25.845 13.4134C25.9173 13.3152 25.9517 13.2127 25.9481 13.1057C25.9444 12.9971 25.9072 12.8888 25.8367 12.781C25.7668 12.6722 25.6666 12.5697 25.5361 12.4736C25.4055 12.3774 25.2788 12.3119 25.1558 12.2772C25.0329 12.2426 24.9199 12.2402 24.817 12.2702C24.714 12.3002 24.6264 12.3643 24.5541 12.4625C24.4803 12.5625 24.4454 12.6669 24.4491 12.7755C24.4529 12.8842 24.4899 12.9916 24.5602 13.0977C24.6305 13.2039 24.729 13.3037 24.8558 13.3971C24.9835 13.4911 25.1094 13.5567 25.2336 13.5937C25.3574 13.6291 25.4719 13.6334 25.5771 13.6064C25.6819 13.5778 25.7712 13.5135 25.845 13.4134Z" fill="#00ADEF"/>
</svg>
