<svg width="13" height="17" viewBox="0 0 13 17" fill="none" xmlns="http://www.w3.org/2000/svg">
<path d="M11.25 0.583374C11.6699 0.583374 12.0726 0.750189 12.3695 1.04712C12.6665 1.34405 12.8333 1.74678 12.8333 2.16671V11.339C12.8332 11.7588 12.6663 12.1615 12.3694 12.4584L8.87496 15.9528C8.5781 16.2497 8.17544 16.4166 7.75554 16.4167H1.74996C1.33003 16.4167 0.927306 16.2499 0.630374 15.953C0.333441 15.656 0.166626 15.2533 0.166626 14.8334V2.16671C0.166626 1.74678 0.333441 1.34405 0.630374 1.04712C0.927306 0.750189 1.33003 0.583374 1.74996 0.583374H11.25ZM11.25 2.16671H1.74996V14.8334H6.49996V11.2709C6.49996 10.9559 6.62507 10.6539 6.84777 10.4312C7.07047 10.2085 7.37251 10.0834 7.68746 10.0834H11.25V2.16671ZM10.9222 11.6667H8.08329V14.5056L10.9222 11.6667ZM4.91663 7.70837C5.12659 7.70837 5.32795 7.79178 5.47642 7.94025C5.62489 8.08871 5.70829 8.29008 5.70829 8.50004C5.70829 8.71 5.62489 8.91137 5.47642 9.05983C5.32795 9.2083 5.12659 9.29171 4.91663 9.29171H4.12496C3.915 9.29171 3.71363 9.2083 3.56517 9.05983C3.4167 8.91137 3.33329 8.71 3.33329 8.50004C3.33329 8.29008 3.4167 8.08871 3.56517 7.94025C3.71363 7.79178 3.915 7.70837 4.12496 7.70837H4.91663ZM8.87496 4.54171C9.08492 4.54171 9.28629 4.62511 9.43475 4.77358C9.58322 4.92205 9.66663 5.12341 9.66663 5.33337C9.66663 5.54334 9.58322 5.7447 9.43475 5.89317C9.28629 6.04163 9.08492 6.12504 8.87496 6.12504H4.12496C3.915 6.12504 3.71363 6.04163 3.56517 5.89317C3.4167 5.7447 3.33329 5.54334 3.33329 5.33337C3.33329 5.12341 3.4167 4.92205 3.56517 4.77358C3.71363 4.62511 3.915 4.54171 4.12496 4.54171H8.87496Z" fill="#0085D6"/>
</svg>
