<svg width="16" height="15" viewBox="0 0 16 15" fill="none" xmlns="http://www.w3.org/2000/svg">
<path d="M12.5955 7.42739C15.0462 4.88533 11.5467 4.66565 11.8795 2.34955C9.78182 3.96893 12.6964 5.46279 12.5955 7.42739Z" fill="#F2933B"/>
<path d="M15.9236 9.21625C15.6614 8.04878 14.784 7.03196 13.5133 6.27876C13.6545 7.17632 13.4024 8.06761 11.6072 8.98401C12.2022 7.62824 11.7383 6.36035 11.3753 5.68247C11.0122 5.01087 9.50953 3.64882 8.60188 3.32871C8.77332 3.48563 9.20698 4.45224 9.16664 4.88533C9.1263 5.25566 8.87417 5.75151 8.30941 5.82056C7.83541 5.87705 7.3715 5.72013 7.04878 5.25566C6.01002 3.71787 8.18839 2.08593 8.53128 0.460266C5.57637 2.50019 3.23664 3.61116 4.24514 5.73268C4.37625 6.01514 4.81999 6.49844 4.96118 6.93781C5.14271 7.49016 4.84016 7.91697 4.2754 8.01112C3.72072 8.10527 3.08536 7.75378 2.97443 7.23909C2.88366 6.82483 2.76264 6.38546 2.64162 6.17205C0.785976 7.24537 -0.293122 8.88986 0.0699389 10.572C0.675041 13.3086 4.70905 15.223 9.09604 14.8527C13.4729 14.4761 16.5287 11.9529 15.9236 9.21625ZM8.89434 14.0054C7.04878 14.2376 5.2839 13.4028 5.01161 12.2039C4.85024 11.4884 5.26373 10.8168 6.01002 10.3649C5.90917 11.162 6.1613 11.8399 6.40334 12.1349C6.75632 12.5554 7.51269 12.8379 8.12788 12.7877C8.77332 12.7312 9.16664 12.4299 9.07587 12.0031C9.0557 11.9089 9.00528 11.8211 8.94477 11.7395C8.76324 11.4382 6.38317 9.73094 8.33967 7.37718C8.27916 8.56975 8.94477 9.54263 10.3466 10.4088C10.9013 10.7478 11.3954 11.2185 11.4761 11.7583C11.6173 12.8253 10.4979 13.8045 8.89434 14.0054Z" fill="#F2933B"/>
</svg>
