<svg width="14" height="14" viewBox="0 0 14 14" fill="currentColor" xmlns="http://www.w3.org/2000/svg">
<path d="M10.4475 5.46875C10.4091 5.40224 10.3889 5.3268 10.3889 5.25C10.3889 5.1732 10.4091 5.09776 10.4475 5.03125L11.2 3.71875C11.3152 3.51916 11.3759 3.29275 11.3758 3.06229C11.3758 2.83183 11.3151 2.60544 11.1998 2.40589C11.0845 2.20634 10.9187 2.04066 10.719 1.92553C10.5194 1.81039 10.293 1.74985 10.0625 1.75H3.0625C2.94647 1.75 2.83519 1.79609 2.75314 1.87814C2.67109 1.96019 2.625 2.07147 2.625 2.1875V11.8125C2.625 11.9285 2.67109 12.0398 2.75314 12.1219C2.83519 12.2039 2.94647 12.25 3.0625 12.25C3.17853 12.25 3.28981 12.2039 3.37186 12.1219C3.45391 12.0398 3.5 11.9285 3.5 11.8125V8.75H10.0625C10.2923 8.74971 10.518 8.68907 10.7171 8.57416C10.9161 8.45925 11.0815 8.2941 11.1966 8.09521C11.3118 7.89633 11.3727 7.67069 11.3733 7.44087C11.3739 7.21105 11.3141 6.9851 11.2 6.78563L10.4475 5.46875ZM10.4475 7.65625C10.4086 7.72366 10.3524 7.77948 10.2847 7.81793C10.217 7.85638 10.1403 7.87608 10.0625 7.875H3.5V2.625H10.0625C10.1388 2.62546 10.2137 2.64589 10.2798 2.68427C10.3458 2.72265 10.4006 2.77763 10.4388 2.84375C10.4771 2.91026 10.4974 2.9857 10.4974 3.0625C10.4974 3.1393 10.4771 3.21474 10.4388 3.28125L9.68187 4.59375C9.56668 4.79328 9.50603 5.01961 9.50603 5.25C9.50603 5.48039 9.56668 5.70673 9.68187 5.90625L10.4388 7.21875C10.4771 7.28526 10.4974 7.3607 10.4974 7.4375C10.4974 7.5143 10.4771 7.58974 10.4388 7.65625H10.4475Z" fill="currentColor"/>
</svg>
