<svg width="190" height="150" viewBox="0 0 190 150" fill="none" xmlns="http://www.w3.org/2000/svg">
<rect x="34.3094" y="91.9924" width="5.03925" height="5.03925" stroke="#011A51" stroke-width="0.2"/>
<path d="M22.8763 93.8407V94.1219H22.1014V93.8407H22.8763Z" fill="#011A51" fill-opacity="0.51"/>
<circle cx="74.8905" cy="74.8905" r="74.8905" fill="#E5F8FF"/>
<g clip-path="url(#clip0_39_97)">
<path d="M113.022 102.751C110.913 92.4206 108.276 88.9765 108.276 88.9765L107.269 88.1854L106.057 87.2324L106.063 87.1098L105.776 87.0109L105.708 86.9578L105.598 86.8718L105.58 86.8912L105.542 86.9306L100.061 85.0434L93.1062 82.6509L89.8859 78.4115C89.3614 77.7211 88.6861 77.163 87.9131 76.7811C87.14 76.3992 86.2901 76.2038 85.43 76.2103L75.1453 76.2873C73.7546 76.2978 72.4181 76.8347 71.3986 77.7925L64.6385 84.1432L54.1051 89.2383L54.0874 89.2203L53.9767 89.3003L52.3492 90.0885L52.4164 90.4425L51.4091 91.1787C51.4091 91.1787 48.7723 94.3834 46.6628 103.995C46.1262 106.441 45.862 111.688 45.7667 118.153C45.7619 118.48 45.8214 118.804 45.9416 119.108C46.0618 119.412 46.2405 119.688 46.4671 119.921C46.6937 120.154 46.9638 120.339 47.2617 120.465C47.5596 120.592 47.8793 120.657 48.2022 120.657H104.463V120.657H111.485C111.808 120.657 112.128 120.592 112.425 120.465C112.723 120.339 112.993 120.154 113.219 119.922C113.446 119.689 113.625 119.413 113.745 119.11C113.866 118.806 113.925 118.482 113.921 118.155C113.828 111.12 113.564 105.403 113.022 102.751Z" fill="#011A51"/>
<path d="M120.241 32.5853C118.052 32.5853 115.953 33.466 114.405 35.0335C112.857 36.6011 111.988 38.7272 111.988 40.9441C111.988 43.1611 112.857 45.2872 114.405 46.8547C115.953 48.4223 118.052 49.303 120.241 49.303H181.747C183.936 49.303 186.035 48.4223 187.583 46.8547C189.13 45.2872 190 43.1611 190 40.9441C190 38.7272 189.13 36.6011 187.583 35.0335C186.035 33.466 183.936 32.5853 181.747 32.5853H120.241Z" fill="#E5E5E5"/>
<path d="M120.241 34.277C118.495 34.277 116.82 34.9794 115.586 36.2297C114.351 37.4801 113.658 39.1759 113.658 40.9442C113.658 42.7124 114.351 44.4082 115.586 45.6586C116.82 46.9089 118.495 47.6113 120.241 47.6113H181.747C183.493 47.6113 185.167 46.9089 186.402 45.6586C187.636 44.4082 188.33 42.7124 188.33 40.9442C188.33 39.1759 187.636 37.4801 186.402 36.2297C185.167 34.9794 183.493 34.277 181.747 34.277H120.241Z" fill="white"/>
<path d="M81.9028 72.297C89.3443 72.297 95.3768 66.1873 95.3768 58.6505C95.3768 51.1137 89.3443 45.0039 81.9028 45.0039C74.4612 45.0039 68.4287 51.1137 68.4287 58.6505C68.4287 66.1873 74.4612 72.297 81.9028 72.297Z" fill="#9E616A"/>
<path d="M78.4558 71.6288C78.3983 71.5005 78.3409 71.3717 78.2836 71.2424C78.3057 71.2431 78.3275 71.2464 78.3496 71.2469L78.4558 71.6288Z" fill="#2F2E41"/>
<path d="M68.054 45.6245C68.7355 45.0739 69.532 44.5673 70.4033 44.5958C71.2745 44.6242 72.1581 45.4212 71.9776 46.285C73.578 43.4151 76.1253 41.2078 79.1724 40.0506C82.2196 38.8934 85.5718 38.8602 88.6407 39.9568C90.8063 40.7306 92.9299 42.2786 93.4273 44.5491C93.555 45.132 93.5824 45.771 93.9418 46.2443C94.3948 46.8411 95.2616 46.9761 95.9754 46.7661C95.9825 46.764 95.9896 46.7619 95.9967 46.7598C96.1173 46.7181 96.2475 46.714 96.3704 46.748C96.4933 46.782 96.6033 46.8526 96.6861 46.9507C96.769 47.0487 96.8209 47.1696 96.8351 47.2979C96.8493 47.4261 96.8253 47.5557 96.766 47.67L96.1533 48.8273C96.9256 49.0017 97.7282 48.9844 98.4926 48.7769C98.6195 48.7432 98.7537 48.7501 98.8767 48.7966C98.9996 48.8432 99.1054 48.9271 99.1793 49.037C99.2533 49.1468 99.292 49.2771 99.2899 49.41C99.2879 49.543 99.2453 49.672 99.168 49.7795C97.1476 52.5889 93.7722 54.403 90.3276 54.3817C87.8795 54.3666 85.4061 53.512 83.0235 54.0822C82.1017 54.3028 81.2404 54.7296 80.5028 55.3313C79.7651 55.933 79.1699 56.6943 78.7606 57.5594C78.3514 58.4245 78.1385 59.3714 78.1378 60.3306C78.137 61.2899 78.3483 62.2371 78.7561 63.1029C78.0241 62.292 76.6092 62.484 75.8604 63.279C75.1117 64.0741 74.9179 65.2607 74.9934 66.3567C75.1087 68.033 75.7572 69.6126 76.4408 71.1499C70.7091 70.9671 65.2879 66.895 63.4631 61.3872C61.6306 55.8565 63.5511 49.2626 68.054 45.6245Z" fill="#2F2E41"/>
<path opacity="0.2" d="M59.0284 99.632L62.8075 120.457L65.0751 120.657L59.0284 99.632Z" fill="black"/>
<path opacity="0.2" d="M100.657 98.0614L96.8775 120.442L94.6099 120.657L100.657 98.0614Z" fill="black"/>
<path d="M71.2773 38.6159C70.5527 38.9224 69.7966 38.5865 69.4795 37.8174C69.1576 37.0366 69.4583 36.2439 70.1945 35.9325C70.9308 35.6212 71.6734 35.9578 72.0005 36.7513C72.3228 37.5328 72.0254 38.2996 71.2773 38.6159ZM69.8893 34.3956L69.3131 34.6392C69.1692 34.6994 69.0082 34.7026 68.8621 34.6483C68.7159 34.594 68.5952 34.4861 68.5238 34.346L68.4953 34.2895C67.8753 33.1572 67.8044 31.781 68.2854 30.2014C68.731 28.7844 68.9161 27.7878 68.5439 26.8849C68.1135 25.841 67.1945 25.5141 66.0226 25.9877C65.568 26.18 65.4234 26.1769 65.0657 26.5363C64.9879 26.6154 64.8952 26.6779 64.793 26.7199C64.6909 26.7619 64.5814 26.7827 64.4711 26.781C64.3646 26.7797 64.2593 26.7567 64.1617 26.7134C64.0641 26.67 63.9761 26.6072 63.903 26.5287C63.7621 26.3773 63.6832 26.1775 63.6821 25.9695C63.6811 25.7615 63.758 25.5608 63.8974 25.408C64.4986 24.7706 65.2238 24.2663 66.0271 23.927C68.5451 22.8621 69.8127 24.4343 70.3928 25.8412C70.9601 27.2173 70.641 28.4942 70.1282 30.1478C69.6984 31.5218 69.7235 32.54 70.2116 33.5524C70.2469 33.6289 70.2665 33.7119 70.2693 33.7963C70.2721 33.8807 70.258 33.9648 70.2279 34.0435C70.1978 34.1223 70.1523 34.1941 70.0941 34.2546C70.0359 34.315 69.9662 34.363 69.8893 34.3956L69.8893 34.3956Z" fill="#00ADEF"/>
<path d="M133.827 44.9308H121.589C121.55 44.931 121.512 44.9235 121.476 44.9086C121.44 44.8938 121.407 44.8718 121.38 44.8441C121.352 44.8163 121.33 44.7833 121.315 44.747C121.3 44.7106 121.293 44.6716 121.293 44.6322C121.293 44.5929 121.3 44.5539 121.315 44.5175C121.33 44.4812 121.352 44.4482 121.38 44.4204C121.407 44.3927 121.44 44.3707 121.476 44.3559C121.512 44.341 121.55 44.3334 121.589 44.3337H133.827C133.905 44.3343 133.979 44.3659 134.034 44.4219C134.089 44.4778 134.119 44.5534 134.119 44.6322C134.119 44.7111 134.089 44.7867 134.034 44.8426C133.979 44.8985 133.905 44.9302 133.827 44.9308Z" fill="#FF897E"/>
<path d="M149.351 45.0303H137.113C137.074 45.0305 137.036 45.023 137 45.0081C136.964 44.9932 136.931 44.9713 136.903 44.9436C136.876 44.9158 136.854 44.8828 136.839 44.8464C136.824 44.8101 136.816 44.7711 136.816 44.7317C136.816 44.6924 136.824 44.6534 136.839 44.617C136.854 44.5807 136.876 44.5477 136.903 44.5199C136.931 44.4922 136.964 44.4702 137 44.4553C137.036 44.4405 137.074 44.4329 137.113 44.4332H149.351C149.389 44.4329 149.428 44.4405 149.464 44.4553C149.5 44.4702 149.533 44.4922 149.56 44.5199C149.588 44.5477 149.61 44.5807 149.625 44.617C149.64 44.6534 149.647 44.6924 149.647 44.7317C149.647 44.7711 149.64 44.8101 149.625 44.8464C149.61 44.8828 149.588 44.9158 149.56 44.9436C149.533 44.9713 149.5 44.9932 149.464 45.0081C149.428 45.023 149.389 45.0305 149.351 45.0303Z" fill="#FF897E"/>
<path d="M164.874 45.1298H152.637C152.559 45.1292 152.485 45.0976 152.43 45.0416C152.375 44.9857 152.344 44.9101 152.344 44.8313C152.344 44.7524 152.375 44.6768 152.43 44.6209C152.485 44.5649 152.559 44.5333 152.637 44.5327H164.874C164.913 44.5325 164.952 44.54 164.988 44.5549C165.024 44.5697 165.057 44.5917 165.084 44.6194C165.112 44.6472 165.134 44.6802 165.149 44.7165C165.164 44.7529 165.171 44.7919 165.171 44.8313C165.171 44.8706 165.164 44.9096 165.149 44.946C165.134 44.9823 165.112 45.0153 165.084 45.0431C165.057 45.0708 165.024 45.0928 164.988 45.1076C164.952 45.1225 164.913 45.1301 164.874 45.1298H164.874Z" fill="#FF897E"/>
<path d="M180.398 45.2293H168.161C168.083 45.2288 168.009 45.1971 167.954 45.1411C167.899 45.0852 167.868 45.0096 167.868 44.9308C167.868 44.8519 167.899 44.7763 167.954 44.7204C168.009 44.6645 168.083 44.6328 168.161 44.6322H180.398C180.476 44.6328 180.551 44.6645 180.605 44.7204C180.66 44.7763 180.691 44.8519 180.691 44.9308C180.691 45.0096 180.66 45.0852 180.605 45.1411C180.551 45.1971 180.476 45.2288 180.398 45.2293Z" fill="#FF897E"/>
<path d="M127.681 42.1834C128.937 42.1834 129.955 41.152 129.955 39.8798C129.955 38.6076 128.937 37.5763 127.681 37.5763C126.425 37.5763 125.407 38.6076 125.407 39.8798C125.407 41.152 126.425 42.1834 127.681 42.1834Z" fill="#00ADEF"/>
<path d="M143.299 42.1834C144.555 42.1834 145.573 41.152 145.573 39.8798C145.573 38.6076 144.555 37.5763 143.299 37.5763C142.043 37.5763 141.024 38.6076 141.024 39.8798C141.024 41.152 142.043 42.1834 143.299 42.1834Z" fill="#00ADEF"/>
<path d="M158.916 42.1834C160.172 42.1834 161.191 41.152 161.191 39.8798C161.191 38.6076 160.172 37.5763 158.916 37.5763C157.66 37.5763 156.642 38.6076 156.642 39.8798C156.642 41.152 157.66 42.1834 158.916 42.1834Z" fill="#00ADEF"/>
<path d="M174.534 42.1834C175.79 42.1834 176.808 41.152 176.808 39.8798C176.808 38.6076 175.79 37.5763 174.534 37.5763C173.278 37.5763 172.26 38.6076 172.26 39.8798C172.26 41.152 173.278 42.1834 174.534 42.1834Z" fill="#00ADEF"/>
<ellipse cx="4.43025" cy="4.43025" rx="4.43025" ry="4.43025" transform="matrix(1 0 0 -1 112.336 76.8167)" fill="#00ADEF"/>
</g>
<circle cx="4.43025" cy="4.43025" r="4.43025" transform="matrix(1 0 0 -1 52.7007 141.999)" fill="#011A51"/>
<circle cx="4.43025" cy="4.43025" r="4.43025" transform="matrix(1 0 0 -1 30.5109 31.0503)" fill="white"/>
<circle cx="12.4818" cy="12.4818" r="12.4818" transform="matrix(1 0 0 -1 9.70802 95.6934)" fill="#00ADEF"/>
<defs>
<clipPath id="clip0_39_97">
<rect width="144.234" height="97.0803" fill="white" transform="translate(45.7664 23.5766)"/>
</clipPath>
</defs>
</svg>
