<svg width="405" height="131" viewBox="0 0 405 131" fill="none" xmlns="http://www.w3.org/2000/svg">
<g filter="url(#filter0_d_244_7988)">
<rect x="24" y="35" width="253" height="51" rx="8" fill="white" shape-rendering="crispEdges"/>
<rect x="34" y="43" width="231.438" height="6" rx="3" fill="#3A57E8" fill-opacity="0.2"/>
<rect x="34" y="43" width="51.033" height="6" rx="3" fill="#003674"/>
<path d="M42.672 76.944H41.168C40.304 76.944 39.6747 76.7413 39.28 76.336C38.8853 75.9307 38.688 75.344 38.688 74.576V74.112C37.4933 73.8987 36.544 73.3173 35.84 72.368C35.1467 71.408 34.8 70.0907 34.8 68.416C34.8 67.4667 34.9173 66.6347 35.152 65.92C35.3867 65.1947 35.7173 64.592 36.144 64.112C36.5707 63.6213 37.088 63.2533 37.696 63.008C38.304 62.7627 38.976 62.64 39.712 62.64C40.448 62.64 41.12 62.7627 41.728 63.008C42.336 63.2533 42.8533 63.6213 43.28 64.112C43.7067 64.592 44.0373 65.1947 44.272 65.92C44.5067 66.6347 44.624 67.4667 44.624 68.416C44.624 70.0373 44.2933 71.3227 43.632 72.272C42.9813 73.2213 42.0907 73.8187 40.96 74.064V74.96H42.672V76.944ZM39.712 72.032C40.448 72.032 41.0187 71.792 41.424 71.312C41.84 70.832 42.048 70.144 42.048 69.248V67.584C42.048 66.688 41.84 66 41.424 65.52C41.0187 65.04 40.448 64.8 39.712 64.8C38.976 64.8 38.4 65.04 37.984 65.52C37.5787 66 37.376 66.688 37.376 67.584V69.248C37.376 70.144 37.5787 70.832 37.984 71.312C38.4 71.792 38.976 72.032 39.712 72.032ZM51.4859 72.592H51.4059C51.3312 72.8053 51.2299 73.008 51.1019 73.2C50.9845 73.392 50.8299 73.5627 50.6379 73.712C50.4459 73.8613 50.2165 73.9787 49.9499 74.064C49.6939 74.1493 49.3952 74.192 49.0539 74.192C48.1899 74.192 47.5339 73.9093 47.0859 73.344C46.6485 72.768 46.4299 71.9467 46.4299 70.88V65.6H48.7979V70.672C48.7979 71.184 48.8885 71.5787 49.0699 71.856C49.2512 72.1333 49.5605 72.272 49.9979 72.272C50.1792 72.272 50.3605 72.2453 50.5419 72.192C50.7232 72.1387 50.8832 72.064 51.0219 71.968C51.1605 71.8613 51.2725 71.7333 51.3579 71.584C51.4432 71.4347 51.4859 71.2587 51.4859 71.056V65.6H53.8539V74H51.4859V72.592ZM59.5611 74.192C58.9211 74.192 58.3505 74.0907 57.8491 73.888C57.3478 73.6747 56.9211 73.3813 56.5691 73.008C56.2278 72.624 55.9665 72.16 55.7851 71.616C55.6145 71.072 55.5291 70.464 55.5291 69.792C55.5291 69.1307 55.6145 68.5333 55.7851 68C55.9558 67.456 56.2065 66.992 56.5371 66.608C56.8785 66.224 57.2945 65.9307 57.7851 65.728C58.2758 65.5147 58.8358 65.408 59.4651 65.408C60.1585 65.408 60.7505 65.5253 61.2411 65.76C61.7425 65.9947 62.1478 66.3093 62.4571 66.704C62.7771 67.0987 63.0065 67.5573 63.1451 68.08C63.2945 68.592 63.3691 69.1307 63.3691 69.696V70.4H57.9771V70.528C57.9771 71.0827 58.1265 71.5253 58.4251 71.856C58.7238 72.176 59.1931 72.336 59.8331 72.336C60.3238 72.336 60.7238 72.24 61.0331 72.048C61.3425 71.8453 61.6305 71.6053 61.8971 71.328L63.0811 72.8C62.7078 73.2373 62.2171 73.5787 61.6091 73.824C61.0118 74.0693 60.3291 74.192 59.5611 74.192ZM59.5131 67.152C59.0331 67.152 58.6545 67.312 58.3771 67.632C58.1105 67.9413 57.9771 68.3573 57.9771 68.88V69.008H60.9211V68.864C60.9211 68.352 60.8038 67.9413 60.5691 67.632C60.3451 67.312 59.9931 67.152 59.5131 67.152ZM67.8895 74.192C67.0788 74.192 66.3962 74.064 65.8415 73.808C65.2868 73.5413 64.7908 73.168 64.3535 72.688L65.7455 71.28C66.0442 71.6107 66.3748 71.872 66.7375 72.064C67.1002 72.256 67.5108 72.352 67.9695 72.352C68.4388 72.352 68.7642 72.2827 68.9455 72.144C69.1268 71.9947 69.2175 71.7973 69.2175 71.552C69.2175 71.1573 68.9348 70.9227 68.3695 70.848L67.4575 70.736C65.5695 70.5013 64.6255 69.6373 64.6255 68.144C64.6255 67.7387 64.7002 67.3707 64.8495 67.04C65.0095 66.6987 65.2282 66.4107 65.5055 66.176C65.7935 65.9307 66.1348 65.744 66.5295 65.616C66.9348 65.4773 67.3882 65.408 67.8895 65.408C68.3268 65.408 68.7108 65.44 69.0415 65.504C69.3828 65.5573 69.6815 65.6427 69.9375 65.76C70.2042 65.8667 70.4442 66.0053 70.6575 66.176C70.8815 66.336 71.1002 66.5173 71.3135 66.72L69.9535 68.112C69.6868 67.8453 69.3828 67.6373 69.0415 67.488C68.7108 67.328 68.3695 67.248 68.0175 67.248C67.6122 67.248 67.3242 67.312 67.1535 67.44C66.9828 67.568 66.8975 67.7387 66.8975 67.952C66.8975 68.176 66.9562 68.352 67.0735 68.48C67.2015 68.5973 67.4362 68.6827 67.7775 68.736L68.7215 68.864C70.5668 69.1093 71.4895 69.952 71.4895 71.392C71.4895 71.7973 71.4042 72.1707 71.2335 72.512C71.0628 72.8533 70.8175 73.152 70.4975 73.408C70.1882 73.6533 69.8095 73.8453 69.3615 73.984C68.9242 74.1227 68.4335 74.192 67.8895 74.192ZM75.923 74C75.1017 74 74.4777 73.792 74.051 73.376C73.635 72.96 73.427 72.352 73.427 71.552V67.44H72.243V65.6H72.835C73.155 65.6 73.3737 65.5253 73.491 65.376C73.6083 65.216 73.667 64.992 73.667 64.704V63.328H75.795V65.6H77.459V67.44H75.795V72.16H77.331V74H75.923ZM80.288 64.704C79.808 64.704 79.456 64.5973 79.232 64.384C79.0187 64.16 78.912 63.8773 78.912 63.536V63.184C78.912 62.8427 79.0187 62.5653 79.232 62.352C79.456 62.128 79.808 62.016 80.288 62.016C80.768 62.016 81.1147 62.128 81.328 62.352C81.552 62.5653 81.664 62.8427 81.664 63.184V63.536C81.664 63.8773 81.552 64.16 81.328 64.384C81.1147 64.5973 80.768 64.704 80.288 64.704ZM79.104 65.6H81.472V74H79.104V65.6ZM87.0901 74.192C86.4715 74.192 85.9168 74.0907 85.4261 73.888C84.9461 73.6853 84.5355 73.392 84.1941 73.008C83.8635 72.624 83.6075 72.16 83.4261 71.616C83.2448 71.072 83.1541 70.464 83.1541 69.792C83.1541 69.12 83.2448 68.512 83.4261 67.968C83.6075 67.424 83.8635 66.9653 84.1941 66.592C84.5355 66.208 84.9461 65.9147 85.4261 65.712C85.9168 65.5093 86.4715 65.408 87.0901 65.408C87.7088 65.408 88.2581 65.5093 88.7381 65.712C89.2288 65.9147 89.6395 66.208 89.9701 66.592C90.3115 66.9653 90.5728 67.424 90.7541 67.968C90.9355 68.512 91.0261 69.12 91.0261 69.792C91.0261 70.464 90.9355 71.072 90.7541 71.616C90.5728 72.16 90.3115 72.624 89.9701 73.008C89.6395 73.392 89.2288 73.6853 88.7381 73.888C88.2581 74.0907 87.7088 74.192 87.0901 74.192ZM87.0901 72.32C87.5595 72.32 87.9221 72.176 88.1781 71.888C88.4341 71.6 88.5621 71.1893 88.5621 70.656V68.944C88.5621 68.4107 88.4341 68 88.1781 67.712C87.9221 67.424 87.5595 67.28 87.0901 67.28C86.6208 67.28 86.2581 67.424 86.0021 67.712C85.7461 68 85.6181 68.4107 85.6181 68.944V70.656C85.6181 71.1893 85.7461 71.6 86.0021 71.888C86.2581 72.176 86.6208 72.32 87.0901 72.32ZM92.7134 74V65.6H95.0814V67.024H95.1774C95.3267 66.5867 95.588 66.208 95.9614 65.888C96.3347 65.568 96.852 65.408 97.5134 65.408C98.3774 65.408 99.028 65.696 99.4654 66.272C99.9134 66.848 100.137 67.6693 100.137 68.736V74H97.7694V68.928C97.7694 68.384 97.684 67.984 97.5134 67.728C97.3427 67.4613 97.0387 67.328 96.6014 67.328C96.4094 67.328 96.2227 67.3547 96.0414 67.408C95.86 67.4507 95.6947 67.5253 95.5454 67.632C95.4067 67.7387 95.2947 67.872 95.2094 68.032C95.124 68.1813 95.0814 68.3573 95.0814 68.56V74H92.7134ZM105.093 74.192C104.282 74.192 103.599 74.064 103.045 73.808C102.49 73.5413 101.994 73.168 101.557 72.688L102.949 71.28C103.247 71.6107 103.578 71.872 103.941 72.064C104.303 72.256 104.714 72.352 105.173 72.352C105.642 72.352 105.967 72.2827 106.149 72.144C106.33 71.9947 106.421 71.7973 106.421 71.552C106.421 71.1573 106.138 70.9227 105.573 70.848L104.661 70.736C102.773 70.5013 101.829 69.6373 101.829 68.144C101.829 67.7387 101.903 67.3707 102.053 67.04C102.213 66.6987 102.431 66.4107 102.709 66.176C102.997 65.9307 103.338 65.744 103.733 65.616C104.138 65.4773 104.591 65.408 105.093 65.408C105.53 65.408 105.914 65.44 106.245 65.504C106.586 65.5573 106.885 65.6427 107.141 65.76C107.407 65.8667 107.647 66.0053 107.861 66.176C108.085 66.336 108.303 66.5173 108.517 66.72L107.157 68.112C106.89 67.8453 106.586 67.6373 106.245 67.488C105.914 67.328 105.573 67.248 105.221 67.248C104.815 67.248 104.527 67.312 104.357 67.44C104.186 67.568 104.101 67.7387 104.101 67.952C104.101 68.176 104.159 68.352 104.277 68.48C104.405 68.5973 104.639 68.6827 104.981 68.736L105.925 68.864C107.77 69.1093 108.693 69.952 108.693 71.392C108.693 71.7973 108.607 72.1707 108.437 72.512C108.266 72.8533 108.021 73.152 107.701 73.408C107.391 73.6533 107.013 73.8453 106.565 73.984C106.127 74.1227 105.637 74.192 105.093 74.192Z" fill="#8A92A6"/>
<path d="M238.849 61.3636V73H236.389V63.6989H236.321L233.656 65.3693V63.1875L236.537 61.3636H238.849ZM246.706 60.8182L242.956 74.75H240.871L244.621 60.8182H246.706ZM247.849 73V71.2273L251.991 67.392C252.344 67.0511 252.639 66.7443 252.878 66.4716C253.12 66.1989 253.304 65.9318 253.429 65.6705C253.554 65.4053 253.616 65.1193 253.616 64.8125C253.616 64.4716 253.539 64.178 253.384 63.9318C253.228 63.6818 253.016 63.4905 252.747 63.358C252.478 63.2216 252.173 63.1534 251.832 63.1534C251.476 63.1534 251.166 63.2254 250.901 63.3693C250.635 63.5133 250.431 63.7197 250.287 63.9886C250.143 64.2576 250.071 64.5777 250.071 64.9489H247.736C247.736 64.1875 247.908 63.5265 248.253 62.9659C248.598 62.4053 249.08 61.9716 249.702 61.6648C250.323 61.358 251.039 61.2045 251.849 61.2045C252.683 61.2045 253.408 61.3523 254.026 61.6477C254.647 61.9394 255.13 62.3447 255.474 62.8636C255.819 63.3826 255.991 63.9773 255.991 64.6477C255.991 65.0871 255.904 65.5208 255.73 65.9489C255.56 66.3769 255.255 66.8523 254.815 67.375C254.376 67.8939 253.757 68.517 252.957 69.2443L251.259 70.9091V70.9886H256.145V73H247.849ZM262.49 73.2557C261.513 73.2519 260.672 73.0114 259.967 72.5341C259.267 72.0568 258.727 71.3655 258.348 70.4602C257.973 69.5549 257.787 68.4659 257.791 67.1932C257.791 65.9242 257.979 64.8428 258.354 63.9489C258.732 63.0549 259.272 62.375 259.973 61.9091C260.678 61.4394 261.517 61.2045 262.49 61.2045C263.464 61.2045 264.301 61.4394 265.001 61.9091C265.706 62.3788 266.248 63.0606 266.626 63.9545C267.005 64.8447 267.193 65.9242 267.189 67.1932C267.189 68.4697 267 69.5606 266.621 70.4659C266.246 71.3712 265.708 72.0625 265.007 72.5398C264.306 73.017 263.467 73.2557 262.49 73.2557ZM262.49 71.2159C263.157 71.2159 263.689 70.8807 264.087 70.2102C264.484 69.5398 264.681 68.5341 264.678 67.1932C264.678 66.3106 264.587 65.5758 264.405 64.9886C264.227 64.4015 263.973 63.9602 263.643 63.6648C263.318 63.3693 262.933 63.2216 262.49 63.2216C261.827 63.2216 261.297 63.553 260.899 64.2159C260.501 64.8788 260.301 65.8712 260.297 67.1932C260.297 68.0871 260.386 68.8333 260.564 69.4318C260.746 70.0265 261.001 70.4735 261.331 70.7727C261.661 71.0682 262.047 71.2159 262.49 71.2159Z" fill="#00ADEF"/>
</g>
<rect x="288.5" y="35.5" width="116" height="50" rx="9.5" fill="white"/>
<g clip-path="url(#clip0_244_7988)">
<path d="M317.75 61.75C317.75 66.58 313.83 70.5 309 70.5C304.17 70.5 300.25 66.58 300.25 61.75C300.25 56.92 304.17 53 309 53C313.83 53 317.75 56.92 317.75 61.75Z" stroke="#101010" stroke-width="1.5" stroke-linecap="round" stroke-linejoin="round"/>
<path d="M309 56.5V61.5" stroke="#101010" stroke-width="1.5" stroke-linecap="round" stroke-linejoin="round"/>
<path d="M306 50.5H312" stroke="#101010" stroke-width="1.5" stroke-miterlimit="10" stroke-linecap="round" stroke-linejoin="round"/>
</g>
<path d="M334.799 65.644C334.279 65.644 333.827 65.548 333.443 65.356C333.059 65.156 332.743 64.872 332.495 64.504C332.247 64.136 332.063 63.684 331.943 63.148C331.823 62.612 331.763 62 331.763 61.312C331.763 60.632 331.823 60.024 331.943 59.488C332.063 58.944 332.247 58.488 332.495 58.12C332.743 57.752 333.059 57.472 333.443 57.28C333.827 57.08 334.279 56.98 334.799 56.98C335.839 56.98 336.603 57.36 337.091 58.12C337.587 58.88 337.835 59.944 337.835 61.312C337.835 62.68 337.587 63.744 337.091 64.504C336.603 65.264 335.839 65.644 334.799 65.644ZM334.799 64.492C335.087 64.492 335.331 64.436 335.531 64.324C335.739 64.204 335.907 64.036 336.035 63.82C336.163 63.604 336.255 63.348 336.311 63.052C336.367 62.748 336.395 62.412 336.395 62.044V60.58C336.395 60.212 336.367 59.88 336.311 59.584C336.255 59.28 336.163 59.02 336.035 58.804C335.907 58.588 335.739 58.424 335.531 58.312C335.331 58.192 335.087 58.132 334.799 58.132C334.511 58.132 334.263 58.192 334.055 58.312C333.855 58.424 333.691 58.588 333.563 58.804C333.435 59.02 333.343 59.28 333.287 59.584C333.231 59.88 333.203 60.212 333.203 60.58V62.044C333.203 62.412 333.231 62.748 333.287 63.052C333.343 63.348 333.435 63.604 333.563 63.82C333.691 64.036 333.855 64.204 334.055 64.324C334.263 64.436 334.511 64.492 334.799 64.492ZM343.995 65.644C343.475 65.644 343.023 65.548 342.639 65.356C342.255 65.156 341.939 64.872 341.691 64.504C341.443 64.136 341.259 63.684 341.139 63.148C341.019 62.612 340.959 62 340.959 61.312C340.959 60.632 341.019 60.024 341.139 59.488C341.259 58.944 341.443 58.488 341.691 58.12C341.939 57.752 342.255 57.472 342.639 57.28C343.023 57.08 343.475 56.98 343.995 56.98C345.035 56.98 345.799 57.36 346.287 58.12C346.783 58.88 347.031 59.944 347.031 61.312C347.031 62.68 346.783 63.744 346.287 64.504C345.799 65.264 345.035 65.644 343.995 65.644ZM343.995 64.492C344.283 64.492 344.527 64.436 344.727 64.324C344.935 64.204 345.103 64.036 345.231 63.82C345.359 63.604 345.451 63.348 345.507 63.052C345.563 62.748 345.591 62.412 345.591 62.044V60.58C345.591 60.212 345.563 59.88 345.507 59.584C345.451 59.28 345.359 59.02 345.231 58.804C345.103 58.588 344.935 58.424 344.727 58.312C344.527 58.192 344.283 58.132 343.995 58.132C343.707 58.132 343.459 58.192 343.251 58.312C343.051 58.424 342.887 58.588 342.759 58.804C342.631 59.02 342.539 59.28 342.483 59.584C342.427 59.88 342.399 60.212 342.399 60.58V62.044C342.399 62.412 342.427 62.748 342.483 63.052C342.539 63.348 342.631 63.604 342.759 63.82C342.887 64.036 343.051 64.204 343.251 64.324C343.459 64.436 343.707 64.492 343.995 64.492ZM351.45 65.644C351.154 65.644 350.934 65.568 350.79 65.416C350.646 65.256 350.574 65.06 350.574 64.828V64.648C350.574 64.416 350.646 64.224 350.79 64.072C350.934 63.912 351.154 63.832 351.45 63.832C351.746 63.832 351.966 63.912 352.11 64.072C352.254 64.224 352.326 64.416 352.326 64.648V64.828C352.326 65.06 352.254 65.256 352.11 65.416C351.966 65.568 351.746 65.644 351.45 65.644ZM351.45 60.928C351.154 60.928 350.934 60.852 350.79 60.7C350.646 60.54 350.574 60.344 350.574 60.112V59.932C350.574 59.7 350.646 59.508 350.79 59.356C350.934 59.196 351.154 59.116 351.45 59.116C351.746 59.116 351.966 59.196 352.11 59.356C352.254 59.508 352.326 59.7 352.326 59.932V60.112C352.326 60.344 352.254 60.54 352.11 60.7C351.966 60.852 351.746 60.928 351.45 60.928ZM358.905 65.644C358.385 65.644 357.933 65.548 357.549 65.356C357.165 65.156 356.849 64.872 356.601 64.504C356.353 64.136 356.169 63.684 356.049 63.148C355.929 62.612 355.869 62 355.869 61.312C355.869 60.632 355.929 60.024 356.049 59.488C356.169 58.944 356.353 58.488 356.601 58.12C356.849 57.752 357.165 57.472 357.549 57.28C357.933 57.08 358.385 56.98 358.905 56.98C359.945 56.98 360.709 57.36 361.197 58.12C361.693 58.88 361.941 59.944 361.941 61.312C361.941 62.68 361.693 63.744 361.197 64.504C360.709 65.264 359.945 65.644 358.905 65.644ZM358.905 64.492C359.193 64.492 359.437 64.436 359.637 64.324C359.845 64.204 360.013 64.036 360.141 63.82C360.269 63.604 360.361 63.348 360.417 63.052C360.473 62.748 360.501 62.412 360.501 62.044V60.58C360.501 60.212 360.473 59.88 360.417 59.584C360.361 59.28 360.269 59.02 360.141 58.804C360.013 58.588 359.845 58.424 359.637 58.312C359.437 58.192 359.193 58.132 358.905 58.132C358.617 58.132 358.369 58.192 358.161 58.312C357.961 58.424 357.797 58.588 357.669 58.804C357.541 59.02 357.449 59.28 357.393 59.584C357.337 59.88 357.309 60.212 357.309 60.58V62.044C357.309 62.412 357.337 62.748 357.393 63.052C357.449 63.348 357.541 63.604 357.669 63.82C357.797 64.036 357.961 64.204 358.161 64.324C358.369 64.436 358.617 64.492 358.905 64.492ZM368.1 65.644C367.58 65.644 367.128 65.548 366.744 65.356C366.36 65.156 366.044 64.872 365.796 64.504C365.548 64.136 365.364 63.684 365.244 63.148C365.124 62.612 365.064 62 365.064 61.312C365.064 60.632 365.124 60.024 365.244 59.488C365.364 58.944 365.548 58.488 365.796 58.12C366.044 57.752 366.36 57.472 366.744 57.28C367.128 57.08 367.58 56.98 368.1 56.98C369.14 56.98 369.904 57.36 370.392 58.12C370.888 58.88 371.136 59.944 371.136 61.312C371.136 62.68 370.888 63.744 370.392 64.504C369.904 65.264 369.14 65.644 368.1 65.644ZM368.1 64.492C368.388 64.492 368.632 64.436 368.832 64.324C369.04 64.204 369.208 64.036 369.336 63.82C369.464 63.604 369.556 63.348 369.612 63.052C369.668 62.748 369.696 62.412 369.696 62.044V60.58C369.696 60.212 369.668 59.88 369.612 59.584C369.556 59.28 369.464 59.02 369.336 58.804C369.208 58.588 369.04 58.424 368.832 58.312C368.632 58.192 368.388 58.132 368.1 58.132C367.812 58.132 367.564 58.192 367.356 58.312C367.156 58.424 366.992 58.588 366.864 58.804C366.736 59.02 366.644 59.28 366.588 59.584C366.532 59.88 366.504 60.212 366.504 60.58V62.044C366.504 62.412 366.532 62.748 366.588 63.052C366.644 63.348 366.736 63.604 366.864 63.82C366.992 64.036 367.156 64.204 367.356 64.324C367.564 64.436 367.812 64.492 368.1 64.492ZM375.555 65.644C375.259 65.644 375.039 65.568 374.895 65.416C374.751 65.256 374.679 65.06 374.679 64.828V64.648C374.679 64.416 374.751 64.224 374.895 64.072C375.039 63.912 375.259 63.832 375.555 63.832C375.851 63.832 376.071 63.912 376.215 64.072C376.359 64.224 376.431 64.416 376.431 64.648V64.828C376.431 65.06 376.359 65.256 376.215 65.416C376.071 65.568 375.851 65.644 375.555 65.644ZM375.555 60.928C375.259 60.928 375.039 60.852 374.895 60.7C374.751 60.54 374.679 60.344 374.679 60.112V59.932C374.679 59.7 374.751 59.508 374.895 59.356C375.039 59.196 375.259 59.116 375.555 59.116C375.851 59.116 376.071 59.196 376.215 59.356C376.359 59.508 376.431 59.7 376.431 59.932V60.112C376.431 60.344 376.359 60.54 376.215 60.7C376.071 60.852 375.851 60.928 375.555 60.928ZM385.902 65.5H380.214V64.204L382.89 61.816C383.314 61.432 383.638 61.068 383.862 60.724C384.094 60.372 384.21 60.004 384.21 59.62V59.464C384.21 59.056 384.086 58.736 383.838 58.504C383.598 58.272 383.27 58.156 382.854 58.156C382.622 58.156 382.418 58.192 382.242 58.264C382.074 58.328 381.926 58.42 381.798 58.54C381.67 58.66 381.562 58.8 381.474 58.96C381.394 59.12 381.33 59.292 381.282 59.476L380.094 59.02C380.182 58.756 380.302 58.504 380.454 58.264C380.606 58.016 380.798 57.796 381.03 57.604C381.262 57.412 381.534 57.26 381.846 57.148C382.166 57.036 382.538 56.98 382.962 56.98C383.386 56.98 383.766 57.044 384.102 57.172C384.438 57.292 384.718 57.464 384.942 57.688C385.174 57.904 385.35 58.164 385.47 58.468C385.59 58.772 385.65 59.104 385.65 59.464C385.65 59.8 385.598 60.112 385.494 60.4C385.39 60.688 385.246 60.96 385.062 61.216C384.878 61.472 384.662 61.716 384.414 61.948C384.174 62.18 383.918 62.416 383.646 62.656L381.678 64.348H385.902V65.5ZM392.205 65.644C391.685 65.644 391.233 65.548 390.849 65.356C390.465 65.156 390.149 64.872 389.901 64.504C389.653 64.136 389.469 63.684 389.349 63.148C389.229 62.612 389.169 62 389.169 61.312C389.169 60.632 389.229 60.024 389.349 59.488C389.469 58.944 389.653 58.488 389.901 58.12C390.149 57.752 390.465 57.472 390.849 57.28C391.233 57.08 391.685 56.98 392.205 56.98C393.245 56.98 394.009 57.36 394.497 58.12C394.993 58.88 395.241 59.944 395.241 61.312C395.241 62.68 394.993 63.744 394.497 64.504C394.009 65.264 393.245 65.644 392.205 65.644ZM392.205 64.492C392.493 64.492 392.737 64.436 392.937 64.324C393.145 64.204 393.313 64.036 393.441 63.82C393.569 63.604 393.661 63.348 393.717 63.052C393.773 62.748 393.801 62.412 393.801 62.044V60.58C393.801 60.212 393.773 59.88 393.717 59.584C393.661 59.28 393.569 59.02 393.441 58.804C393.313 58.588 393.145 58.424 392.937 58.312C392.737 58.192 392.493 58.132 392.205 58.132C391.917 58.132 391.669 58.192 391.461 58.312C391.261 58.424 391.097 58.588 390.969 58.804C390.841 59.02 390.749 59.28 390.693 59.584C390.637 59.88 390.609 60.212 390.609 60.58V62.044C390.609 62.412 390.637 62.748 390.693 63.052C390.749 63.348 390.841 63.604 390.969 63.82C391.097 64.036 391.261 64.204 391.461 64.324C391.669 64.436 391.917 64.492 392.205 64.492Z" fill="#070417"/>
<rect x="288.5" y="35.5" width="116" height="50" rx="9.5" stroke="#D9D9D9"/>
<defs>
<filter id="filter0_d_244_7988" x="-16" y="0" width="333" height="131" filterUnits="userSpaceOnUse" color-interpolation-filters="sRGB">
<feFlood flood-opacity="0" result="BackgroundImageFix"/>
<feColorMatrix in="SourceAlpha" type="matrix" values="0 0 0 0 0 0 0 0 0 0 0 0 0 0 0 0 0 0 127 0" result="hardAlpha"/>
<feOffset dy="5"/>
<feGaussianBlur stdDeviation="20"/>
<feComposite in2="hardAlpha" operator="out"/>
<feColorMatrix type="matrix" values="0 0 0 0 0 0 0 0 0 0 0 0 0 0 0 0 0 0 0.15 0"/>
<feBlend mode="normal" in2="BackgroundImageFix" result="effect1_dropShadow_244_7988"/>
<feBlend mode="normal" in="SourceGraphic" in2="effect1_dropShadow_244_7988" result="shape"/>
</filter>
<clipPath id="clip0_244_7988">
<rect width="24" height="24" fill="white" transform="translate(297 48.5)"/>
</clipPath>
</defs>
</svg>
