<svg width="317" height="131" viewBox="0 0 317 131" fill="none" xmlns="http://www.w3.org/2000/svg">
<g filter="url(#filter0_d_244_7989)">
<rect x="24" y="35" width="253" height="51" rx="8" fill="white" shape-rendering="crispEdges"/>
<rect x="34" y="43" width="231.438" height="6" rx="3" fill="#3A57E8" fill-opacity="0.2"/>
<rect x="34" y="43" width="51.033" height="6" rx="3" fill="#003674"/>
<path d="M42.672 76.944H41.168C40.304 76.944 39.6747 76.7413 39.28 76.336C38.8853 75.9307 38.688 75.344 38.688 74.576V74.112C37.4933 73.8987 36.544 73.3173 35.84 72.368C35.1467 71.408 34.8 70.0907 34.8 68.416C34.8 67.4667 34.9173 66.6347 35.152 65.92C35.3867 65.1947 35.7173 64.592 36.144 64.112C36.5707 63.6213 37.088 63.2533 37.696 63.008C38.304 62.7627 38.976 62.64 39.712 62.64C40.448 62.64 41.12 62.7627 41.728 63.008C42.336 63.2533 42.8533 63.6213 43.28 64.112C43.7067 64.592 44.0373 65.1947 44.272 65.92C44.5067 66.6347 44.624 67.4667 44.624 68.416C44.624 70.0373 44.2933 71.3227 43.632 72.272C42.9813 73.2213 42.0907 73.8187 40.96 74.064V74.96H42.672V76.944ZM39.712 72.032C40.448 72.032 41.0187 71.792 41.424 71.312C41.84 70.832 42.048 70.144 42.048 69.248V67.584C42.048 66.688 41.84 66 41.424 65.52C41.0187 65.04 40.448 64.8 39.712 64.8C38.976 64.8 38.4 65.04 37.984 65.52C37.5787 66 37.376 66.688 37.376 67.584V69.248C37.376 70.144 37.5787 70.832 37.984 71.312C38.4 71.792 38.976 72.032 39.712 72.032ZM51.4859 72.592H51.4059C51.3312 72.8053 51.2299 73.008 51.1019 73.2C50.9845 73.392 50.8299 73.5627 50.6379 73.712C50.4459 73.8613 50.2165 73.9787 49.9499 74.064C49.6939 74.1493 49.3952 74.192 49.0539 74.192C48.1899 74.192 47.5339 73.9093 47.0859 73.344C46.6485 72.768 46.4299 71.9467 46.4299 70.88V65.6H48.7979V70.672C48.7979 71.184 48.8885 71.5787 49.0699 71.856C49.2512 72.1333 49.5605 72.272 49.9979 72.272C50.1792 72.272 50.3605 72.2453 50.5419 72.192C50.7232 72.1387 50.8832 72.064 51.0219 71.968C51.1605 71.8613 51.2725 71.7333 51.3579 71.584C51.4432 71.4347 51.4859 71.2587 51.4859 71.056V65.6H53.8539V74H51.4859V72.592ZM59.5611 74.192C58.9211 74.192 58.3505 74.0907 57.8491 73.888C57.3478 73.6747 56.9211 73.3813 56.5691 73.008C56.2278 72.624 55.9665 72.16 55.7851 71.616C55.6145 71.072 55.5291 70.464 55.5291 69.792C55.5291 69.1307 55.6145 68.5333 55.7851 68C55.9558 67.456 56.2065 66.992 56.5371 66.608C56.8785 66.224 57.2945 65.9307 57.7851 65.728C58.2758 65.5147 58.8358 65.408 59.4651 65.408C60.1585 65.408 60.7505 65.5253 61.2411 65.76C61.7425 65.9947 62.1478 66.3093 62.4571 66.704C62.7771 67.0987 63.0065 67.5573 63.1451 68.08C63.2945 68.592 63.3691 69.1307 63.3691 69.696V70.4H57.9771V70.528C57.9771 71.0827 58.1265 71.5253 58.4251 71.856C58.7238 72.176 59.1931 72.336 59.8331 72.336C60.3238 72.336 60.7238 72.24 61.0331 72.048C61.3425 71.8453 61.6305 71.6053 61.8971 71.328L63.0811 72.8C62.7078 73.2373 62.2171 73.5787 61.6091 73.824C61.0118 74.0693 60.3291 74.192 59.5611 74.192ZM59.5131 67.152C59.0331 67.152 58.6545 67.312 58.3771 67.632C58.1105 67.9413 57.9771 68.3573 57.9771 68.88V69.008H60.9211V68.864C60.9211 68.352 60.8038 67.9413 60.5691 67.632C60.3451 67.312 59.9931 67.152 59.5131 67.152ZM67.8895 74.192C67.0788 74.192 66.3962 74.064 65.8415 73.808C65.2868 73.5413 64.7908 73.168 64.3535 72.688L65.7455 71.28C66.0442 71.6107 66.3748 71.872 66.7375 72.064C67.1002 72.256 67.5108 72.352 67.9695 72.352C68.4388 72.352 68.7642 72.2827 68.9455 72.144C69.1268 71.9947 69.2175 71.7973 69.2175 71.552C69.2175 71.1573 68.9348 70.9227 68.3695 70.848L67.4575 70.736C65.5695 70.5013 64.6255 69.6373 64.6255 68.144C64.6255 67.7387 64.7002 67.3707 64.8495 67.04C65.0095 66.6987 65.2282 66.4107 65.5055 66.176C65.7935 65.9307 66.1348 65.744 66.5295 65.616C66.9348 65.4773 67.3882 65.408 67.8895 65.408C68.3268 65.408 68.7108 65.44 69.0415 65.504C69.3828 65.5573 69.6815 65.6427 69.9375 65.76C70.2042 65.8667 70.4442 66.0053 70.6575 66.176C70.8815 66.336 71.1002 66.5173 71.3135 66.72L69.9535 68.112C69.6868 67.8453 69.3828 67.6373 69.0415 67.488C68.7108 67.328 68.3695 67.248 68.0175 67.248C67.6122 67.248 67.3242 67.312 67.1535 67.44C66.9828 67.568 66.8975 67.7387 66.8975 67.952C66.8975 68.176 66.9562 68.352 67.0735 68.48C67.2015 68.5973 67.4362 68.6827 67.7775 68.736L68.7215 68.864C70.5668 69.1093 71.4895 69.952 71.4895 71.392C71.4895 71.7973 71.4042 72.1707 71.2335 72.512C71.0628 72.8533 70.8175 73.152 70.4975 73.408C70.1882 73.6533 69.8095 73.8453 69.3615 73.984C68.9242 74.1227 68.4335 74.192 67.8895 74.192ZM75.923 74C75.1017 74 74.4777 73.792 74.051 73.376C73.635 72.96 73.427 72.352 73.427 71.552V67.44H72.243V65.6H72.835C73.155 65.6 73.3737 65.5253 73.491 65.376C73.6083 65.216 73.667 64.992 73.667 64.704V63.328H75.795V65.6H77.459V67.44H75.795V72.16H77.331V74H75.923ZM80.288 64.704C79.808 64.704 79.456 64.5973 79.232 64.384C79.0187 64.16 78.912 63.8773 78.912 63.536V63.184C78.912 62.8427 79.0187 62.5653 79.232 62.352C79.456 62.128 79.808 62.016 80.288 62.016C80.768 62.016 81.1147 62.128 81.328 62.352C81.552 62.5653 81.664 62.8427 81.664 63.184V63.536C81.664 63.8773 81.552 64.16 81.328 64.384C81.1147 64.5973 80.768 64.704 80.288 64.704ZM79.104 65.6H81.472V74H79.104V65.6ZM87.0901 74.192C86.4715 74.192 85.9168 74.0907 85.4261 73.888C84.9461 73.6853 84.5355 73.392 84.1941 73.008C83.8635 72.624 83.6075 72.16 83.4261 71.616C83.2448 71.072 83.1541 70.464 83.1541 69.792C83.1541 69.12 83.2448 68.512 83.4261 67.968C83.6075 67.424 83.8635 66.9653 84.1941 66.592C84.5355 66.208 84.9461 65.9147 85.4261 65.712C85.9168 65.5093 86.4715 65.408 87.0901 65.408C87.7088 65.408 88.2581 65.5093 88.7381 65.712C89.2288 65.9147 89.6395 66.208 89.9701 66.592C90.3115 66.9653 90.5728 67.424 90.7541 67.968C90.9355 68.512 91.0261 69.12 91.0261 69.792C91.0261 70.464 90.9355 71.072 90.7541 71.616C90.5728 72.16 90.3115 72.624 89.9701 73.008C89.6395 73.392 89.2288 73.6853 88.7381 73.888C88.2581 74.0907 87.7088 74.192 87.0901 74.192ZM87.0901 72.32C87.5595 72.32 87.9221 72.176 88.1781 71.888C88.4341 71.6 88.5621 71.1893 88.5621 70.656V68.944C88.5621 68.4107 88.4341 68 88.1781 67.712C87.9221 67.424 87.5595 67.28 87.0901 67.28C86.6208 67.28 86.2581 67.424 86.0021 67.712C85.7461 68 85.6181 68.4107 85.6181 68.944V70.656C85.6181 71.1893 85.7461 71.6 86.0021 71.888C86.2581 72.176 86.6208 72.32 87.0901 72.32ZM92.7134 74V65.6H95.0814V67.024H95.1774C95.3267 66.5867 95.588 66.208 95.9614 65.888C96.3347 65.568 96.852 65.408 97.5134 65.408C98.3774 65.408 99.028 65.696 99.4654 66.272C99.9134 66.848 100.137 67.6693 100.137 68.736V74H97.7694V68.928C97.7694 68.384 97.684 67.984 97.5134 67.728C97.3427 67.4613 97.0387 67.328 96.6014 67.328C96.4094 67.328 96.2227 67.3547 96.0414 67.408C95.86 67.4507 95.6947 67.5253 95.5454 67.632C95.4067 67.7387 95.2947 67.872 95.2094 68.032C95.124 68.1813 95.0814 68.3573 95.0814 68.56V74H92.7134ZM105.093 74.192C104.282 74.192 103.599 74.064 103.045 73.808C102.49 73.5413 101.994 73.168 101.557 72.688L102.949 71.28C103.247 71.6107 103.578 71.872 103.941 72.064C104.303 72.256 104.714 72.352 105.173 72.352C105.642 72.352 105.967 72.2827 106.149 72.144C106.33 71.9947 106.421 71.7973 106.421 71.552C106.421 71.1573 106.138 70.9227 105.573 70.848L104.661 70.736C102.773 70.5013 101.829 69.6373 101.829 68.144C101.829 67.7387 101.903 67.3707 102.053 67.04C102.213 66.6987 102.431 66.4107 102.709 66.176C102.997 65.9307 103.338 65.744 103.733 65.616C104.138 65.4773 104.591 65.408 105.093 65.408C105.53 65.408 105.914 65.44 106.245 65.504C106.586 65.5573 106.885 65.6427 107.141 65.76C107.407 65.8667 107.647 66.0053 107.861 66.176C108.085 66.336 108.303 66.5173 108.517 66.72L107.157 68.112C106.89 67.8453 106.586 67.6373 106.245 67.488C105.914 67.328 105.573 67.248 105.221 67.248C104.815 67.248 104.527 67.312 104.357 67.44C104.186 67.568 104.101 67.7387 104.101 67.952C104.101 68.176 104.159 68.352 104.277 68.48C104.405 68.5973 104.639 68.6827 104.981 68.736L105.925 68.864C107.77 69.1093 108.693 69.952 108.693 71.392C108.693 71.7973 108.607 72.1707 108.437 72.512C108.266 72.8533 108.021 73.152 107.701 73.408C107.391 73.6533 107.013 73.8453 106.565 73.984C106.127 74.1227 105.637 74.192 105.093 74.192Z" fill="#8A92A6"/>
<path d="M238.849 61.3636V73H236.389V63.6989H236.321L233.656 65.3693V63.1875L236.537 61.3636H238.849ZM246.706 60.8182L242.956 74.75H240.871L244.621 60.8182H246.706ZM247.849 73V71.2273L251.991 67.392C252.344 67.0511 252.639 66.7443 252.878 66.4716C253.12 66.1989 253.304 65.9318 253.429 65.6705C253.554 65.4053 253.616 65.1193 253.616 64.8125C253.616 64.4716 253.539 64.178 253.384 63.9318C253.228 63.6818 253.016 63.4905 252.747 63.358C252.478 63.2216 252.173 63.1534 251.832 63.1534C251.476 63.1534 251.166 63.2254 250.901 63.3693C250.635 63.5133 250.431 63.7197 250.287 63.9886C250.143 64.2576 250.071 64.5777 250.071 64.9489H247.736C247.736 64.1875 247.908 63.5265 248.253 62.9659C248.598 62.4053 249.08 61.9716 249.702 61.6648C250.323 61.358 251.039 61.2045 251.849 61.2045C252.683 61.2045 253.408 61.3523 254.026 61.6477C254.647 61.9394 255.13 62.3447 255.474 62.8636C255.819 63.3826 255.991 63.9773 255.991 64.6477C255.991 65.0871 255.904 65.5208 255.73 65.9489C255.56 66.3769 255.255 66.8523 254.815 67.375C254.376 67.8939 253.757 68.517 252.957 69.2443L251.259 70.9091V70.9886H256.145V73H247.849ZM262.49 73.2557C261.513 73.2519 260.672 73.0114 259.967 72.5341C259.267 72.0568 258.727 71.3655 258.348 70.4602C257.973 69.5549 257.787 68.4659 257.791 67.1932C257.791 65.9242 257.979 64.8428 258.354 63.9489C258.732 63.0549 259.272 62.375 259.973 61.9091C260.678 61.4394 261.517 61.2045 262.49 61.2045C263.464 61.2045 264.301 61.4394 265.001 61.9091C265.706 62.3788 266.248 63.0606 266.626 63.9545C267.005 64.8447 267.193 65.9242 267.189 67.1932C267.189 68.4697 267 69.5606 266.621 70.4659C266.246 71.3712 265.708 72.0625 265.007 72.5398C264.306 73.017 263.467 73.2557 262.49 73.2557ZM262.49 71.2159C263.157 71.2159 263.689 70.8807 264.087 70.2102C264.484 69.5398 264.681 68.5341 264.678 67.1932C264.678 66.3106 264.587 65.5758 264.405 64.9886C264.227 64.4015 263.973 63.9602 263.643 63.6648C263.318 63.3693 262.933 63.2216 262.49 63.2216C261.827 63.2216 261.297 63.553 260.899 64.2159C260.501 64.8788 260.301 65.8712 260.297 67.1932C260.297 68.0871 260.386 68.8333 260.564 69.4318C260.746 70.0265 261.001 70.4735 261.331 70.7727C261.661 71.0682 262.047 71.2159 262.49 71.2159Z" fill="#00ADEF"/>
</g>
<defs>
<filter id="filter0_d_244_7989" x="-16" y="0" width="333" height="131" filterUnits="userSpaceOnUse" color-interpolation-filters="sRGB">
<feFlood flood-opacity="0" result="BackgroundImageFix"/>
<feColorMatrix in="SourceAlpha" type="matrix" values="0 0 0 0 0 0 0 0 0 0 0 0 0 0 0 0 0 0 127 0" result="hardAlpha"/>
<feOffset dy="5"/>
<feGaussianBlur stdDeviation="20"/>
<feComposite in2="hardAlpha" operator="out"/>
<feColorMatrix type="matrix" values="0 0 0 0 0 0 0 0 0 0 0 0 0 0 0 0 0 0 0.15 0"/>
<feBlend mode="normal" in2="BackgroundImageFix" result="effect1_dropShadow_244_7989"/>
<feBlend mode="normal" in="SourceGraphic" in2="effect1_dropShadow_244_7989" result="shape"/>
</filter>
</defs>
</svg>
