<svg width="103" height="57" viewBox="0 0 103 57" fill="none" xmlns="http://www.w3.org/2000/svg">
<path d="M0.660156 8.73474C0.660156 4.59261 4.01802 1.23474 8.16016 1.23474H94.0534C98.1955 1.23474 101.553 4.59261 101.553 8.73474V48.7347C101.553 52.8769 98.1955 56.2347 94.0534 56.2347H8.16015C4.01802 56.2347 0.660156 52.8769 0.660156 48.7347V8.73474Z" fill="white" stroke="#E8ECF4"/>
<path d="M45.2068 30.2003L44.4084 33.2718L41.4902 33.3354C40.6181 31.6685 40.1235 29.7614 40.1235 27.7348C40.1235 25.775 40.586 23.927 41.4058 22.2997H41.4064L44.0044 22.7905L45.1425 25.4517C44.9043 26.1673 44.7744 26.9354 44.7744 27.7348C44.7745 28.6023 44.927 29.4335 45.2068 30.2003Z" fill="#FBBB00"/>
<path d="M62.8601 25.5269C62.9918 26.2418 63.0605 26.9801 63.0605 27.7347C63.0605 28.5808 62.9742 29.4061 62.8097 30.2023C62.2514 32.9113 60.7926 35.2769 58.7718 36.9509L58.7712 36.9503L55.4989 36.7782L55.0358 33.799C56.3767 32.9886 57.4246 31.7204 57.9766 30.2023H51.8441V25.5269H58.0661H62.8601Z" fill="#518EF8"/>
<path d="M58.7711 36.9504L58.7717 36.951C56.8064 38.5789 54.3097 39.5529 51.592 39.5529C47.2245 39.5529 43.4273 37.0374 41.4902 33.3354L45.2068 30.2004C46.1753 32.864 48.6688 34.7601 51.592 34.7601C52.8484 34.7601 54.0256 34.4101 55.0357 33.7991L58.7711 36.9504Z" fill="#28B446"/>
<path d="M58.9123 18.6373L55.197 21.7717C54.1516 21.0984 52.9159 20.7094 51.592 20.7094C48.6026 20.7094 46.0625 22.6925 45.1425 25.4516L41.4064 22.2997H41.4058C43.3145 18.5075 47.1596 15.9166 51.592 15.9166C54.3747 15.9166 56.9261 16.938 58.9123 18.6373Z" fill="#F14336"/>
</svg>
