<svg width="14" height="14" viewBox="0 0 14 14" fill="currentColor" xmlns="http://www.w3.org/2000/svg">
<path d="M2.1875 0.874969C2.42912 0.874969 2.625 1.07085 2.625 1.31247V3.93747C2.625 4.17909 2.82088 4.37497 3.0625 4.37497H10.9392C11.1809 4.37497 11.3767 4.17909 11.3767 3.93747V1.31247C11.3767 1.07085 11.5727 0.874969 11.8142 0.874969C12.0559 0.874969 12.2517 1.07085 12.2517 1.31247V3.93747C12.2517 4.50928 11.8861 4.99569 11.3759 5.17561V6.12497C11.3759 7.09147 10.5923 7.87497 9.62588 7.87497H9.62474L9.62754 9.39741C9.62832 9.84506 9.40091 10.2623 9.02423 10.5042L5.05126 13.0556C4.91663 13.1421 4.74554 13.1482 4.60512 13.0714C4.4647 12.9947 4.37735 12.8475 4.37735 12.6875V7.87497H4.37586C3.40936 7.87497 2.62586 7.09147 2.62586 6.12497V5.17559C2.11564 4.99565 1.75 4.50926 1.75 3.93747V1.31247C1.75 1.07085 1.94588 0.874969 2.1875 0.874969ZM5.25235 7.87497V11.8866L8.55143 9.76788C8.67699 9.6873 8.7528 9.54817 8.75254 9.39898L8.74972 7.87497H5.25235ZM3.50086 6.12497C3.50086 6.60822 3.8926 6.99997 4.37586 6.99997H9.62588C10.1091 6.99997 10.5009 6.60822 10.5009 6.12497V5.24997H3.50086V6.12497Z" fill="currentColor"/>
</svg>
