<svg width="191" height="191" viewBox="0 0 191 191" fill="none" xmlns="http://www.w3.org/2000/svg">
<circle cx="95.722" cy="95.825" r="95" fill="#E5F8FF"/>
<path d="M97.9798 142.369C94.8264 145.617 91.2131 148.422 87.2464 150.7C87.1554 150.754 87.0629 150.805 86.9701 150.857L80.5483 145.388C80.6158 145.328 80.6905 145.26 80.7709 145.186C85.5558 140.814 109.31 110.25 110.893 102.807C110.783 103.427 112.321 127.744 97.9798 142.369Z" fill="#F0F0F0"/>
<path d="M86.9743 152.046C86.8535 152.073 86.7305 152.098 86.6072 152.121L81.8129 148.129C81.9066 148.098 82.0161 148.062 82.1413 148.021C84.1983 147.336 90.325 145.267 96.4221 142.911C102.973 140.378 109.493 137.516 110.896 135.683C110.595 136.109 101.329 149.026 86.9743 152.046Z" fill="#F0F0F0"/>
<path d="M127.334 60.1799H126.651V41.5277C126.651 40.1101 126.371 38.7063 125.827 37.3965C125.283 36.0868 124.486 34.8967 123.48 33.8943C122.475 32.8918 121.282 32.0966 119.968 31.5541C118.655 31.0116 117.247 30.7324 115.826 30.7324H76.1999C74.7784 30.7324 73.3707 31.0116 72.0573 31.5541C70.744 32.0966 69.5506 32.8918 68.5454 33.8942C67.5402 34.8967 66.7428 36.0867 66.1988 37.3965C65.6548 38.7062 65.3748 40.11 65.3748 41.5277V143.855C65.3748 145.272 65.6548 146.676 66.1988 147.986C66.7428 149.296 67.5402 150.486 68.5454 151.488C69.5506 152.491 70.744 153.286 72.0573 153.828C73.3707 154.371 74.7783 154.65 76.1999 154.65H115.826C117.247 154.65 118.655 154.371 119.968 153.828C121.282 153.286 122.475 152.491 123.48 151.488C124.486 150.486 125.283 149.296 125.827 147.986C126.371 146.676 126.651 145.273 126.651 143.855V73.4568H127.334V60.1799Z" fill="#3F3D56"/>
<path d="M123.54 42.4519V142.931C123.54 143.972 123.332 145.003 122.929 145.965C122.525 146.926 121.933 147.8 121.187 148.536C120.441 149.272 119.555 149.856 118.58 150.254C117.605 150.652 116.56 150.857 115.505 150.857H75.936C74.8811 150.857 73.8366 150.652 72.8621 150.254C71.8875 149.855 71.0021 149.271 70.2562 148.535C69.5103 147.799 68.9186 146.926 68.515 145.964C68.1114 145.002 67.9037 143.972 67.9037 142.931V42.4519C67.9037 41.411 68.1114 40.3803 68.515 39.4186C68.9186 38.4569 69.5103 37.5831 70.2562 36.8471C71.0021 36.1111 71.8875 35.5273 72.8621 35.129C73.8366 34.7307 74.8811 34.5257 75.936 34.5258H80.7379C80.5022 35.0977 80.4125 35.718 80.4767 36.3322C80.541 36.9463 80.7571 37.5355 81.1063 38.0479C81.4554 38.5603 81.9267 38.9801 82.4788 39.2706C83.031 39.561 83.6469 39.7131 84.2726 39.7135H106.832C107.458 39.7141 108.075 39.5627 108.628 39.2725C109.18 38.9823 109.652 38.5624 110.001 38.0497C110.351 37.537 110.567 36.9474 110.631 36.3329C110.694 35.7183 110.604 35.0977 110.367 34.5258H115.505C116.56 34.5254 117.605 34.7301 118.58 35.1283C119.555 35.5265 120.441 36.1102 121.187 36.8463C121.933 37.5823 122.525 38.4562 122.929 39.4181C123.332 40.3799 123.54 41.4108 123.54 42.4519Z" fill="white"/>
<path d="M112.475 95.2202H78.9686C78.3817 95.2195 77.8191 94.9526 77.4041 94.478C76.9891 94.0035 76.7557 93.3601 76.755 92.689V91.4291C76.7557 90.758 76.9891 90.1146 77.4041 89.6401C77.8191 89.1656 78.3817 88.8987 78.9686 88.8979H112.475C113.062 88.8987 113.625 89.1656 114.04 89.6401C114.455 90.1146 114.688 90.758 114.689 91.4291V92.689C114.688 93.3601 114.455 94.0035 114.04 94.478C113.625 94.9526 113.062 95.2195 112.475 95.2202Z" fill="#F0F0F0"/>
<path d="M112.475 104.072H78.9686C78.3817 104.071 77.8191 103.857 77.4041 103.478C76.9891 103.098 76.7557 102.583 76.755 102.047V101.039C76.7557 100.502 76.9891 99.987 77.4041 99.6074C77.8191 99.2278 78.3817 99.0142 78.9686 99.0136H112.475C113.062 99.0142 113.625 99.2278 114.04 99.6074C114.455 99.987 114.688 100.502 114.689 101.039V102.047C114.688 102.583 114.455 103.098 114.04 103.478C113.625 103.857 113.062 104.071 112.475 104.072Z" fill="#F0F0F0"/>
<path d="M113.566 92.6913H79.1428C78.5098 92.6905 77.9028 92.421 77.4552 91.942C77.0075 91.4629 76.7557 90.8133 76.755 90.1358V88.9244C76.7557 88.2469 77.0075 87.5974 77.4552 87.1183C77.9028 86.6392 78.5098 86.3697 79.1428 86.369H113.566C114.199 86.3697 114.806 86.6392 115.253 87.1183C115.701 87.5974 115.953 88.2469 115.954 88.9244V90.1358C115.953 90.8133 115.701 91.4629 115.253 91.942C114.806 92.421 114.199 92.6905 113.566 92.6913ZM79.1428 86.8557C78.6304 86.8563 78.139 87.0745 77.7766 87.4623C77.4142 87.8501 77.2104 88.376 77.2098 88.9244V90.1358C77.2104 90.6843 77.4142 91.2101 77.7766 91.598C78.139 91.9858 78.6304 92.2039 79.1428 92.2045H113.566C114.078 92.2039 114.569 91.9858 114.932 91.598C115.294 91.2101 115.498 90.6843 115.499 90.1358V88.9244C115.498 88.376 115.294 87.8501 114.932 87.4623C114.569 87.0745 114.078 86.8563 113.566 86.8557H79.1428Z" fill="#3F3D56"/>
<path d="M113.566 102.807H79.1428C78.5098 102.806 77.9028 102.537 77.4552 102.058C77.0075 101.579 76.7557 100.929 76.755 100.252V99.0402C76.7557 98.3627 77.0075 97.7131 77.4552 97.234C77.9028 96.755 78.5098 96.4855 79.1428 96.4847H113.566C114.199 96.4855 114.806 96.755 115.253 97.234C115.701 97.7131 115.953 98.3627 115.954 99.0402V100.252C115.953 100.929 115.701 101.579 115.253 102.058C114.806 102.537 114.199 102.806 113.566 102.807ZM79.1428 96.9715C78.6304 96.9721 78.139 97.1902 77.7766 97.5781C77.4142 97.9659 77.2104 98.4917 77.2098 99.0402V100.252C77.2104 100.8 77.4142 101.326 77.7766 101.714C78.139 102.102 78.6304 102.32 79.1428 102.32H113.566C114.078 102.32 114.569 102.102 114.932 101.714C115.294 101.326 115.498 100.8 115.499 100.252V99.0402C115.498 98.4917 115.294 97.9659 114.932 97.5781C114.569 97.1902 114.078 96.9721 113.566 96.9715H79.1428Z" fill="#3F3D56"/>
<path d="M110.896 42.3982V64.1057C107.317 65.0131 103.57 65.1172 99.9432 64.41C96.3163 63.7027 92.9061 62.203 89.9749 60.0262C87.0437 57.8493 84.6697 55.0534 83.0355 51.8535C81.4012 48.6536 80.5504 45.1349 80.5483 41.5684C80.5483 40.9317 80.5749 40.3018 80.628 39.6784H93.9055C94.5422 39.679 95.1691 39.5285 95.7311 39.2403C96.2931 38.9521 96.7729 38.535 97.1282 38.0258C97.4834 37.5166 97.7031 36.931 97.768 36.3206C97.8328 35.7102 97.7408 35.0938 97.5 34.5258H102.725C103.798 34.5254 104.86 34.7288 105.851 35.1242C106.843 35.5197 107.744 36.0995 108.502 36.8306C109.261 37.5616 109.863 38.4296 110.274 39.3849C110.684 40.3402 110.896 41.3642 110.896 42.3982Z" fill="#00ADEF"/>
<path d="M105.838 149.481C105.838 149.945 105.82 150.404 105.782 150.857H93.7341C92.6667 150.857 91.6098 150.65 90.6236 150.249C89.6375 149.847 88.7414 149.259 87.9867 148.517C87.2319 147.775 86.6332 146.895 86.2248 145.926C85.8164 144.956 85.6062 143.918 85.6063 142.869V132.037C88.1317 131.714 90.6981 131.924 93.1344 132.653C95.5708 133.381 97.8212 134.612 99.7356 136.263C101.65 137.913 103.184 139.946 104.237 142.225C105.289 144.505 105.835 146.978 105.838 149.481H105.838Z" fill="#00ADEF"/>
<path d="M103.391 92.5848L95.722 86.7378L89.8562 94.3827L97.5256 100.23L103.391 92.5848Z" fill="#F0F0F0"/>
<path d="M176.419 154.65H15.0247C14.9641 154.65 14.9059 154.584 14.863 154.465C14.8202 154.346 14.7961 154.186 14.7961 154.018C14.7961 153.85 14.8202 153.689 14.863 153.571C14.9059 153.452 14.9641 153.386 15.0247 153.386H176.419C176.48 153.386 176.538 153.452 176.581 153.571C176.624 153.689 176.648 153.85 176.648 154.018C176.648 154.186 176.624 154.346 176.581 154.465C176.538 154.584 176.48 154.65 176.419 154.65Z" fill="#3F3D56"/>
<path d="M104.762 115.452H87.9463C87.3259 115.451 86.7311 115.238 86.2924 114.858C85.8537 114.478 85.607 113.964 85.6063 113.427V112.419C85.607 111.882 85.8537 111.367 86.2924 110.988C86.7311 110.608 87.3259 110.394 87.9463 110.394H104.762C105.383 110.394 105.977 110.608 106.416 110.988C106.855 111.367 107.102 111.882 107.102 112.419V113.427C107.102 113.964 106.855 114.478 106.416 114.858C105.977 115.238 105.383 115.451 104.762 115.452Z" fill="#00ADEF"/>
<path d="M103.55 114.187H87.8938C87.2874 114.186 86.7059 113.917 86.277 113.438C85.8482 112.959 85.607 112.309 85.6063 111.632V110.42C85.607 109.743 85.8482 109.093 86.277 108.614C86.7059 108.135 87.2874 107.866 87.8938 107.865H103.55C104.157 107.866 104.738 108.135 105.167 108.614C105.596 109.093 105.837 109.743 105.838 110.42V111.632C105.837 112.309 105.596 112.959 105.167 113.438C104.738 113.917 104.157 114.186 103.55 114.187ZM87.8938 108.352C87.4029 108.352 86.9322 108.57 86.585 108.958C86.2378 109.346 86.0425 109.872 86.042 110.42V111.632C86.0425 112.18 86.2378 112.706 86.585 113.094C86.9322 113.482 87.4029 113.7 87.8938 113.7H103.55C104.041 113.7 104.512 113.482 104.859 113.094C105.206 112.706 105.401 112.18 105.402 111.632V110.42C105.401 109.872 105.206 109.346 104.859 108.958C104.512 108.57 104.041 108.352 103.55 108.352H87.8938Z" fill="#3F3D56"/>
<circle cx="5.61986" cy="5.61986" r="5.61986" transform="matrix(1 0 0 -1 60.5369 173.916)" fill="#011A51"/>
<circle cx="5.61986" cy="5.61986" r="5.61986" transform="matrix(1 0 0 -1 46.4628 103.546)" fill="white"/>
</svg>
