<svg width="38" height="36" viewBox="0 0 38 36" fill="none" xmlns="http://www.w3.org/2000/svg">
<path d="M7.49078 23.7875L23.3933 6.20694L35.88 6.21892L7.50221 35.6662L7.49078 23.7875Z" fill="#FFED4F"/>
<path d="M8.23033 26.674L10.9156 29.126L10.3971 29.6938L7.7119 27.2417L8.23033 26.674ZM10.6783 27.0477L11.8426 28.1109L11.3325 28.6694L9.3186 26.8304L9.80471 26.298L10.16 26.6225L10.1816 26.5989C10.1052 26.4474 10.0808 26.288 10.1084 26.1209C10.1351 25.9529 10.2167 25.7942 10.3532 25.6447C10.4809 25.5049 10.6228 25.4109 10.779 25.3627C10.9352 25.3146 11.0964 25.3136 11.2627 25.3596C11.4282 25.4049 11.5891 25.499 11.7456 25.6419L13.0279 26.8128L12.5179 27.3714L11.3352 26.2914C11.2128 26.178 11.0879 26.1217 10.9605 26.1224C10.8323 26.1224 10.7172 26.1783 10.615 26.2902C10.5463 26.3654 10.5019 26.4465 10.4815 26.5338C10.462 26.6201 10.4685 26.7078 10.501 26.7968C10.5334 26.8842 10.5925 26.9678 10.6783 27.0477ZM14.3002 25.4986C14.1118 25.7049 13.906 25.8424 13.6829 25.9112C13.4598 25.9783 13.2336 25.9802 13.0045 25.9169C12.7762 25.8526 12.5602 25.7276 12.3566 25.5416C12.1503 25.3532 12.0057 25.1482 11.9227 24.9266C11.8397 24.7033 11.8219 24.4779 11.8694 24.2503C11.916 24.022 12.0323 23.806 12.2183 23.6023C12.3787 23.4266 12.5511 23.3019 12.7355 23.2282C12.9198 23.1545 13.1048 23.1318 13.2904 23.1603C13.476 23.1887 13.6502 23.27 13.813 23.4043L13.3317 23.9313C13.2176 23.8544 13.1008 23.8199 12.9814 23.8278C12.8618 23.8341 12.7554 23.8884 12.662 23.9906C12.5829 24.0772 12.5375 24.1743 12.5256 24.2821C12.5137 24.3882 12.5359 24.4999 12.5924 24.6172C12.6488 24.7344 12.7404 24.8509 12.8671 24.9667C12.9956 25.084 13.1209 25.1663 13.2428 25.2135C13.3656 25.2599 13.4801 25.2723 13.5864 25.2507C13.6926 25.2292 13.7853 25.1751 13.8643 25.0886C13.9226 25.0248 13.9617 24.9555 13.9818 24.8809C14.0027 24.8054 14.0034 24.7282 13.9839 24.6495C13.9643 24.5692 13.9239 24.4914 13.8627 24.4162L14.344 23.8892C14.4899 24.0384 14.587 24.2041 14.6355 24.3862C14.6839 24.5667 14.681 24.7524 14.6269 24.9434C14.5727 25.1343 14.4638 25.3194 14.3002 25.4986ZM16.279 23.3316C16.093 23.5353 15.8889 23.6719 15.6667 23.7415C15.4444 23.8094 15.2187 23.8125 14.9897 23.7508C14.7598 23.6884 14.5417 23.5629 14.3354 23.3746C14.1274 23.1846 13.9823 22.9784 13.9001 22.7559C13.8171 22.5326 13.7998 22.3076 13.8481 22.0808C13.8964 21.8524 14.0135 21.6364 14.1995 21.4327C14.3855 21.229 14.5897 21.0932 14.812 21.0253C15.0342 20.9558 15.2603 20.9522 15.4901 21.0147C15.7192 21.0763 15.9377 21.2021 16.1457 21.3921C16.352 21.5805 16.4967 21.7863 16.5797 22.0096C16.6619 22.2321 16.6788 22.4576 16.6305 22.686C16.5822 22.9127 16.465 23.1279 16.279 23.3316ZM15.8487 22.9339C15.9333 22.8412 15.9777 22.7399 15.982 22.63C15.9853 22.5192 15.9555 22.4062 15.8924 22.2909C15.8302 22.1748 15.7405 22.0632 15.6234 21.9563C15.5062 21.8493 15.387 21.7701 15.2657 21.7186C15.1452 21.6663 15.0299 21.6468 14.9199 21.6602C14.81 21.6735 14.7127 21.7265 14.628 21.8192C14.5426 21.9127 14.4975 22.0157 14.4925 22.1282C14.4884 22.2399 14.5174 22.3537 14.5797 22.4699C14.6427 22.5852 14.7328 22.6963 14.8499 22.8033C14.967 22.9102 15.0859 22.9899 15.2064 23.0422C15.3277 23.0937 15.4437 23.1123 15.5545 23.098C15.6653 23.0821 15.7633 23.0274 15.8487 22.9339ZM17.4765 21.9413L15.4626 20.1022L15.9487 19.5699L16.304 19.8944L16.3255 19.8708C16.2459 19.721 16.2166 19.5661 16.2378 19.406C16.2591 19.2458 16.3319 19.0975 16.4564 18.9612C16.5826 18.8231 16.7244 18.737 16.8821 18.7031C17.0389 18.6683 17.1906 18.6882 17.3373 18.7628L17.3564 18.7419C17.2786 18.5954 17.2542 18.4369 17.2833 18.2663C17.3124 18.0941 17.3943 17.9341 17.5292 17.7864C17.7008 17.5985 17.9 17.5006 18.1267 17.4928C18.3533 17.4834 18.5759 17.5784 18.7945 17.778L20.1489 19.0148L19.64 19.572L18.3957 18.4358C18.2838 18.3336 18.1728 18.2867 18.0626 18.2951C17.9524 18.3034 17.8565 18.3522 17.7751 18.4413C17.6825 18.5427 17.6426 18.6514 17.6554 18.7673C17.6674 18.8823 17.7258 18.9878 17.8307 19.0836L19.0605 20.2066L18.566 20.7481L17.31 19.6011C17.2112 19.5109 17.1066 19.4675 16.9961 19.4708C16.8865 19.4733 16.7897 19.5204 16.7059 19.6122C16.6493 19.6743 16.6139 19.7446 16.5999 19.8231C16.5858 19.9 16.5935 19.9784 16.6231 20.0583C16.6518 20.1375 16.7034 20.211 16.7777 20.2788L17.9865 21.3827L17.4765 21.9413ZM21.307 19.2632L18.5378 16.7345L19.0407 16.1839L19.379 16.4928L19.4017 16.4678C19.3699 16.3939 19.3471 16.3082 19.3335 16.2108C19.3198 16.1117 19.3285 16.0074 19.3595 15.8979C19.3905 15.7867 19.4575 15.6748 19.5605 15.562C19.6945 15.4152 19.8567 15.3148 20.047 15.2609C20.2364 15.2063 20.4419 15.212 20.6636 15.2782C20.8844 15.3436 21.1102 15.4816 21.341 15.6924C21.5656 15.8975 21.7222 16.107 21.8106 16.3208C21.899 16.533 21.9263 16.7374 21.8925 16.9342C21.8586 17.1293 21.7719 17.3033 21.6322 17.4563C21.5332 17.5647 21.4311 17.6405 21.3258 17.6838C21.2213 17.7263 21.12 17.7468 21.0219 17.7454C20.923 17.7432 20.8339 17.7292 20.7548 17.7035L20.7393 17.7205L21.817 18.7047L21.307 19.2632ZM20.0441 17.1073C20.1638 17.2167 20.2834 17.2954 20.4029 17.3436C20.5224 17.3918 20.6358 17.4072 20.7431 17.3898C20.8495 17.3716 20.9438 17.3174 21.0261 17.2274C21.1091 17.1365 21.1544 17.0368 21.1621 16.9284C21.1688 16.8192 21.1424 16.7077 21.0828 16.5939C21.0231 16.4785 20.9347 16.3673 20.8175 16.2603C20.7013 16.1542 20.5842 16.0769 20.4664 16.0287C20.3486 15.9804 20.236 15.965 20.1288 15.9824C20.0215 15.9998 19.9259 16.0544 19.8421 16.1462C19.7591 16.2371 19.7129 16.336 19.7035 16.4428C19.6949 16.5488 19.7196 16.6587 19.7775 16.7725C19.8355 16.8864 19.9243 16.998 20.0441 17.1073ZM20.5102 13.2265L23.1954 15.6786L22.6854 16.2371L20.0001 13.7851L20.5102 13.2265ZM24.4814 14.3493C24.2923 14.5564 24.0875 14.6964 23.8671 14.7693C23.6466 14.8404 23.4223 14.8456 23.1941 14.7847C22.9651 14.7231 22.7444 14.5953 22.532 14.4013C22.3248 14.2121 22.1797 14.0059 22.0967 13.7826C22.0137 13.5593 21.9951 13.3348 22.041 13.109C22.0877 12.8823 22.2012 12.6702 22.3816 12.4726C22.5029 12.3398 22.6373 12.2356 22.7847 12.1602C22.932 12.0832 23.0872 12.0405 23.2502 12.0323C23.414 12.0232 23.5821 12.0533 23.7545 12.1225C23.926 12.191 24.0974 12.3034 24.2687 12.4599L24.4221 12.6L22.8692 14.3005L22.5231 13.9844L23.5959 12.8096C23.5155 12.7362 23.4283 12.6886 23.3343 12.6669C23.2403 12.6452 23.1475 12.6494 23.0558 12.6796C22.9641 12.708 22.8812 12.7629 22.8069 12.8442C22.7295 12.929 22.6805 13.0221 22.66 13.1236C22.6394 13.2234 22.6451 13.3216 22.6771 13.4182C22.7083 13.5139 22.7632 13.5986 22.842 13.6721L23.1711 13.9726C23.2707 14.0636 23.3736 14.1239 23.4797 14.1534C23.5865 14.1821 23.6908 14.1803 23.7924 14.148C23.894 14.1158 23.9875 14.0529 24.0729 13.9593C24.1295 13.8973 24.1727 13.8325 24.2023 13.765C24.2319 13.6974 24.246 13.6293 24.2446 13.5607C24.2431 13.492 24.2258 13.425 24.1927 13.3594L24.6985 12.874C24.7987 13.0135 24.858 13.1663 24.8764 13.3322C24.8948 13.4964 24.8714 13.6659 24.8065 13.8406C24.7414 14.0136 24.6331 14.1832 24.4814 14.3493ZM24.5833 10.1142L25.0029 10.4974L23.8954 11.7102L23.4758 11.327L24.5833 10.1142ZM23.2447 10.6111L23.7548 10.0525L25.6324 11.7671C25.6839 11.8142 25.7313 11.843 25.7745 11.8536C25.8169 11.8634 25.8565 11.8595 25.8934 11.8419C25.9311 11.8235 25.9671 11.7955 26.0014 11.7579C26.0254 11.7316 26.0471 11.7034 26.0667 11.6732C26.0854 11.6422 26.0999 11.6185 26.11 11.6021L26.6059 11.8938C26.5891 11.9298 26.5632 11.9783 26.5283 12.0394C26.4942 12.1012 26.4454 12.1696 26.3817 12.2446C26.264 12.384 26.1384 12.4856 26.0047 12.5495C25.8718 12.6125 25.7366 12.6325 25.5989 12.6094C25.4613 12.5863 25.3269 12.5141 25.1957 12.3927L23.2447 10.6111ZM27.7872 10.7292C27.598 10.9363 27.3932 11.0764 27.1728 11.1492C26.9523 11.2204 26.728 11.2255 26.4999 11.1647C26.2708 11.103 26.0501 10.9752 25.8377 10.7812C25.6306 10.592 25.4855 10.3858 25.4024 10.1625C25.3194 9.93922 25.3008 9.71467 25.3467 9.48888C25.3934 9.26221 25.507 9.0501 25.6873 8.85256C25.8087 8.71969 25.943 8.61556 26.0904 8.54017C26.2378 8.4631 26.3929 8.42045 26.5559 8.41221C26.7197 8.4031 26.8878 8.43318 27.0602 8.50244C27.2318 8.5709 27.4032 8.68336 27.5745 8.8398L27.7279 8.97989L26.175 10.6804L25.8289 10.3644L26.9016 9.18957C26.8212 9.11614 26.734 9.06856 26.64 9.04686C26.546 9.02515 26.4532 9.02936 26.3616 9.05949C26.2699 9.08795 26.1869 9.14283 26.1127 9.22412C26.0352 9.30891 25.9863 9.40204 25.9657 9.50352C25.9451 9.60332 25.9508 9.70151 25.9829 9.79809C26.014 9.89387 26.069 9.97851 26.1477 10.052L26.4768 10.3525C26.5765 10.4435 26.6793 10.5038 26.7854 10.5333C26.8923 10.562 26.9965 10.5602 27.0981 10.528C27.1997 10.4957 27.2932 10.4328 27.3786 10.3393C27.4353 10.2772 27.4784 10.2124 27.508 10.1449C27.5377 10.0773 27.5517 10.0092 27.5503 9.94061C27.5489 9.87197 27.5316 9.80489 27.4984 9.73936L28.0043 9.2539C28.1044 9.39347 28.1637 9.5462 28.1822 9.7121C28.2005 9.87633 28.1772 10.0458 28.1122 10.2205C28.0472 10.3936 27.9388 10.5631 27.7872 10.7292Z" fill="#00ADEF"/>
</svg>
