<svg width="103" height="57" viewBox="0 0 103 57" fill="none" xmlns="http://www.w3.org/2000/svg">
<path d="M1.44666 8.73474C1.44666 4.59261 4.80452 1.23474 8.94665 1.23474H94.8399C98.982 1.23474 102.34 4.59261 102.34 8.73474V48.7347C102.34 52.8769 98.982 56.2347 94.8399 56.2347H8.94665C4.80452 56.2347 1.44666 52.8769 1.44666 48.7347V8.73474Z" fill="white" stroke="#E8ECF4"/>
<path d="M42.8544 16.7347C42.1517 16.7347 41.4778 17.0139 40.981 17.5107C40.4841 18.0076 40.205 18.6814 40.205 19.3841C40.205 20.0867 40.4841 20.7606 40.981 21.2575C41.4778 21.7543 42.1517 22.0334 42.8544 22.0334C43.557 22.0334 44.2309 21.7543 44.7277 21.2575C45.2246 20.7606 45.5037 20.0867 45.5037 19.3841C45.5037 18.6814 45.2246 18.0076 44.7277 17.5107C44.2309 17.0139 43.557 16.7347 42.8544 16.7347ZM40.3609 24.2153C40.3195 24.2153 40.2799 24.2317 40.2507 24.2609C40.2214 24.2901 40.205 24.3298 40.205 24.3711V40.5789C40.205 40.6649 40.2748 40.7347 40.3609 40.7347H45.3479C45.3892 40.7347 45.4288 40.7183 45.4581 40.6891C45.4873 40.6599 45.5037 40.6202 45.5037 40.5789V24.3711C45.5037 24.3298 45.4873 24.2901 45.4581 24.2609C45.4288 24.2317 45.3892 24.2153 45.3479 24.2153H40.3609ZM48.4648 24.2153C48.4234 24.2153 48.3838 24.2317 48.3546 24.2609C48.3253 24.2901 48.3089 24.3298 48.3089 24.3711V40.5789C48.3089 40.6649 48.3787 40.7347 48.4648 40.7347H53.4518C53.4931 40.7347 53.5327 40.7183 53.562 40.6891C53.5912 40.6599 53.6076 40.6202 53.6076 40.5789V31.8516C53.6076 31.2316 53.8539 30.637 54.2923 30.1986C54.7307 29.7603 55.3253 29.514 55.9453 29.514C56.5653 29.514 57.1599 29.7603 57.5983 30.1986C58.0366 30.637 58.2829 31.2316 58.2829 31.8516V40.5789C58.2829 40.6649 58.3528 40.7347 58.4388 40.7347H63.4258C63.4671 40.7347 63.5068 40.7183 63.536 40.6891C63.5652 40.6599 63.5816 40.6202 63.5816 40.5789V29.8319C63.5816 26.806 60.951 24.4397 57.9401 24.7127C57.0085 24.7975 56.096 25.0281 55.2359 25.3959L53.6076 26.0941V24.3711C53.6076 24.3298 53.5912 24.2901 53.562 24.2609C53.5327 24.2317 53.4931 24.2153 53.4518 24.2153H48.4648Z" fill="#002299"/>
</svg>
