<svg width="40" height="39" viewBox="0 0 40 39" fill="none" xmlns="http://www.w3.org/2000/svg">
<g clip-path="url(#clip0_900_3241)">
<rect width="40" height="39" rx="19.5" fill="white"/>
<rect width="40" height="40" rx="20" fill="#7BDAFF" fill-opacity="0.1"/>
<path d="M25.25 11.5834C25.6699 11.5834 26.0726 11.7502 26.3696 12.0471C26.6665 12.3441 26.8333 12.7468 26.8333 13.1667V22.339C26.8332 22.7588 26.6664 23.1615 26.3694 23.4584L22.875 26.9528C22.5781 27.2497 22.1755 27.4166 21.7556 27.4167H15.75C15.3301 27.4167 14.9273 27.2499 14.6304 26.953C14.3335 26.656 14.1667 26.2533 14.1667 25.8334V13.1667C14.1667 12.7468 14.3335 12.3441 14.6304 12.0471C14.9273 11.7502 15.3301 11.5834 15.75 11.5834H25.25ZM25.25 13.1667H15.75V25.8334H20.5V22.2709C20.5 21.9559 20.6251 21.6539 20.8478 21.4312C21.0705 21.2085 21.3725 21.0834 21.6875 21.0834H25.25V13.1667ZM24.9222 22.6667H22.0833V25.5056L24.9222 22.6667ZM18.9167 18.7084C19.1266 18.7084 19.328 18.7918 19.4764 18.9402C19.6249 19.0887 19.7083 19.2901 19.7083 19.5C19.7083 19.71 19.6249 19.9114 19.4764 20.0598C19.328 20.2083 19.1266 20.2917 18.9167 20.2917H18.125C17.915 20.2917 17.7137 20.2083 17.5652 20.0598C17.4167 19.9114 17.3333 19.71 17.3333 19.5C17.3333 19.2901 17.4167 19.0887 17.5652 18.9402C17.7137 18.7918 17.915 18.7084 18.125 18.7084H18.9167ZM22.875 15.5417C23.085 15.5417 23.2863 15.6251 23.4348 15.7736C23.5832 15.922 23.6667 16.1234 23.6667 16.3334C23.6667 16.5433 23.5832 16.7447 23.4348 16.8932C23.2863 17.0416 23.085 17.125 22.875 17.125H18.125C17.915 17.125 17.7137 17.0416 17.5652 16.8932C17.4167 16.7447 17.3333 16.5433 17.3333 16.3334C17.3333 16.1234 17.4167 15.922 17.5652 15.7736C17.7137 15.6251 17.915 15.5417 18.125 15.5417H22.875Z" fill="#0085D6"/>
</g>
<defs>
<clipPath id="clip0_900_3241">
<rect width="40" height="39" rx="19.5" fill="white"/>
</clipPath>
</defs>
</svg>
