<svg width="21" height="12" viewBox="0 0 21 12" fill="none" xmlns="http://www.w3.org/2000/svg">
<path d="M1.82021 7.88505C2.71148 4.15698 6.43734 1.50806 10.6284 1.50806C14.8182 1.50806 18.5441 4.15698 19.4367 7.88505C19.472 8.03299 19.5734 8.16263 19.7185 8.24546C19.8636 8.32829 20.0405 8.35753 20.2103 8.32673C20.3801 8.29594 20.529 8.20764 20.6241 8.08126C20.7192 7.95488 20.7527 7.80077 20.7174 7.65283C19.7019 3.41251 15.4547 0.36972 10.6284 0.36972C5.8022 0.36972 1.55491 3.41251 0.539486 7.65283C0.504133 7.80077 0.537694 7.95488 0.632787 8.08126C0.727879 8.20764 0.876713 8.29594 1.04655 8.32673C1.21638 8.35753 1.3933 8.32829 1.53839 8.24546C1.68348 8.16263 1.78485 8.03299 1.82021 7.88505ZM10.6154 3.78475C11.8285 3.78475 12.9919 4.20451 13.8497 4.95169C14.7075 5.69887 15.1894 6.71227 15.1894 7.76894C15.1894 8.82562 14.7075 9.83901 13.8497 10.5862C12.9919 11.3334 11.8285 11.7531 10.6154 11.7531C9.40226 11.7531 8.23884 11.3334 7.38105 10.5862C6.52326 9.83901 6.04136 8.82562 6.04136 7.76894C6.04136 6.71227 6.52326 5.69887 7.38105 4.95169C8.23884 4.20451 9.40226 3.78475 10.6154 3.78475Z" fill="#6A707C"/>
</svg>
