<svg width="14" height="14" viewBox="0 0 14 14" fill="none" xmlns="http://www.w3.org/2000/svg">
<path d="M7.62927 9.27008C7.62927 10.2288 7.21219 11.0955 6.54594 11.6859C5.97177 12.2059 5.21344 12.5201 4.37927 12.5201C2.58636 12.5201 1.12927 11.063 1.12927 9.27008C1.12927 8.26767 1.5881 7.36971 2.30455 6.77433C2.5379 6.5804 2.87461 6.70126 3.02604 6.96418C3.55745 7.88682 4.43941 8.57266 5.47344 8.853C5.81469 8.9505 6.17219 8.99925 6.54594 8.99925C6.77038 8.99925 6.98678 8.98115 7.19758 8.9474C7.41415 8.91272 7.62927 9.05075 7.62927 9.27008Z" fill="url(#paint0_linear_270_579)"/>
<path d="M9.7959 4.93677C9.7959 5.35927 9.71465 5.76552 9.5684 6.13385C9.19465 7.07635 8.39298 7.80218 7.40173 8.07302C7.1309 8.14885 6.84382 8.18677 6.5459 8.18677C6.24798 8.18677 5.9609 8.14885 5.69007 8.07302C4.69882 7.80218 3.89715 7.07635 3.5234 6.13385C3.37715 5.76552 3.2959 5.35927 3.2959 4.93677C3.2959 3.14385 4.75298 1.68677 6.5459 1.68677C8.33882 1.68677 9.7959 3.14385 9.7959 4.93677Z" fill="url(#paint1_linear_270_579)"/>
<path d="M11.9626 9.27008C11.9626 11.063 10.5055 12.5201 8.71261 12.5201C8.42056 12.5201 8.13655 12.4815 7.8667 12.4088C7.53752 12.3201 7.47645 11.911 7.67692 11.6353C8.17107 10.9556 8.44177 10.1295 8.44177 9.27008C8.44177 9.08591 8.42552 8.90175 8.39844 8.72841C8.38232 8.6285 8.43331 8.53028 8.52186 8.48126C9.16281 8.12643 9.6987 7.60284 10.0659 6.96499C10.2174 6.70182 10.5544 6.58065 10.7879 6.77478C11.504 7.37017 11.9626 8.26793 11.9626 9.27008Z" fill="url(#paint2_linear_270_579)"/>
<defs>
<linearGradient id="paint0_linear_270_579" x1="1.12927" y1="12.5201" x2="8.70208" y2="9.69484" gradientUnits="userSpaceOnUse">
<stop offset="0.00397914" stop-color="#00ADEF"/>
<stop offset="1" stop-color="#002299"/>
</linearGradient>
<linearGradient id="paint1_linear_270_579" x1="3.2959" y1="8.18677" x2="10.9884" y2="5.50581" gradientUnits="userSpaceOnUse">
<stop offset="0.00397914" stop-color="#00ADEF"/>
<stop offset="1" stop-color="#002299"/>
</linearGradient>
<linearGradient id="paint2_linear_270_579" x1="7.22302" y1="12.5201" x2="13.08" y2="10.9268" gradientUnits="userSpaceOnUse">
<stop offset="0.00397914" stop-color="#00ADEF"/>
<stop offset="1" stop-color="#002299"/>
</linearGradient>
</defs>
</svg>
