<svg width="48" height="48" viewBox="0 0 48 48" fill="none" xmlns="http://www.w3.org/2000/svg">
<rect width="48" height="48" rx="24" fill="white"/>
<rect x="4" y="4" width="40" height="40" rx="20" fill="#7BDAFF" fill-opacity="0.1"/>
<path d="M26 28C26 29.77 25.23 31.37 24 32.46C22.94 33.42 21.54 34 20 34C16.69 34 14 31.31 14 28C14 25.9753 15.014 24.1814 16.5554 23.0974C16.8036 22.9228 17.1393 23.0422 17.2732 23.3145C18.2171 25.2332 19.9542 26.67 22.02 27.23C22.65 27.41 23.31 27.5 24 27.5C24.4872 27.5 24.9539 27.4538 25.4074 27.3688C25.6958 27.3147 25.9828 27.4995 25.9955 27.7926C25.9985 27.8621 26 27.9314 26 28Z" fill="url(#paint0_linear_222_1528)"/>
<path d="M30 20C30 20.78 29.85 21.53 29.58 22.21C28.89 23.95 27.41 25.29 25.58 25.79C25.08 25.93 24.55 26 24 26C23.45 26 22.92 25.93 22.42 25.79C20.59 25.29 19.11 23.95 18.42 22.21C18.15 21.53 18 20.78 18 20C18 16.69 20.69 14 24 14C27.31 14 30 16.69 30 20Z" fill="url(#paint1_linear_222_1528)"/>
<path d="M34 28C34 31.31 31.31 34 28 34C27.2555 34 26.5393 33.8643 25.8811 33.6141C25.5624 33.493 25.503 33.0851 25.7248 32.8263C26.8668 31.4938 27.5 29.786 27.5 28C27.5 27.66 27.47 27.32 27.42 27C27.3902 26.8156 27.4844 26.6342 27.6478 26.5438C28.9719 25.8107 30.0532 24.6876 30.727 23.3153C30.8609 23.0428 31.1968 22.9231 31.4452 23.0978C32.9863 24.1819 34 25.9756 34 28Z" fill="url(#paint2_linear_222_1528)"/>
<defs>
<linearGradient id="paint0_linear_222_1528" x1="14" y1="34" x2="27.9806" y2="28.7842" gradientUnits="userSpaceOnUse">
<stop offset="0.00397914" stop-color="#00ADEF"/>
<stop offset="1" stop-color="#002299"/>
</linearGradient>
<linearGradient id="paint1_linear_222_1528" x1="18" y1="26" x2="32.2015" y2="21.0505" gradientUnits="userSpaceOnUse">
<stop offset="0.00397914" stop-color="#00ADEF"/>
<stop offset="1" stop-color="#002299"/>
</linearGradient>
<linearGradient id="paint2_linear_222_1528" x1="25.25" y1="34" x2="36.0629" y2="31.0586" gradientUnits="userSpaceOnUse">
<stop offset="0.00397914" stop-color="#00ADEF"/>
<stop offset="1" stop-color="#002299"/>
</linearGradient>
</defs>
</svg>
