<svg width="13" height="13" viewBox="0 0 13 13" fill="none" xmlns="http://www.w3.org/2000/svg">
<g clip-path="url(#clip0_90_3644)">
<path d="M6 1.87866H5C2.5 1.87866 1.5 2.87866 1.5 5.37866V8.37866C1.5 10.8787 2.5 11.8787 5 11.8787H8C10.5 11.8787 11.5 10.8787 11.5 8.37866V7.37866" stroke="#1E1E1E" stroke-linecap="round" stroke-linejoin="round"/>
<path d="M8.51994 2.38867L4.57994 6.32867C4.42994 6.47867 4.27994 6.77367 4.24994 6.98867L4.03494 8.49367C3.95494 9.03867 4.33994 9.41867 4.88494 9.34367L6.38994 9.12867C6.59994 9.09867 6.89494 8.94867 7.04994 8.79867L10.9899 4.85867C11.6699 4.17867 11.9899 3.38867 10.9899 2.38867C9.98994 1.38867 9.19994 1.70867 8.51994 2.38867Z" stroke="#1E1E1E" stroke-miterlimit="10" stroke-linecap="round" stroke-linejoin="round"/>
<path d="M7.95508 2.95367C8.29008 4.14867 9.22508 5.08367 10.4251 5.42367" stroke="#1E1E1E" stroke-miterlimit="10" stroke-linecap="round" stroke-linejoin="round"/>
</g>
<defs>
<clipPath id="clip0_90_3644">
<rect width="12" height="12" fill="white" transform="translate(0.5 0.878662)"/>
</clipPath>
</defs>
</svg>
