<svg width="49" height="48" viewBox="0 0 49 48" fill="none" xmlns="http://www.w3.org/2000/svg">
<rect x="0.5" width="48" height="48" rx="24" fill="white"/>
<rect x="4.5" y="4" width="40" height="40" rx="20" fill="#7BDAFF" fill-opacity="0.1"/>
<path d="M29.5 14.4301H19.5C16.5 14.4301 14.5 16.4301 14.5 19.4301V25.4301C14.5 28.4301 16.5 30.4301 19.5 30.4301V32.5601C19.5 33.3601 20.39 33.8401 21.05 33.3901L25.5 30.4301H29.5C32.5 30.4301 34.5 28.4301 34.5 25.4301V19.4301C34.5 16.4301 32.5 14.4301 29.5 14.4301ZM24.5 26.6001C24.08 26.6001 23.75 26.2601 23.75 25.8501C23.75 25.4401 24.08 25.1001 24.5 25.1001C24.92 25.1001 25.25 25.4401 25.25 25.8501C25.25 26.2601 24.92 26.6001 24.5 26.6001ZM25.76 22.4501C25.37 22.7101 25.25 22.8801 25.25 23.1601V23.3701C25.25 23.7801 24.91 24.1201 24.5 24.1201C24.09 24.1201 23.75 23.7801 23.75 23.3701V23.1601C23.75 22.0001 24.6 21.4301 24.92 21.2101C25.29 20.9601 25.41 20.7901 25.41 20.5301C25.41 20.0301 25 19.6201 24.5 19.6201C24 19.6201 23.59 20.0301 23.59 20.5301C23.59 20.9401 23.25 21.2801 22.84 21.2801C22.43 21.2801 22.09 20.9401 22.09 20.5301C22.09 19.2001 23.17 18.1201 24.5 18.1201C25.83 18.1201 26.91 19.2001 26.91 20.5301C26.91 21.6701 26.07 22.2401 25.76 22.4501Z" fill="url(#paint0_linear_222_1507)"/>
<defs>
<linearGradient id="paint0_linear_222_1507" x1="14.5" y1="33.5632" x2="37.934" y2="25.0261" gradientUnits="userSpaceOnUse">
<stop offset="0.00397914" stop-color="#00ADEF"/>
<stop offset="1" stop-color="#002299"/>
</linearGradient>
</defs>
</svg>
