<svg width="14" height="14" viewBox="0 0 14 14" fill="none" xmlns="http://www.w3.org/2000/svg">
<path d="M9.25427 1.91968H3.83761C2.21261 1.91968 1.12927 3.00301 1.12927 4.62801V7.87801C1.12927 9.50301 2.21261 10.5863 3.83761 10.5863V11.7401C3.83761 12.1734 4.31969 12.4334 4.67719 12.1897L7.08761 10.5863H9.25427C10.8793 10.5863 11.9626 9.50301 11.9626 7.87801V4.62801C11.9626 3.00301 10.8793 1.91968 9.25427 1.91968ZM6.54594 8.51176C6.31844 8.51176 6.13969 8.32759 6.13969 8.10551C6.13969 7.88343 6.31844 7.69926 6.54594 7.69926C6.77344 7.69926 6.95219 7.88343 6.95219 8.10551C6.95219 8.32759 6.77344 8.51176 6.54594 8.51176ZM7.22844 6.26384C7.01719 6.40468 6.95219 6.49676 6.95219 6.64843V6.76218C6.95219 6.98426 6.76802 7.16843 6.54594 7.16843C6.32386 7.16843 6.13969 6.98426 6.13969 6.76218V6.64843C6.13969 6.02009 6.60011 5.71134 6.77344 5.59218C6.97386 5.45676 7.03886 5.36468 7.03886 5.22384C7.03886 4.95301 6.81677 4.73093 6.54594 4.73093C6.27511 4.73093 6.05302 4.95301 6.05302 5.22384C6.05302 5.44593 5.86886 5.63009 5.64677 5.63009C5.42469 5.63009 5.24052 5.44593 5.24052 5.22384C5.24052 4.50343 5.82552 3.91843 6.54594 3.91843C7.26636 3.91843 7.85136 4.50343 7.85136 5.22384C7.85136 5.84134 7.39636 6.15009 7.22844 6.26384Z" fill="url(#paint0_linear_270_569)"/>
<defs>
<linearGradient id="paint0_linear_270_569" x1="1.12927" y1="12.2835" x2="13.8227" y2="7.65919" gradientUnits="userSpaceOnUse">
<stop offset="0.00397914" stop-color="#00ADEF"/>
<stop offset="1" stop-color="#002299"/>
</linearGradient>
</defs>
</svg>
