<svg width="43" height="43" viewBox="0 0 43 43" fill="none" xmlns="http://www.w3.org/2000/svg">
<path d="M21.2366 4.30847C11.5941 4.30847 3.73657 12.166 3.73657 21.8085C3.73657 31.451 11.5941 39.3085 21.2366 39.3085C30.8791 39.3085 38.7366 31.451 38.7366 21.8085C38.7366 12.166 30.8791 4.30847 21.2366 4.30847ZM29.6016 17.7835L19.6791 27.706C19.4341 27.951 19.1016 28.091 18.7516 28.091C18.4016 28.091 18.0691 27.951 17.8241 27.706L12.8716 22.7535C12.3641 22.246 12.3641 21.406 12.8716 20.8985C13.3791 20.391 14.2191 20.391 14.7266 20.8985L18.7516 24.9235L27.7466 15.9285C28.2541 15.421 29.0941 15.421 29.6016 15.9285C30.1091 16.436 30.1091 17.2585 29.6016 17.7835Z" fill="white"/>
</svg>
