<svg width="121" height="114" viewBox="0 0 121 114" fill="none" xmlns="http://www.w3.org/2000/svg">
<circle cx="59.8023" cy="64.8837" r="46.7442" fill="url(#paint0_linear_1_794)"/>
<circle cx="115.965" cy="22.6744" r="4.53488" fill="url(#paint1_linear_1_794)"/>
<ellipse cx="7.82558" cy="6.97674" rx="7.32558" ry="6.97674" fill="url(#paint2_linear_1_794)"/>
<ellipse cx="3.98837" cy="95.2326" rx="3.48837" ry="3.83721" fill="url(#paint3_linear_1_794)"/>
<ellipse cx="107.593" cy="111.628" rx="1.74419" ry="1.39535" fill="url(#paint4_linear_1_794)"/>
<path d="M56.3297 77.5241C55.3383 77.5241 54.3471 77.0992 53.7806 76.2496L45.8502 66.0532C44.7172 64.6371 45.0005 62.6545 46.4167 61.5216C47.8328 60.3886 49.8154 60.6719 50.9483 62.088L56.3297 69.0272L68.2254 53.5911C69.3584 52.175 71.341 51.8917 72.7571 53.0246C74.1733 54.1576 74.4565 56.1402 73.3236 57.5563L58.8788 76.2496C58.1707 76.9576 57.321 77.5241 56.3297 77.5241Z" fill="white"/>
<circle cx="79.6861" cy="72.2093" r="1.74419" fill="white"/>
<circle cx="33.9883" cy="53.0233" r="2.7907" fill="white"/>
<circle cx="74.8024" cy="38.0233" r="1.04651" fill="white"/>
<circle cx="45.8488" cy="87.2093" r="1.39535" fill="white"/>
<circle cx="61.1977" cy="53.7209" r="0.697674" fill="white"/>
<defs>
<linearGradient id="paint0_linear_1_794" x1="13.0581" y1="12.399" x2="120.982" y2="29.1202" gradientUnits="userSpaceOnUse">
<stop stop-color="#5359E8"/>
<stop offset="1" stop-color="#15AABE"/>
</linearGradient>
<linearGradient id="paint1_linear_1_794" x1="111.43" y1="17.5826" x2="121.9" y2="19.2048" gradientUnits="userSpaceOnUse">
<stop stop-color="#53E88B"/>
<stop offset="1" stop-color="#15BE77"/>
</linearGradient>
<linearGradient id="paint2_linear_1_794" x1="0.5" y1="-0.856793" x2="17.3728" y2="1.88812" gradientUnits="userSpaceOnUse">
<stop stop-color="#53E88B"/>
<stop offset="1" stop-color="#15BE77"/>
</linearGradient>
<linearGradient id="paint3_linear_1_794" x1="0.5" y1="90.9241" x2="8.58689" y2="92.0632" gradientUnits="userSpaceOnUse">
<stop stop-color="#53E88B"/>
<stop offset="1" stop-color="#15BE77"/>
</linearGradient>
<linearGradient id="paint4_linear_1_794" x1="105.849" y1="110.061" x2="109.823" y2="110.831" gradientUnits="userSpaceOnUse">
<stop stop-color="#53E88B"/>
<stop offset="1" stop-color="#15BE77"/>
</linearGradient>
</defs>
</svg>
