<svg width="34" height="26" viewBox="0 0 34 26" fill="none" xmlns="http://www.w3.org/2000/svg">
<path d="M26.7536 4.1045C26.552 3.91576 26.3071 3.79438 26.047 3.75419C25.7868 3.71401 25.5218 3.75665 25.2822 3.87724L20.824 6.10039L18.2337 0.863639C18.1099 0.619149 17.9305 0.415826 17.7138 0.274378C17.4971 0.13293 17.2509 0.0584106 17.0002 0.0584106C16.7495 0.0584106 16.5032 0.13293 16.2866 0.274378C16.0699 0.415826 15.8905 0.619149 15.7667 0.863639L13.1764 6.10039L8.71816 3.87724C8.47807 3.75683 8.21274 3.71413 7.95215 3.75398C7.69156 3.79383 7.4461 3.91464 7.24353 4.10275C7.04096 4.29086 6.88936 4.53877 6.80585 4.81845C6.72235 5.09813 6.71028 5.39843 6.771 5.68541L9.00891 16.3862C9.0517 16.5933 9.13155 16.7886 9.24362 16.9601C9.3557 17.1317 9.49765 17.2759 9.6609 17.3841C9.88191 17.5325 10.1346 17.611 10.3922 17.6114C10.5174 17.6111 10.642 17.5912 10.7622 17.5521C14.8414 16.2873 19.1501 16.2873 23.2293 17.5521C23.6018 17.6619 23.9979 17.6015 24.3307 17.3841C24.4949 17.2773 24.6376 17.1335 24.7499 16.9617C24.8621 16.79 24.9413 16.594 24.9827 16.3862L27.2294 5.68541C27.2894 5.39836 27.2767 5.09819 27.1926 4.81883C27.1085 4.53947 26.9565 4.29204 26.7536 4.1045Z" fill="#FFAA00"/>
<circle cx="17" cy="8.8349" r="4" fill="#FFAA00"/>
<circle cx="17" cy="22.8349" r="3" fill="#BE9502"/>
<circle cx="31.5" cy="15.3349" r="2.5" fill="#FFAA00"/>
<circle cx="2.5" cy="15.3349" r="2.5" fill="#FFAA00"/>
<circle cx="9.5" cy="24.3349" r="1.5" fill="#BE9502"/>
<circle cx="24.5" cy="24.3349" r="1.5" fill="#BE9502"/>
</svg>
