<svg width="102" height="102" viewBox="0 0 102 102" fill="none" xmlns="http://www.w3.org/2000/svg">
<g filter="url(#filter0_d_111_910)">
<rect x="8" y="8" width="78" height="78" rx="20" fill="white"/>
</g>
<path d="M69.5 40.25V53.75C69.5 59.375 68.375 63.3125 65.855 65.855L51.5 51.5L68.8925 34.1075C69.2975 35.885 69.5 37.91 69.5 40.25Z" stroke="#00ADEF" stroke-width="3" stroke-linecap="round" stroke-linejoin="round"/>
<path d="M68.8925 34.1075L34.1075 68.8925C27.335 67.34 24.5 62.66 24.5 53.75V40.25C24.5 29 29 24.5 40.25 24.5H53.75C62.66 24.5 67.34 27.335 68.8925 34.1075Z" stroke="#00ADEF" stroke-width="3" stroke-linecap="round" stroke-linejoin="round"/>
<path d="M65.855 65.855C63.3125 68.375 59.3749 69.5 53.7499 69.5H40.2499C37.9099 69.5 35.8849 69.2975 34.1074 68.8925L51.4999 51.5L65.855 65.855Z" stroke="#00ADEF" stroke-width="3" stroke-linecap="round" stroke-linejoin="round"/>
<path d="M34.04 37.955C35.57 31.3625 45.47 31.3625 47 37.955C47.8775 41.825 45.4475 45.11 43.31 47.135C41.7575 48.62 39.305 48.62 37.73 47.135C35.5925 45.11 33.14 41.825 34.04 37.955Z" stroke="#00ADEF" stroke-width="3"/>
<path d="M40.4629 39.5751H40.4831" stroke="#00ADEF" stroke-width="3" stroke-linecap="round" stroke-linejoin="round"/>
<defs>
<filter id="filter0_d_111_910" x="0" y="0" width="102" height="102" filterUnits="userSpaceOnUse" color-interpolation-filters="sRGB">
<feFlood flood-opacity="0" result="BackgroundImageFix"/>
<feColorMatrix in="SourceAlpha" type="matrix" values="0 0 0 0 0 0 0 0 0 0 0 0 0 0 0 0 0 0 127 0" result="hardAlpha"/>
<feOffset dx="4" dy="4"/>
<feGaussianBlur stdDeviation="6"/>
<feComposite in2="hardAlpha" operator="out"/>
<feColorMatrix type="matrix" values="0 0 0 0 0 0 0 0 0 0 0 0 0 0 0 0 0 0 0.1 0"/>
<feBlend mode="normal" in2="BackgroundImageFix" result="effect1_dropShadow_111_910"/>
<feBlend mode="normal" in="SourceGraphic" in2="effect1_dropShadow_111_910" result="shape"/>
</filter>
</defs>
</svg>
