<svg width="222" height="221" viewBox="0 0 222 221" fill="none" xmlns="http://www.w3.org/2000/svg">
<g clip-path="url(#clip0_611_1638)">
<path fill-rule="evenodd" clip-rule="evenodd" d="M165.387 221H3.95312C2.22656 221 0.931641 219.705 0.931641 217.979V3.02148C0.931641 1.29492 2.22656 0 3.95312 0H165.387C167.113 0 168.408 1.29492 168.408 3.02148V109.637C197.76 110.932 221.068 135.535 221.068 165.318C221.068 195.965 196.033 221 165.387 221ZM180.062 97.9824C178.336 97.9824 177.041 96.6875 177.041 94.9609V15.5391C177.041 13.8125 178.336 12.5176 180.062 12.5176C181.789 12.5176 183.084 13.8125 183.084 15.5391V94.9609C183.084 96.6875 181.789 97.9824 180.062 97.9824ZM140.783 143.736C139.92 143.736 139.488 143.305 138.625 142.873L133.445 137.693C132.582 136.398 132.582 134.672 133.445 133.377C134.74 132.082 136.898 132.082 137.762 133.377L142.941 138.557C145.1 140.283 143.373 143.736 140.783 143.736ZM130.855 168.34H123.518C121.791 168.34 120.496 167.045 120.496 165.318C120.496 163.592 121.791 162.297 123.518 162.297H130.855C132.582 162.297 133.877 163.592 133.877 165.318C133.877 167.045 132.582 168.34 130.855 168.34ZM135.604 197.691C133.014 197.691 131.719 194.67 133.877 192.943L138.625 187.764C139.92 186.469 142.078 186.469 142.941 187.764C144.236 188.627 144.236 190.785 142.941 192.08L137.762 196.828C137.33 197.691 136.467 197.691 135.604 197.691ZM165.387 210.209C163.66 210.209 162.365 208.914 162.365 207.188V199.85C162.365 198.123 163.66 196.828 165.387 196.828C167.113 196.828 168.408 198.123 168.408 199.85V207.188C168.408 208.914 167.113 210.209 165.387 210.209ZM195.17 197.691C194.307 197.691 193.443 197.691 193.012 196.828L187.832 192.08C186.537 190.785 186.537 188.627 187.832 187.764C189.127 186.469 190.854 186.469 192.148 187.764L197.328 192.943C199.055 194.67 197.76 197.691 195.17 197.691ZM207.256 168.34H200.35C198.623 168.34 197.328 167.045 197.328 165.318C197.328 163.592 198.623 162.297 200.35 162.297H207.256C208.982 162.297 210.277 163.592 210.277 165.318C210.277 167.045 208.982 168.34 207.256 168.34ZM189.99 143.736C187.4 143.736 186.105 140.283 187.832 138.557L193.012 133.377C194.307 132.082 196.033 132.082 197.328 133.377C198.623 134.672 198.623 136.398 197.328 137.693L192.148 142.873C191.717 143.305 190.854 143.736 189.99 143.736ZM140.352 214.957C122.223 205.893 109.705 186.9 109.705 165.318C109.705 135.535 133.014 110.932 162.365 109.637V6.04297H6.97461V214.957H140.352ZM180.494 176.973C180.062 176.973 179.631 176.973 179.199 176.541L164.092 167.908C163.229 167.477 162.797 167.045 162.797 166.182L154.164 144.168C153.301 142.441 154.164 140.715 155.891 140.283C157.186 139.42 158.912 140.283 159.775 142.01L167.977 163.16L182.221 171.361C184.811 173.088 183.947 176.973 180.494 176.973ZM145.963 85.4648H101.072C99.7773 85.4648 98.0508 84.1699 98.0508 82.4434V26.7617C98.0508 25.0352 99.7773 23.7402 101.072 23.7402H145.963C147.689 23.7402 148.984 25.0352 148.984 26.7617V82.4434C148.984 84.1699 147.689 85.4648 145.963 85.4648ZM104.094 79.4219H142.941V29.7832H104.094V79.4219ZM84.6699 29.7832H22.9453C21.2188 29.7832 19.9238 28.4883 19.9238 26.7617C19.9238 25.0352 21.2188 23.7402 22.9453 23.7402H84.6699C86.3965 23.7402 87.6914 25.0352 87.6914 26.7617C87.6914 28.4883 86.3965 29.7832 84.6699 29.7832ZM84.6699 57.8398H22.9453C21.2188 57.8398 19.9238 56.5449 19.9238 54.8184C19.9238 53.0918 21.2188 51.7969 22.9453 51.7969H84.6699C86.3965 51.7969 87.6914 53.0918 87.6914 54.8184C87.6914 56.5449 86.3965 57.8398 84.6699 57.8398ZM84.6699 85.4648H22.9453C21.2188 85.4648 19.9238 84.1699 19.9238 82.4434C19.9238 80.7168 21.2188 79.4219 22.9453 79.4219H84.6699C86.3965 79.4219 87.6914 80.7168 87.6914 82.4434C87.6914 84.1699 86.3965 85.4648 84.6699 85.4648ZM125.244 113.521H22.9453C21.2188 113.521 19.9238 112.227 19.9238 110.5C19.9238 108.773 21.2188 107.479 22.9453 107.479H125.244C126.971 107.479 128.266 108.773 128.266 110.5C128.266 112.227 126.971 113.521 125.244 113.521ZM100.641 141.578H22.9453C21.2188 141.578 19.9238 140.283 19.9238 138.557C19.9238 136.83 21.2188 135.535 22.9453 135.535H100.641C102.367 135.535 103.662 136.83 103.662 138.557C103.662 140.283 102.367 141.578 100.641 141.578ZM95.8926 169.203H22.9453C21.2188 169.203 19.9238 167.908 19.9238 166.182C19.9238 164.455 21.2188 163.16 22.9453 163.16H95.8926C97.6191 163.16 98.9141 164.455 98.9141 166.182C98.9141 167.908 97.6191 169.203 95.8926 169.203ZM100.209 197.26H22.9453C21.2188 197.26 19.9238 195.965 19.9238 194.238C19.9238 192.512 21.2188 191.217 22.9453 191.217H100.209C101.936 191.217 103.23 192.512 103.23 194.238C103.23 195.965 101.936 197.26 100.209 197.26ZM165.387 133.377C163.66 133.377 162.365 132.082 162.365 130.355V123.018C162.365 121.723 163.66 119.996 165.387 119.996C167.113 119.996 168.408 121.723 168.408 123.018V130.355C168.408 132.082 167.113 133.377 165.387 133.377ZM165.387 115.248C138.193 115.248 115.748 137.693 115.748 165.318C115.748 192.512 138.193 214.957 165.387 214.957C193.012 214.957 215.025 192.512 215.025 165.318C215.025 137.693 193.012 115.248 165.387 115.248Z" fill="#3E3E3E"/>
<path fill-rule="evenodd" clip-rule="evenodd" d="M162.365 123.018C162.365 121.723 163.66 119.996 165.387 119.996C167.113 119.996 168.408 121.723 168.408 123.018V130.355C168.408 132.082 167.113 133.377 165.387 133.377C163.66 133.377 162.365 132.082 162.365 130.355V123.018ZM215.025 165.318C215.025 137.693 193.012 115.248 165.387 115.248C138.193 115.248 115.748 137.693 115.748 165.318C115.748 192.512 138.193 214.957 165.387 214.957C193.012 214.957 215.025 192.512 215.025 165.318ZM142.941 138.557C145.1 140.283 143.373 143.736 140.783 143.736C139.92 143.736 139.488 143.305 138.625 142.873L133.445 137.693C132.582 136.398 132.582 134.672 133.445 133.377C134.74 132.082 136.898 132.082 137.762 133.377L142.941 138.557ZM130.855 162.297C132.582 162.297 133.877 163.592 133.877 165.318C133.877 167.045 132.582 168.34 130.855 168.34H123.518C121.791 168.34 120.496 167.045 120.496 165.318C120.496 163.592 121.791 162.297 123.518 162.297H130.855ZM133.877 192.943L138.625 187.764C139.92 186.469 142.078 186.469 142.941 187.764C144.236 188.627 144.236 190.785 142.941 192.08L137.762 196.828C137.33 197.691 136.467 197.691 135.604 197.691C133.014 197.691 131.719 194.67 133.877 192.943ZM162.365 207.188V199.85C162.365 198.123 163.66 196.828 165.387 196.828C167.113 196.828 168.408 198.123 168.408 199.85V207.188C168.408 208.914 167.113 210.209 165.387 210.209C163.66 210.209 162.365 208.914 162.365 207.188ZM154.164 144.168C153.301 142.441 154.164 140.715 155.891 140.283C157.186 139.42 158.912 140.283 159.775 142.01L167.977 163.16L182.221 171.361C184.811 173.088 183.947 176.973 180.494 176.973C180.062 176.973 179.631 176.973 179.199 176.541L164.092 167.908C163.229 167.477 162.797 167.045 162.797 166.182L154.164 144.168ZM187.832 192.08C186.537 190.785 186.537 188.627 187.832 187.764C189.127 186.469 190.854 186.469 192.148 187.764L197.328 192.943C199.055 194.67 197.76 197.691 195.17 197.691C194.307 197.691 193.443 197.691 193.012 196.828L187.832 192.08ZM197.328 165.318C197.328 163.592 198.623 162.297 200.35 162.297H207.256C208.982 162.297 210.277 163.592 210.277 165.318C210.277 167.045 208.982 168.34 207.256 168.34H200.35C198.623 168.34 197.328 167.045 197.328 165.318ZM189.99 143.736C187.4 143.736 186.105 140.283 187.832 138.557L193.012 133.377C194.307 132.082 196.033 132.082 197.328 133.377C198.623 134.672 198.623 136.398 197.328 137.693L192.148 142.873C191.717 143.305 190.854 143.736 189.99 143.736Z" fill="#7BDAFF"/>
<path fill-rule="evenodd" clip-rule="evenodd" d="M162.365 109.637V6.04297H6.97461V214.957H140.352C122.223 205.893 109.705 186.9 109.705 165.318C109.705 135.535 133.014 110.932 162.365 109.637ZM145.963 85.4648H101.072C99.7773 85.4648 98.0508 84.1699 98.0508 82.4434V26.7617C98.0508 25.0352 99.7773 23.7402 101.072 23.7402H145.963C147.689 23.7402 148.984 25.0352 148.984 26.7617V82.4434C148.984 84.1699 147.689 85.4648 145.963 85.4648ZM84.6699 29.7832H22.9453C21.2188 29.7832 19.9238 28.4883 19.9238 26.7617C19.9238 25.0352 21.2188 23.7402 22.9453 23.7402H84.6699C86.3965 23.7402 87.6914 25.0352 87.6914 26.7617C87.6914 28.4883 86.3965 29.7832 84.6699 29.7832ZM84.6699 57.8398H22.9453C21.2188 57.8398 19.9238 56.5449 19.9238 54.8184C19.9238 53.0918 21.2188 51.7969 22.9453 51.7969H84.6699C86.3965 51.7969 87.6914 53.0918 87.6914 54.8184C87.6914 56.5449 86.3965 57.8398 84.6699 57.8398ZM84.6699 85.4648H22.9453C21.2188 85.4648 19.9238 84.1699 19.9238 82.4434C19.9238 80.7168 21.2188 79.4219 22.9453 79.4219H84.6699C86.3965 79.4219 87.6914 80.7168 87.6914 82.4434C87.6914 84.1699 86.3965 85.4648 84.6699 85.4648ZM22.9453 107.479H125.244C126.971 107.479 128.266 108.773 128.266 110.5C128.266 112.227 126.971 113.521 125.244 113.521H22.9453C21.2188 113.521 19.9238 112.227 19.9238 110.5C19.9238 108.773 21.2188 107.479 22.9453 107.479ZM22.9453 135.535H100.641C102.367 135.535 103.662 136.83 103.662 138.557C103.662 140.283 102.367 141.578 100.641 141.578H22.9453C21.2188 141.578 19.9238 140.283 19.9238 138.557C19.9238 136.83 21.2188 135.535 22.9453 135.535ZM22.9453 163.16H95.8926C97.6191 163.16 98.9141 164.455 98.9141 166.182C98.9141 167.908 97.6191 169.203 95.8926 169.203H22.9453C21.2188 169.203 19.9238 167.908 19.9238 166.182C19.9238 164.455 21.2188 163.16 22.9453 163.16ZM22.9453 191.217H100.209C101.936 191.217 103.23 192.512 103.23 194.238C103.23 195.965 101.936 197.26 100.209 197.26H22.9453C21.2188 197.26 19.9238 195.965 19.9238 194.238C19.9238 192.512 21.2188 191.217 22.9453 191.217Z" fill="url(#paint0_linear_611_1638)"/>
<path fill-rule="evenodd" clip-rule="evenodd" d="M142.941 79.4219V29.7832H104.094V79.4219H142.941Z" fill="#7BDAFF"/>
</g>
<defs>
<linearGradient id="paint0_linear_611_1638" x1="6.97461" y1="214.957" x2="200.224" y2="164.862" gradientUnits="userSpaceOnUse">
<stop offset="0.00397914" stop-color="#00ADEF"/>
<stop offset="1" stop-color="#002299"/>
</linearGradient>
<clipPath id="clip0_611_1638">
<rect width="221" height="221" fill="white" transform="translate(0.5)"/>
</clipPath>
</defs>
</svg>
