<svg width="256" height="257" viewBox="0 0 256 257" fill="none" xmlns="http://www.w3.org/2000/svg">
<g clip-path="url(#clip0_611_1659)">
<path d="M245.183 56.7454C207.847 41.1844 171.037 26.1684 148.909 26.3562L148.878 26.4527C120.848 23.4437 99.2302 26.3105 86.6481 37.4571L86.6532 37.4774L13.4439 56.446C5.30731 58.5525 0.414172 66.8617 2.52573 75.0033L42.7469 230.279C44.8585 238.421 53.1677 243.309 61.3094 241.197L141.894 220.326C142.087 220.275 142.28 220.219 142.467 220.168C152.349 223.04 159.719 226.866 164.41 231.711L183.638 224.366C202.466 176.663 225.779 127.417 252.528 76.988L245.183 56.7454Z" fill="#20BAB6"/>
<path d="M197.475 170.44L174.359 219.894C173.171 222.437 170.151 223.534 167.613 222.346L160.472 218.102C163.065 215.976 164.974 212.976 165.71 209.438L171.202 183.008L197.475 170.44ZM240.701 65.9887C243.239 67.1764 244.335 70.1966 243.147 72.7345L211.21 141.066H211.205L176.461 157.684L196.104 63.1056L215.098 54.0198L240.701 65.9887Z" fill="url(#paint0_linear_611_1659)"/>
<path d="M245.183 56.7455L168.288 20.8032C161.426 17.5953 153.046 20.2906 148.909 26.3562L148.878 26.4527L197.028 45.6547L197.114 45.6141L215.098 54.0197L240.701 65.9886C243.239 67.1764 244.335 70.1965 243.147 72.7345L211.21 141.066H211.205L197.475 170.44L174.359 219.894C173.171 222.437 170.151 223.534 167.613 222.346L160.472 218.102C157.035 220.925 152.396 222.224 147.706 221.249L142.468 220.168L164.411 231.711C172.029 235.274 180.075 231.985 183.638 224.366L252.528 76.9881C256.091 69.3692 252.802 60.3037 245.183 56.7455Z" fill="#E15C63"/>
<path d="M197.028 45.6547C195.175 41.7209 191.257 38.7464 185.785 37.1881L148.878 26.4527L108.611 14.7426C100.373 13.0321 93.3889 18.4886 90.6022 26.5542L86.6481 37.4572L86.6532 37.4775L94.0285 35.5689C102.17 33.4625 110.479 38.3505 112.591 46.4922L121.438 80.6477C133.617 103.309 140.066 131.438 142.853 163.06L142.792 163.075L152.812 201.763C154.873 209.712 150.259 217.818 142.467 220.168L147.706 221.249C152.396 222.224 157.035 220.924 160.472 218.102C163.065 215.976 164.974 212.976 165.71 209.438L171.202 183.008L176.461 157.684L196.104 63.1055L197.906 54.4258C198.581 51.1772 198.241 48.2129 197.028 45.6547Z" fill="url(#paint1_linear_611_1659)"/>
<path d="M162.598 85.8403C159.705 113.093 169.598 149.324 142.853 163.06L142.792 163.075L121.438 80.6477C121.438 80.6477 130.62 68.2422 132.143 61.4761C132.143 61.4761 134.174 71.6279 134.174 79.7492C134.174 79.7492 141.513 65.1561 144.325 47.2637C147.437 71.9324 155.416 70.1305 150.416 106.144C150.416 106.144 158.538 95.992 162.598 85.8403Z" fill="#F69552"/>
<path d="M142.985 204.311C143.691 207.022 142.061 209.793 139.346 210.499L97.5055 221.336L129.473 152.146L142.985 204.311ZM44.2697 58.9484L21.5755 108.063L12.3527 72.4604C11.6471 69.7448 13.2765 66.9785 15.9921 66.2729L44.2697 58.9484ZM102.764 49.0403L121.438 121.128L72.0956 227.919L58.7613 231.371C56.0457 232.076 53.2794 230.447 52.5739 227.731L29.6106 139.076L69.6745 52.365L96.5766 45.3958C99.2922 44.6954 102.059 46.3247 102.764 49.0403Z" fill="url(#paint2_linear_611_1659)"/>
<path d="M121.438 121.128L129.473 152.146L97.5054 221.336L72.0956 227.919L121.438 121.128ZM69.6744 52.365L29.6106 139.076L21.5755 108.063L44.2697 58.9484L69.6744 52.365Z" fill="#6FCEAE"/>
<path d="M135.113 77.7544C134.529 79.0437 134.174 79.7493 134.174 79.7493C134.174 77.2113 133.976 74.4754 133.701 71.9121C134.148 73.7648 134.62 75.7139 135.113 77.7544Z" fill="#EF9D26"/>
<path d="M200.475 61.0144C203.916 63.5473 208.261 69.1612 205.601 80.724C203.627 89.3022 196.739 120.681 190.069 151.172L176.461 157.684L196.104 63.1057L200.475 61.0144Z" fill="#7FBEBF"/>
<path d="M200.475 61.0144L196.104 63.1057L196.927 59.1465C196.927 59.1465 198.561 59.6033 200.475 61.0144ZM176.461 157.684L190.069 151.172C188.16 159.918 186.262 168.597 184.506 176.643L171.202 183.008L176.461 157.684Z" fill="#20A8A1"/>
<path d="M171.202 183.008L184.506 176.643C179.547 199.362 175.699 217.026 175.699 217.026L174.359 219.894C173.171 222.437 170.151 223.533 167.613 222.346L160.472 218.102C163.065 215.975 164.974 212.976 165.71 209.438L166.476 205.748L171.202 183.008Z" fill="#7FBEBF"/>
<path d="M174.359 219.894L175.699 217.026C175.699 217.026 174.116 228.848 158.797 228.757H158.792L142.468 220.168L147.706 221.249C152.396 222.224 157.035 220.925 160.472 218.102L167.613 222.346C170.151 223.534 173.171 222.437 174.359 219.894Z" fill="#D14B62"/>
<path d="M166.476 205.748L165.71 209.438C165.008 212.841 163.159 215.9 160.472 218.102C157.035 220.925 152.396 222.224 147.706 221.249L142.468 220.168C150.259 217.818 154.873 209.712 152.812 201.763L142.792 163.075L142.853 163.06C147.508 160.669 151.051 157.598 153.746 154.014C160.736 182.475 166.476 205.748 166.476 205.748Z" fill="#EF9D26"/>
<path d="M135.113 77.7546C140.148 98.586 147.452 128.402 153.746 154.014C151.051 157.598 147.508 160.669 142.853 163.06L142.792 163.075L121.438 80.6478C121.438 80.6478 129.179 70.1915 131.625 63.2427C132.235 65.7908 132.93 68.6992 133.701 71.897V71.9123C133.976 74.4756 134.174 77.2115 134.174 79.7494C134.174 79.7494 134.529 79.0439 135.113 77.7546Z" fill="#DD864A"/>
<path d="M129.473 54.0198C129.92 56.0146 130.661 59.1769 131.625 63.2426C129.179 70.1915 121.438 80.6478 121.438 80.6478L112.591 46.4923C112.063 44.44 111.108 42.522 109.789 40.8631C109.789 40.8631 125.078 34.4168 129.473 54.0198Z" fill="#EF9D26"/>
<path d="M104.728 48.5287C103.745 44.7355 99.8596 42.4489 96.0669 43.4315L15.4824 64.3076C11.6892 65.2903 9.40249 69.1753 10.3852 72.9685L50.6089 228.24C50.8406 229.145 51.2493 229.994 51.8115 230.74C52.3736 231.485 53.078 232.111 53.8839 232.583C54.6873 233.058 55.5769 233.37 56.5014 233.499C57.4258 233.628 58.3668 233.573 59.2699 233.337L139.854 212.462C143.648 211.479 145.934 207.594 144.952 203.801L104.728 48.5287ZM14.3164 71.9508C14.2151 71.5637 14.1915 71.1602 14.2471 70.7639C14.3027 70.3675 14.4363 69.9862 14.6403 69.6418C14.8423 69.2965 15.1108 68.9947 15.4302 68.7538C15.7496 68.5129 16.1136 68.3377 16.5011 68.2383L40.6257 61.9884L22.1145 102.052L14.3164 71.9508ZM23.7215 108.256L45.7066 60.6727L66.033 55.407L30.1491 133.069L23.7215 108.256ZM58.2522 229.407C57.8652 229.508 57.4619 229.532 57.0658 229.476C56.6696 229.421 56.2884 229.287 55.9442 229.084C55.5988 228.881 55.2969 228.613 55.0559 228.293C54.8149 227.974 54.6396 227.61 54.5402 227.222L31.7561 139.272L71.1139 54.0904L97.0851 47.3623C97.3344 47.2977 97.5909 47.2649 97.8485 47.2648C98.5231 47.2657 99.1784 47.4902 99.7119 47.9031C100.245 48.316 100.627 48.8941 100.797 49.5469L119.292 120.937L70.6581 226.193L58.2522 229.407ZM75.739 224.877L120.898 127.14L127.326 151.953L96.0648 219.611L75.739 224.877ZM138.837 208.531L101.146 218.295L128.933 158.156L141.021 204.819C141.223 205.601 141.106 206.431 140.696 207.127C140.287 207.823 139.618 208.328 138.837 208.531ZM254.955 64.6517C253.382 60.3185 250.216 56.8572 246.041 54.905L169.148 18.9628C162.05 15.6452 153.059 17.9162 148.06 24.1011L109.176 12.791C109.125 12.7761 109.074 12.7634 109.022 12.753C100.339 10.9465 91.9762 16.3518 88.6947 25.8609L85.0928 35.7878L12.9368 54.4802C8.47411 55.636 4.72913 58.4612 2.39119 62.4341C0.0537488 66.407 -0.597485 71.0524 0.558798 75.5151L40.7825 230.786C42.7946 238.553 49.8171 243.719 57.4918 243.719C58.9196 243.719 60.3713 243.54 61.8169 243.166L142.228 222.335L163.465 233.511C163.494 233.525 163.522 233.54 163.551 233.553C165.936 234.668 168.37 235.202 170.732 235.202C176.862 235.201 182.497 231.603 185.478 225.227L254.367 77.8475C256.319 73.6715 256.528 68.985 254.955 64.6517ZM141.383 218.359L60.7982 239.235C53.7554 241.061 46.5381 236.814 44.7133 229.769L4.48955 74.4969C3.60584 71.0839 4.10328 67.5318 5.891 64.4934C7.67872 61.4554 10.543 59.2957 13.9555 58.4114L94.5401 37.5359C95.6283 37.253 96.748 37.1094 97.8724 37.1085C100.196 37.1085 102.487 37.7278 104.543 38.9374C107.581 40.7251 109.741 43.5894 110.625 47.0019L150.849 202.274C151.732 205.687 151.235 209.239 149.447 212.277C147.659 215.314 144.795 217.475 141.383 218.359ZM149.614 108.007C150.022 108.182 150.477 108.219 150.908 108.111C151.339 108.003 151.723 107.757 152.001 107.41C152.238 107.114 156.218 102.112 160.002 95.6095C159.916 99.7965 159.976 104.065 160.034 108.255C160.331 129.662 160.603 149.924 144.098 160.021L123.645 81.0676C125.041 79.1225 128.647 73.9573 131.293 68.9058C131.738 72.2132 132.144 76.1998 132.144 79.7474C132.144 80.2043 132.298 80.6478 132.581 81.0063C132.864 81.3647 133.26 81.6171 133.705 81.7227C134.15 81.8282 134.617 81.7807 135.031 81.5879C135.445 81.3951 135.782 81.0681 135.988 80.66C136.231 80.1753 140.878 70.8509 144.18 57.9511C144.971 61.2788 145.826 64.0447 146.624 66.6283C149.41 75.642 151.611 82.7614 148.406 105.863C148.344 106.304 148.429 106.752 148.648 107.139C148.866 107.527 149.205 107.832 149.614 108.007ZM148.513 219.335C150.303 217.974 151.809 216.276 152.947 214.336C155.284 210.363 155.935 205.718 154.779 201.255L145.158 164.117C164.714 153.052 164.401 130.259 164.094 108.199C163.989 100.715 163.882 92.9761 164.617 86.0526C164.668 85.565 164.542 85.0751 164.26 84.6735C163.979 84.2719 163.562 83.9855 163.086 83.8674C162.61 83.7503 162.108 83.8088 161.672 84.0324C161.236 84.2559 160.895 84.6294 160.712 85.0841C158.775 89.9275 155.847 94.8202 153.383 98.5291C155.196 80.6118 153.089 73.7949 150.502 65.4278C149.045 60.7128 147.393 55.369 146.339 47.0075C146.278 46.5221 146.043 46.075 145.679 45.7486C145.314 45.4222 144.844 45.2384 144.355 45.2309C143.866 45.2225 143.39 45.3916 143.015 45.707C142.641 46.0224 142.393 46.4628 142.319 46.9466C140.809 56.5588 137.937 65.2654 135.663 71.1427C135.068 65.7938 134.189 61.3539 134.133 61.0758C134.042 60.6195 133.797 60.2084 133.439 59.9113C133.081 59.6141 132.632 59.4489 132.166 59.4434H132.142C131.681 59.4435 131.234 59.6005 130.874 59.8885C130.514 60.1765 130.263 60.5784 130.161 61.0281C129.23 65.1684 125.057 71.8102 122.301 75.8831L114.555 45.9822C112.169 36.77 102.731 31.2154 93.5208 33.6036L89.8596 34.5518L92.5219 27.2146C94.7177 20.8525 100.393 15.1559 108.12 16.7122L185.225 39.1404C193.372 41.4626 197.37 47.0217 195.918 54.0107L163.721 209.025C163.004 212.476 160.986 215.442 158.039 217.376C155.206 219.235 151.839 219.923 148.513 219.335ZM200.167 49.2855L210.345 54.0432L198.925 59.5043L199.895 54.8375C200.297 52.9031 200.379 51.0443 200.167 49.2855ZM215.105 56.2679L239.839 67.8292C240.202 67.9977 240.528 68.2364 240.798 68.5316C241.068 68.8267 241.277 69.1725 241.412 69.5489C241.55 69.9247 241.612 70.324 241.594 70.7238C241.576 71.1235 241.479 71.5157 241.308 71.8777L209.677 139.549L179.281 154.084L197.888 64.5015L215.105 56.2679ZM174.021 179.407L178.243 159.082L206.967 145.345L195.946 168.922L174.021 179.407ZM193.237 174.719L172.522 219.036C172.185 219.753 171.583 220.311 170.842 220.592C170.102 220.873 169.281 220.855 168.553 220.542L163.789 217.711C165.752 215.475 167.099 212.766 167.698 209.852L172.984 184.405L193.237 174.719ZM250.688 76.1283L181.799 223.507C178.673 230.195 171.745 232.874 165.312 229.894L153.081 223.457C155.617 223.121 158.065 222.216 160.267 220.771C160.381 220.697 160.49 220.617 160.602 220.54L166.576 224.09C166.634 224.124 166.693 224.156 166.754 224.185C167.692 224.624 168.716 224.852 169.752 224.852C172.427 224.852 174.995 223.335 176.201 220.756L244.987 73.5969C245.384 72.7522 245.611 71.837 245.652 70.9043C245.694 69.9716 245.55 69.04 245.229 68.1632C244.913 67.2848 244.426 66.4779 243.796 65.789C243.166 65.1002 242.405 64.5432 241.559 64.1502L198.498 44.0224C196.297 39.9886 192.127 36.8862 186.35 35.2391L152.403 25.365C156.38 21.5698 162.506 20.3404 167.43 22.6423L244.321 58.5845C247.515 60.0768 249.936 62.7239 251.138 66.0379C252.341 69.352 252.181 72.9345 250.688 76.1283Z" fill="#1E1E1E"/>
</g>
<defs>
<linearGradient id="paint0_linear_611_1659" x1="160.472" y1="222.825" x2="267.676" y2="204.42" gradientUnits="userSpaceOnUse">
<stop offset="0.00397914" stop-color="#00ADEF"/>
<stop offset="1" stop-color="#002299"/>
</linearGradient>
<linearGradient id="paint1_linear_611_1659" x1="86.6481" y1="221.57" x2="229.72" y2="194.706" gradientUnits="userSpaceOnUse">
<stop offset="0.00397914" stop-color="#00ADEF"/>
<stop offset="1" stop-color="#002299"/>
</linearGradient>
<linearGradient id="paint2_linear_611_1659" x1="12.1882" y1="231.535" x2="176.159" y2="191.364" gradientUnits="userSpaceOnUse">
<stop offset="0.00397914" stop-color="#00ADEF"/>
<stop offset="1" stop-color="#002299"/>
</linearGradient>
<clipPath id="clip0_611_1659">
<rect width="256" height="256" fill="white" transform="translate(0 0.0629883)"/>
</clipPath>
</defs>
</svg>
