<svg width="256" height="256" viewBox="0 0 256 256" fill="none" xmlns="http://www.w3.org/2000/svg">
<g clip-path="url(#clip0_611_1643)">
<g clip-path="url(#clip1_611_1643)">
<path d="M212 108.075L134.619 134.879C132.5 135.619 130.27 135.994 128.025 135.988C125.772 135.99 123.534 135.618 121.402 134.887L44 108.074V153.667L118.667 172.667L137 172L212 153.333V108.075Z" fill="url(#paint0_linear_611_1643)"/>
<path d="M210 108.76V150.48C207 151.26 203.72 152.14 200.2 153.1C178.04 159.02 144.56 168 127.9 168C113.52 168 98.88 164.12 76.72 158.26C67.82 155.9 57.74 153.22 46 150.36V108.76L38 106V171.82C38.0033 174.474 38.8864 177.053 40.5113 179.152C42.1362 181.251 44.4111 182.752 46.98 183.42C51.72 184.66 56.16 185.84 60.36 186.94C92.26 195.36 109.82 200 128 200C147.74 200 187.4 189.66 209.26 183.5C211.773 182.788 213.985 181.276 215.562 179.194C217.139 177.111 217.995 174.572 218 171.96V106L210 108.76ZM210 171.96C209.997 172.828 209.713 173.671 209.19 174.364C208.667 175.056 207.934 175.56 207.1 175.8C189.8 180.68 147.48 192 128 192C110.86 192 93.66 187.46 62.4 179.22C58.1999 178.1 53.7333 176.92 49 175.68C48.1434 175.459 47.3843 174.96 46.8414 174.262C46.2986 173.563 46.0026 172.705 46 171.82V158.6C56.86 161.28 66.28 163.76 74.68 165.98C97.44 172.02 112.48 176 127.9 176C145.62 176 178.36 167.22 202.26 160.82C205 160.08 207.58 159.4 210 158.76V171.96Z" fill="#2D4356"/>
<path d="M210 158.76V171.96C209.997 172.828 209.713 173.671 209.19 174.364C208.667 175.056 207.934 175.56 207.1 175.8C189.8 180.68 147.48 192 128 192C110.86 192 93.66 187.46 62.4 179.22C58.1999 178.1 53.7333 176.92 49 175.68C48.1434 175.459 47.3843 174.96 46.8414 174.262C46.2986 173.563 46.0026 172.705 46 171.82V158.6C56.86 161.28 66.28 163.76 74.68 165.98C97.44 172.02 112.48 176 127.9 176C145.62 176 178.36 167.22 202.26 160.82C205 160.08 207.58 159.4 210 158.76Z" fill="url(#paint1_linear_611_1643)"/>
<path d="M250.88 86.14C252.365 85.5799 253.647 84.5864 254.56 83.2886C255.474 81.9907 255.976 80.4483 256.002 78.8616C256.027 77.2748 255.576 75.7169 254.705 74.3899C253.835 73.063 252.586 72.0283 251.12 71.42L132.54 24.88C129.641 23.7136 126.404 23.7065 123.5 24.86L4.72002 71.48C3.27297 72.1193 2.05033 73.177 1.20947 74.517C0.368606 75.857 -0.052003 77.4179 0.00177455 78.999C0.055552 80.5801 0.581254 82.1089 1.51122 83.3886C2.44119 84.6684 3.73287 85.6406 5.22002 86.18C5.22002 86.18 123.96 127.3 124 127.32C126.592 128.21 129.408 128.21 132 127.32L232 92.68V185.24C223.46 190.8 220.6 213.42 220.06 218.46C219.88 220.182 220.063 221.922 220.597 223.569C221.131 225.215 222.004 226.732 223.16 228.02C224.281 229.265 225.65 230.263 227.18 230.948C228.709 231.633 230.364 231.992 232.04 232H239.96C241.636 231.992 243.291 231.633 244.82 230.948C246.35 230.263 247.719 229.265 248.84 228.02C249.996 226.732 250.869 225.215 251.403 223.569C251.937 221.922 252.12 220.182 251.94 218.46C251.4 213.42 248.54 190.8 240 185.24V89.9L250.88 86.14ZM243.98 219.3C244.038 219.875 243.979 220.456 243.806 221.008C243.634 221.56 243.351 222.071 242.975 222.51C242.599 222.949 242.139 223.308 241.62 223.564C241.102 223.82 240.537 223.968 239.96 224H232.04C231.461 223.975 230.892 223.831 230.371 223.577C229.849 223.323 229.386 222.964 229.009 222.524C228.632 222.083 228.349 221.569 228.179 221.015C228.009 220.46 227.955 219.876 228.02 219.3C229.54 204.92 233.62 194.04 236 192.14C238.38 194.04 242.46 204.92 243.98 219.3ZM129.38 119.76C128.486 120.07 127.514 120.07 126.62 119.76L8.06002 78.76L126.48 32.28C127.477 31.8865 128.588 31.8936 129.58 32.2999L247.86 78.7199L129.38 119.76Z" fill="#2D4356"/>
<path d="M247.86 78.7201L129.38 119.76C128.486 120.07 127.514 120.07 126.62 119.76L8.06006 78.7601L126.48 32.2801C127.477 31.8865 128.588 31.8937 129.58 32.3L247.86 78.7201Z" fill="url(#paint2_linear_611_1643)"/>
<path d="M243.98 219.3C244.038 219.875 243.979 220.456 243.806 221.008C243.634 221.559 243.351 222.07 242.975 222.51C242.599 222.949 242.138 223.308 241.62 223.564C241.102 223.82 240.537 223.968 239.96 224H232.04C231.46 223.975 230.892 223.831 230.371 223.577C229.849 223.323 229.386 222.964 229.009 222.523C228.632 222.083 228.349 221.569 228.179 221.014C228.009 220.46 227.955 219.876 228.02 219.3C229.54 204.92 233.62 194.04 236 192.14C238.38 194.04 242.46 204.92 243.98 219.3Z" fill="url(#paint3_linear_611_1643)"/>
<path d="M128 66C118.04 66 108 69.08 108 76C108 82.9 118.04 86 128 86C137.96 86 148 82.9 148 76C148 69.08 137.96 66 128 66ZM128 78C124.2 78.1313 120.415 77.4494 116.9 76C120.412 74.5407 124.199 73.8584 128 74C131.801 73.8584 135.588 74.5407 139.1 76C135.585 77.4494 131.8 78.1313 128 78Z" fill="#2D4356"/>
<path d="M139.1 76C135.585 77.4494 131.8 78.1312 128 78C124.2 78.1312 120.415 77.4494 116.9 76C120.413 74.5406 124.199 73.8584 128 74C131.801 73.8584 135.588 74.5406 139.1 76Z" fill="white"/>
<path opacity="0.4" d="M210 146.48V150.48C207 151.26 203.72 152.14 200.2 153.1C178.04 159.02 144.56 168 127.9 168C113.52 168 98.88 164.12 76.72 158.26C67.82 155.9 57.74 153.22 46 150.36V146.36C57.74 149.22 67.82 151.9 76.72 154.26C98.88 160.12 113.52 164 127.9 164C144.56 164 178.04 155.02 200.2 149.1C203.72 148.14 207 147.26 210 146.48Z" fill="#72492D"/>
<path opacity="0.3" d="M247.86 78.7201L242.44 80.6001L129.58 36.3001C128.588 35.8937 127.477 35.8866 126.48 36.2801L13.4801 80.6401L8.06006 78.7601L126.48 32.2801C127.477 31.8865 128.588 31.8937 129.58 32.3L247.86 78.7201Z" fill="#E5D0C3"/>
<path opacity="0.5" d="M210 167.96V171.96C209.997 172.828 209.713 173.671 209.19 174.364C208.667 175.056 207.934 175.56 207.1 175.8C189.8 180.68 147.48 192 128 192C110.86 192 93.66 187.46 62.4 179.22C58.1999 178.1 53.7333 176.92 49 175.68C48.1434 175.459 47.3843 174.96 46.8414 174.262C46.2986 173.563 46.0026 172.705 46 171.82V167.82C46.0026 168.705 46.2986 169.563 46.8414 170.262C47.3843 170.96 48.1434 171.459 49 171.68C53.74 172.92 58.2067 174.1 62.4 175.22C93.66 183.46 110.86 188 128 188C147.48 188 189.8 176.68 207.1 171.8C207.934 171.56 208.667 171.056 209.19 170.364C209.713 169.671 209.997 168.828 210 167.96Z" fill="#A54B3F"/>
<path opacity="0.4" d="M247.86 78.7201L129.38 119.76C128.486 120.07 127.514 120.07 126.62 119.76L8.06006 78.7601L13.4801 76.6401L126.62 115.76C127.514 116.07 128.486 116.07 129.38 115.76L242.44 76.6001L247.86 78.7201Z" fill="#72492D"/>
<path opacity="0.5" d="M243.98 219.3C244.038 219.875 243.979 220.456 243.807 221.008C243.634 221.559 243.351 222.07 242.975 222.51C242.6 222.949 242.139 223.308 241.62 223.564C241.102 223.82 240.537 223.968 239.96 224H232.04C231.461 223.975 230.892 223.831 230.371 223.577C229.849 223.323 229.386 222.964 229.009 222.523C228.632 222.083 228.349 221.569 228.179 221.014C228.009 220.46 227.955 219.876 228.02 219.3C228.1 218.6 228.18 217.9 228.26 217.22C228.532 218.013 229.04 218.704 229.715 219.201C230.391 219.698 231.202 219.976 232.04 220H239.96C240.8 219.972 241.611 219.686 242.284 219.182C242.956 218.677 243.458 217.979 243.72 217.18C243.82 217.88 243.9 218.58 243.98 219.3Z" fill="#A54B3F"/>
</g>
</g>
<defs>
<linearGradient id="paint0_linear_611_1643" x1="44" y1="172.667" x2="166.399" y2="61.7169" gradientUnits="userSpaceOnUse">
<stop offset="0.00397914" stop-color="#00ADEF"/>
<stop offset="1" stop-color="#002299"/>
</linearGradient>
<linearGradient id="paint1_linear_611_1643" x1="46" y1="192" x2="101.406" y2="97.1847" gradientUnits="userSpaceOnUse">
<stop offset="0.00397914" stop-color="#00ADEF"/>
<stop offset="1" stop-color="#002299"/>
</linearGradient>
<linearGradient id="paint2_linear_611_1643" x1="8.06006" y1="119.993" x2="175.401" y2="-38.9276" gradientUnits="userSpaceOnUse">
<stop offset="0.00397914" stop-color="#00ADEF"/>
<stop offset="1" stop-color="#002299"/>
</linearGradient>
<linearGradient id="paint3_linear_611_1643" x1="227.993" y1="224" x2="248.608" y2="220.39" gradientUnits="userSpaceOnUse">
<stop offset="0.00397914" stop-color="#00ADEF"/>
<stop offset="1" stop-color="#002299"/>
</linearGradient>
<clipPath id="clip0_611_1643">
<rect width="256" height="256" fill="white"/>
</clipPath>
<clipPath id="clip1_611_1643">
<rect width="256" height="256" fill="white"/>
</clipPath>
</defs>
</svg>
