<svg width="25" height="25" viewBox="0 0 25 25" fill="none" xmlns="http://www.w3.org/2000/svg">
<path d="M10.4897 2.93754L3.27091 8.71878C2.45841 9.36461 1.93757 10.7292 2.11466 11.7501L3.50007 20.0417C3.75007 21.5209 5.16673 22.7188 6.66673 22.7188H18.3334C19.823 22.7188 21.2501 21.5104 21.5001 20.0417L22.8855 11.7501C23.0522 10.7292 22.5313 9.36461 21.7292 8.71878L14.5105 2.94797C13.3959 2.05213 11.5938 2.05212 10.4897 2.93754Z" stroke="white" stroke-width="1.5" stroke-linecap="round" stroke-linejoin="round"/>
<path d="M12.5002 16.1458C13.9384 16.1458 15.1043 14.9799 15.1043 13.5417C15.1043 12.1034 13.9384 10.9375 12.5002 10.9375C11.0619 10.9375 9.896 12.1034 9.896 13.5417C9.896 14.9799 11.0619 16.1458 12.5002 16.1458Z" stroke="white" stroke-width="1.5" stroke-linecap="round" stroke-linejoin="round"/>
</svg>
