<svg width="25" height="25" viewBox="0 0 25 25" fill="none" xmlns="http://www.w3.org/2000/svg">
<path d="M8.3335 12.7084H15.6252" stroke="white" stroke-width="1.5" stroke-miterlimit="10" stroke-linecap="round" stroke-linejoin="round"/>
<path d="M8.3335 16.875H12.896" stroke="white" stroke-width="1.5" stroke-miterlimit="10" stroke-linecap="round" stroke-linejoin="round"/>
<path d="M10.4168 6.25004H14.5835C16.6668 6.25004 16.6668 5.20837 16.6668 4.16671C16.6668 2.08337 15.6252 2.08337 14.5835 2.08337H10.4168C9.37516 2.08337 8.3335 2.08337 8.3335 4.16671C8.3335 6.25004 9.37516 6.25004 10.4168 6.25004Z" stroke="white" stroke-width="1.5" stroke-miterlimit="10" stroke-linecap="round" stroke-linejoin="round"/>
<path d="M16.6667 4.1875C20.1354 4.375 21.875 5.65625 21.875 10.4167V16.6667C21.875 20.8333 20.8333 22.9167 15.625 22.9167H9.375C4.16667 22.9167 3.125 20.8333 3.125 16.6667V10.4167C3.125 5.66667 4.86458 4.375 8.33333 4.1875" stroke="white" stroke-width="1.5" stroke-miterlimit="10" stroke-linecap="round" stroke-linejoin="round"/>
</svg>
