<svg width="42" height="43" viewBox="0 0 42 43" fill="none" xmlns="http://www.w3.org/2000/svg">
<rect x="0.5" y="1.07446" width="41" height="41" rx="9.5" fill="white"/>
<g clip-path="url(#clip0_438_1654)">
<path d="M21.0201 12.4844C17.7101 12.4844 15.0201 15.1744 15.0201 18.4844V21.3744C15.0201 21.9844 14.7601 22.9144 14.4501 23.4344L13.3001 25.3444C12.5901 26.5244 13.0801 27.8344 14.3801 28.2744C18.6901 29.7144 23.3401 29.7144 27.6501 28.2744C28.8601 27.8744 29.3901 26.4444 28.7301 25.3444L27.5801 23.4344C27.2801 22.9144 27.0201 21.9844 27.0201 21.3744V18.4844C27.0201 15.1844 24.3201 12.4844 21.0201 12.4844Z" stroke="#101010" stroke-width="1.5" stroke-miterlimit="10" stroke-linecap="round"/>
<path d="M22.8699 12.7745C22.5599 12.6845 22.2399 12.6145 21.9099 12.5745C20.9499 12.4545 20.0299 12.5245 19.1699 12.7745C19.4599 12.0345 20.1799 11.5145 21.0199 11.5145C21.8599 11.5145 22.5799 12.0345 22.8699 12.7745Z" stroke="#101010" stroke-width="1.5" stroke-miterlimit="10" stroke-linecap="round" stroke-linejoin="round"/>
<path d="M24.02 28.6345C24.02 30.2845 22.67 31.6345 21.02 31.6345C20.2 31.6345 19.44 31.2945 18.9 30.7545C18.36 30.2145 18.02 29.4545 18.02 28.6345" stroke="#101010" stroke-width="1.5" stroke-miterlimit="10"/>
</g>
<rect x="0.5" y="1.07446" width="41" height="41" rx="9.5" stroke="#D9D9D9"/>
<defs>
<clipPath id="clip0_438_1654">
<rect width="24" height="24" fill="white" transform="translate(9 9.57446)"/>
</clipPath>
</defs>
</svg>
